SplineFontDB: 1.0
FontName: NimbusSanL-ReguItal
FullName: Nimbus Sans L Regular Italic
FamilyName: Nimbus Sans L
Weight: Regular
Copyright: Copyright (URW)++,Copyright 1999 by (URW)++ Design & Development; Cyrillic glyphs added by Valek Filippov (C) 2001 - 2004
Version: 1.06
ItalicAngle: -12
UnderlinePosition: -151
UnderlineWidth: 50
Ascent: 800
Descent: 200
NeedsXUIDChange: 1
UniqueID: 4137493
FSType: 0
OS2WinAscent: 0
OS2WinAOffset: 1
OS2WinDescent: 0
OS2WinDOffset: 1
HheadAscent: 0
HheadAOffset: 1
HheadDescent: 0
HheadDOffset: 1
ScriptLang: 3
 1 latn 1 dflt 
 1 DFLT 1 dflt 
 1 hebr 1 dflt 
Encoding: adobestandard
UnicodeInterp: none
DisplaySize: -36
AntiAlias: 1
FitToEm: 1
WinInfo: 405 27 12
BeginPrivate: 7
BlueValues 31 [-23 0 524 544 729 749 686 709]
BlueScale 8 0.039625
StdHW 4 [78]
StdVW 4 [88]
StemSnapH 194 [68 73 78 83] 
systemdict /internaldict known
{1183615869 systemdict /internaldict get exec
/StemSnapLength 2 copy known { get 4 lt } { pop pop true } ifelse }
{ true } ifelse { pop [78 83] } if
StemSnapV 2 []
ForceBold 5 false
EndPrivate
BeginChars: 768 661
StartChar: uniFFFD
Encoding: 0 65533 0
Width: 333
Flags: W
HStem: -205 45<98 118> -20 20G<47 116>
VStem: 171 75<-130 -116>
Fore
116 0 m 1
 47 0 l 1
 51 -3 59 -6 69 -11 c 0
 119 -36 134 -46 151 -66 c 0
 164 -81 171 -100 171 -116 c 0
 171 -142 144 -160 105 -160 c 0
 78 -160 53 -156 35 -150 c 1
 44 -195 l 1
 65 -202 84 -205 112 -205 c 0
 197 -205 246 -177 246 -130 c 0
 246 -93 225 -59 187 -34 c 0
 168 -22 151 -13 116 0 c 1
EndSplineSet
Colour: ffffff
EndChar
StartChar: exclam
Encoding: 33 33 2
Width: 278
Flags: W
HStem: 0 21G<124 208> 709 20G<279 363>
DStem: 146 103 230 103 124 0 208 0 279 729 363 729 205 379 289 379
Fore
363 729 m 1
 289 379 l 1
 222 168 l 1
 182 168 l 1
 205 379 l 1
 279 729 l 1
 363 729 l 1
230 103 m 1
 208 0 l 1
 124 0 l 1
 146 103 l 1
 230 103 l 1
EndSplineSet
EndChar
StartChar: quotedbl
Encoding: 34 34 3
Width: 355
Flags: W
HStem: 689 20G<202 296 361 455>
DStem: 202 709 296 709 178 598 272 598 361 709 455 709 337 598 431 598
Fore
202 709 m 1
 296 709 l 1
 272 598 l 1
 217 464 l 1
 177 464 l 1
 178 598 l 1
 202 709 l 1
361 709 m 1
 455 709 l 1
 431 598 l 1
 376 464 l 1
 336 464 l 1
 337 598 l 1
 361 709 l 1
EndSplineSet
EndChar
StartChar: numbersign
Encoding: 35 35 4
Width: 556
Flags: W
HStem: -20 21G<72 148 273 349> 191 64<67 155 256 356 457 550> 439 64<156 253 355 454 555 635> 677 20G<355 431 556 632>
DStem: 155 191 231 191 72 -20 148 -20 253 439 330 439 180 255 256 255 355 697 431 697 278 503 355 503 356 191 432 191 273 -20 349 -20 454 439 530 439 381 255 457 255 556 697 632 697 479 503 555 503
Fore
632 697 m 1
 555 503 l 1
 649 503 l 1
 635 439 l 1
 530 439 l 1
 457 255 l 1
 564 255 l 1
 550 191 l 1
 432 191 l 1
 349 -20 l 1
 273 -20 l 1
 356 191 l 1
 231 191 l 1
 148 -20 l 1
 72 -20 l 1
 155 191 l 1
 54 191 l 1
 68 255 l 1
 180 255 l 1
 253 439 l 1
 144 439 l 1
 157 503 l 1
 278 503 l 1
 355 697 l 1
 431 697 l 1
 355 503 l 1
 479 503 l 1
 556 697 l 1
 632 697 l 1
454 439 m 1
 330 439 l 1
 256 255 l 1
 381 255 l 1
 454 439 l 1
EndSplineSet
EndChar
StartChar: dollar
Encoding: 36 36 5
Width: 556
Flags: W
VStem: 69 83<133 152> 152 83<469 501> 477 88<211 243> 530 83<545 567>
DStem: 239 -23 298 -23 217 -126 276 -126 311 318 368 309 253 46 312 46 381 645 440 646 330 405 387 397
Fore
407 770 m 1xe0
 466 770 l 1
 455 716 l 1
 555 711 613 655 613 565 c 0
 613 549 612 539 607 519 c 1
 528 519 l 1
 529 534 l 1
 530 543 530 551 530 555 c 0xd0
 530 607 495 643 440 646 c 1
 387 397 l 1
 469 372 484 365 508 349 c 0
 548 322 565 291 565 243 c 0
 565 168 532 88 481 43 c 0
 437 3 371 -21 298 -23 c 1
 276 -126 l 1
 217 -126 l 1
 239 -23 l 1
 122 -5 69 43 69 134 c 0
 69 157 71 174 77 208 c 1
 156 208 l 1
 155 197 l 1
 153 178 152 159 152 150 c 0
 152 95 180 67 253 46 c 1
 311 318 l 1
 239 343 218 352 197 370 c 0
 167 396 152 429 152 469 c 0
 152 535 182 609 227 650 c 0
 267 687 328 711 396 716 c 1
 407 770 l 1xe0
330 405 m 1
 381 645 l 1
 339 642 305 627 279 602 c 0
 253 577 235 536 235 501 c 0
 235 452 261 426 330 405 c 1
368 309 m 1
 312 46 l 1
 417 54 477 114 477 211 c 0xe0
 477 259 449 285 368 309 c 1
EndSplineSet
EndChar
StartChar: percent
Encoding: 37 37 6
Width: 889
Flags: W
HStem: -16 66<682 700> 254 66<739 757> 346 66<270 288> 616 66<327 345> 689 20G<759 825>
VStem: 134 70<478 496> 413 70<533 552> 546 70<116 134> 825 70<171 190>
DStem: 759 709 825 709 209 -20 275 -20
Fore
759 709 m 1
 825 709 l 1
 275 -20 l 1
 209 -20 l 1
 759 709 l 1
345 682 m 0
 423 682 483 625 483 552 c 0
 483 444 382 346 270 346 c 0
 192 346 134 402 134 478 c 0
 134 583 237 682 345 682 c 0
329 616 m 0
 265 616 204 557 204 494 c 0
 204 447 239 412 286 412 c 0
 351 412 413 472 413 534 c 0
 413 583 379 616 329 616 c 0
757 320 m 0
 835 320 895 263 895 190 c 0
 895 82 794 -16 682 -16 c 0
 604 -16 546 40 546 116 c 0
 546 221 649 320 757 320 c 0
741 254 m 0
 677 254 616 195 616 132 c 0
 616 85 651 50 698 50 c 0
 763 50 825 110 825 172 c 0
 825 221 791 254 741 254 c 0
EndSplineSet
EndChar
StartChar: ampersand
Encoding: 38 38 7
Width: 667
Flags: W
HStem: -23 77<253 280> 639 70<434 455>
VStem: 83 88<128 159> 247 83<520 538> 505 83<568 587>
DStem: 329 336 407 378 448 137 505 215 482 78 544 151 528 0 634 0
Fore
565 334 m 1
 644 334 l 1
 632 273 593 202 544 151 c 1
 634 0 l 1
 528 0 l 1
 482 78 l 1
 391 3 333 -23 253 -23 c 0
 148 -23 83 35 83 128 c 0
 83 209 120 277 195 332 c 0
 221 350 249 368 288 390 c 1
 284 401 281 409 279 413 c 2
 261 455 l 2
 252 477 247 500 247 523 c 0
 247 620 346 709 455 709 c 0
 536 709 588 662 588 587 c 0
 588 500 531 434 407 378 c 1
 505 215 l 1
 537 252 553 285 565 334 c 1
377 434 m 1
 469 480 505 519 505 574 c 0
 505 614 479 639 436 639 c 0
 377 639 330 592 330 533 c 0
 330 505 336 492 377 434 c 1
448 137 m 1
 329 336 l 1
 217 276 171 224 171 159 c 0
 171 94 213 54 280 54 c 0
 329 54 375 76 448 137 c 1
EndSplineSet
EndChar
StartChar: quoteright
Encoding: 39 8217 8
Width: 222
Flags: W
HStem: 688 20G<215 309>
DStem: 215 708 309 708 193 605 288 608
Fore
215 708 m 1
 309 708 l 1
 288 608 l 1
 271 529 227 481 166 477 c 1
 174 515 l 1
 210 520 231 548 241 605 c 1
 193 605 l 1
 215 708 l 1
EndSplineSet
KernsSLIF: 121 -14 1 0 119 -5 1 0 118 -10 1 0 116 -14 1 0 115 -23 1 0 114 -24 1 0 46 -68 1 0 111 -31 1 0 100 -25 1 0 44 -68 1 0 263 -76 1 0 257 -76 1 0 258 -76 1 0 225 -88 1 0 65 -76 1 0
EndChar
StartChar: parenleft
Encoding: 40 40 9
Width: 333
Flags: W
HStem: 709 20G<391 446>
VStem: 113 78<77 118>
Fore
391 729 m 1
 446 729 l 1
 278 523 191 301 191 79 c 0
 191 -23 209 -117 246 -213 c 1
 191 -213 l 1
 142 -127 113 -3 113 116 c 0
 113 319 217 547 391 729 c 1
EndSplineSet
EndChar
StartChar: parenright
Encoding: 41 41 10
Width: 333
Flags: W
HStem: 709 20G<193 248>
VStem: 248 77<394 444>
Fore
48 -213 m 1
 -7 -213 l 1
 159 -10 248 215 248 431 c 0
 248 538 231 632 193 729 c 1
 248 729 l 1
 295 646 325 520 325 407 c 0
 325 275 290 148 216 15 c 0
 170 -68 111 -147 48 -213 c 1
EndSplineSet
EndChar
StartChar: asterisk
Encoding: 42 42 11
Width: 389
Flags: W
HStem: 709 20G<319 381>
DStem: 319 729 381 729 299 617 352 617
Fore
319 729 m 1
 381 729 l 1
 352 617 l 1
 462 655 l 1
 471 593 l 1
 358 566 l 1
 411 475 l 1
 353 438 l 1
 309 534 l 1
 228 439 l 1
 181 479 l 1
 273 567 l 1
 169 598 l 1
 199 657 l 1
 299 617 l 1
 319 729 l 1
EndSplineSet
EndChar
StartChar: plus
Encoding: 43 43 12
Width: 584
Flags: W
HStem: -11 21G<255 325> 197 72<106 299 384 576>
DStem: 299 197 369 197 255 -11 325 -11 358 473 428 473 314 269 384 269
Fore
591 269 m 1
 576 197 l 1
 369 197 l 1
 325 -11 l 1
 255 -11 l 1
 299 197 l 1
 92 197 l 1
 107 269 l 1
 314 269 l 1
 358 473 l 1
 428 473 l 1
 384 269 l 1
 591 269 l 1
EndSplineSet
EndChar
StartChar: comma
Encoding: 44 44 13
Width: 278
Flags: W
HStem: -20 20G<87 146>
DStem: 109 103 214 103 87 0 188 -16
Fore
109 103 m 1
 214 103 l 1
 188 -16 l 1
 171 -101 121 -150 55 -147 c 1
 63 -109 l 1
 111 -109 132 -82 146 0 c 1
 87 0 l 1
 109 103 l 1
EndSplineSet
KernsSLIF: 39 -55 1 0 186 -47 1 0 49 -105 1 0
EndChar
StartChar: hyphen
Encoding: 45 45 14
Width: 333
Flags: W
HStem: 240 72<111 336>
Fore
351 312 m 1
 336 240 l 1
 97 240 l 1
 112 312 l 1
 351 312 l 1
EndSplineSet
KernsSLIF: 89 -97 1 0 87 -24 1 0 86 -51 1 0 84 -86 1 0 263 -12 1 0 257 -12 1 0 258 -12 1 0 225 -17 1 0 65 -12 1 0
EndChar
StartChar: period
Encoding: 46 46 15
Width: 278
Flags: W
HStem: 0 21G<87 191>
DStem: 109 103 213 103 87 0 191 0
Fore
213 103 m 1
 191 0 l 1
 87 0 l 1
 109 103 l 1
 213 103 l 1
EndSplineSet
KernsSLIF: 39 -56 1 0 186 -48 1 0 49 -106 1 0
EndChar
StartChar: slash
Encoding: 47 47 16
Width: 278
Flags: W
HStem: -20 21G<-12 43> 709 20G<379 434>
DStem: 379 729 434 729 -12 -20 43 -20
Fore
379 729 m 1
 434 729 l 1
 43 -20 l 1
 -12 -20 l 1
 379 729 l 1
EndSplineSet
EndChar
StartChar: zero
Encoding: 48 48 17
Width: 556
Flags: W
HStem: -23 77<273 291> 632 77<401 420>
VStem: 98 88<168 202> 510 88<488 522>
Fore
418 709 m 0
 531 709 598 636 598 514 c 0
 598 371 550 191 486 99 c 0
 428 15 362 -23 276 -23 c 0
 228 -23 179 -5 148 25 c 0
 116 56 98 109 98 170 c 0
 98 315 147 495 210 587 c 0
 266 669 335 709 418 709 c 0
406 632 m 0
 343 632 295 592 256 509 c 0
 218 426 186 276 186 181 c 0
 186 102 224 54 287 54 c 0
 352 54 399 92 439 178 c 0
 477 258 510 410 510 504 c 0
 510 585 471 632 406 632 c 0
EndSplineSet
KernsSLIF: 55 -50 1 0 49 -56 1 0 52 -11 1 0
EndChar
StartChar: one
Encoding: 49 49 18
Width: 556
Flags: W
HStem: 0 21G<259 347> 689 20G<440 498>
DStem: 367 505 498 709 259 0 347 0
Fore
367 505 m 1
 208 505 l 1
 221 568 l 1
 365 588 386 601 440 709 c 1
 498 709 l 1
 347 0 l 1
 259 0 l 1
 367 505 l 1
EndSplineSet
KernsSLIF: 48 -71 1 0 50 -78 1 0 51 -75 1 0 54 -71 1 0 55 -98 1 0 46 -82 1 0 49 -125 1 0 57 -71 1 0 52 -88 1 0 53 -72 1 0 56 -73 1 0 44 -82 1 0
EndChar
StartChar: two
Encoding: 50 50 19
Width: 556
Flags: W
HStem: 0 87<147 505> 632 77<399 435>
VStem: 532 88<523 539>
Fore
524 87 m 1
 505 0 l 1
 34 0 l 1
 78 161 124 215 297 307 c 1
 401 359 l 2
 484 401 532 461 532 525 c 0
 532 589 486 632 416 632 c 0
 358 632 308 607 277 563 c 0
 259 538 247 508 235 463 c 1
 147 463 l 1
 186 632 274 709 428 709 c 0
 496 709 544 691 578 653 c 0
 605 623 620 581 620 537 c 0
 620 437 555 354 422 287 c 2
 310 230 l 2
 219 185 164 136 147 87 c 1
 524 87 l 1
EndSplineSet
KernsSLIF: 55 -38 1 0 49 -45 1 0 52 -43 1 0
EndChar
StartChar: three
Encoding: 51 51 20
Width: 556
Flags: W
HStem: -23 77<262 292> 327 73<305 344> 632 77<403 424>
VStem: 71 88<142 170> 467 88<232 249> 511 88<543 563>
Fore
290 325 m 1xf8
 306 400 l 1
 318 400 l 1
 324 400 l 2
 397 400 450 416 477 447 c 0
 498 470 511 507 511 545 c 0
 511 599 470 632 405 632 c 0
 349 632 301 609 271 568 c 0
 256 548 247 524 237 480 c 1
 149 480 l 1
 168 552 186 590 215 624 c 0
 264 679 334 709 417 709 c 0
 527 709 599 651 599 563 c 0xf4
 599 474 562 415 477 367 c 1
 533 339 555 306 555 249 c 0
 555 184 527 112 481 63 c 0
 430 7 354 -23 264 -23 c 0
 139 -23 71 36 71 144 c 0
 71 162 72 176 76 206 c 1
 164 206 l 1
 162 193 l 1
 160 177 159 162 159 154 c 0
 159 93 206 54 277 54 c 0
 389 54 467 128 467 236 c 0
 467 293 418 327 335 327 c 0
 321 327 311 327 290 325 c 1xf8
EndSplineSet
KernsSLIF: 55 -45 1 0 49 -57 1 0 52 -9 1 0
EndChar
StartChar: four
Encoding: 52 52 21
Width: 556
Flags: W
HStem: 0 21G<326 414> 170 78<158 362 467 556> 689 20G<499 565>
DStem: 362 170 450 170 326 0 414 0 444 556 565 709 379 248 467 248 499 709 444 556 83 262 158 248
Fore
362 170 m 1
 63 170 l 1
 83 262 l 1
 499 709 l 1
 565 709 l 1
 467 248 l 1
 573 248 l 1
 556 170 l 1
 450 170 l 1
 414 0 l 1
 326 0 l 1
 362 170 l 1
379 248 m 1
 444 556 l 1
 158 248 l 1
 379 248 l 1
EndSplineSet
KernsSLIF: 55 -65 1 0 49 -88 1 0 52 -3 1 0
EndChar
StartChar: five
Encoding: 53 53 22
Width: 556
Flags: W
HStem: -23 77<269 295> 390 77<353 381> 622 87<259 611>
VStem: 479 88<269 295>
DStem: 259 709 311 622 124 323 241 424
Fore
629 709 m 1
 611 622 l 1
 311 622 l 1
 241 424 l 1
 290 454 333 467 381 467 c 0
 494 467 567 399 567 295 c 0
 567 224 542 149 498 93 c 0
 439 15 364 -23 271 -23 c 0
 209 -23 157 -6 119 26 c 0
 84 55 70 93 70 152 c 2
 70 162 l 1
 70 174 l 1
 158 174 l 1
 161 94 204 54 283 54 c 0
 396 54 479 145 479 269 c 0
 479 346 433 390 353 390 c 0
 295 390 265 377 204 323 c 1
 124 323 l 1
 259 709 l 1
 629 709 l 1
EndSplineSet
KernsSLIF: 55 -32 1 0 49 -83 1 0 52 -7 1 0
EndChar
StartChar: six
Encoding: 54 54 23
Width: 556
Flags: W
HStem: -23 77<284 301> 365 77<364 388> 524 21G<522 610> 632 77<412 437>
VStem: 93 88<165 186> 478 88<254 273> 523 88<524 551>
Fore
610 524 m 1xfa
 522 524 l 1
 523 526 523 528 523 529 c 0xfa
 523 530 523 530 518 559 c 0
 512 589 504 601 481 616 c 0
 464 627 444 632 421 632 c 0
 320 632 238 527 209 358 c 1
 266 415 322 442 388 442 c 0
 495 442 566 374 566 271 c 0xfc
 566 210 540 139 499 86 c 0
 444 14 371 -23 286 -23 c 0
 168 -23 93 51 93 167 c 0
 93 292 140 469 198 560 c 0
 261 659 341 709 435 709 c 0
 542 709 611 647 611 551 c 0
 611 545 611 535 610 524 c 1xfa
364 365 m 0
 262 365 181 280 181 174 c 0
 181 103 230 54 299 54 c 0
 398 54 478 144 478 256 c 0xfc
 478 321 432 365 364 365 c 0
EndSplineSet
KernsSLIF: 55 -40 1 0 49 -52 1 0 52 -7 1 0
EndChar
StartChar: seven
Encoding: 55 55 24
Width: 556
Flags: W
HStem: 0 21G<137 235> 622 87<195 560>
Fore
671 709 m 1
 654 628 l 1
 483 460 302 189 235 0 c 1
 137 0 l 1
 227 211 335 369 560 622 c 1
 177 622 l 1
 196 709 l 1
 671 709 l 1
EndSplineSet
KernsSLIF: 50 -31 1 0 51 -29 1 0 54 -44 1 0 55 -11 1 0 46 -123 1 0 49 -58 1 0 52 -95 1 0 53 -37 1 0 56 -34 1 0 44 -123 1 0 58 -84 1 0
EndChar
StartChar: eight
Encoding: 56 56 25
Width: 556
Flags: W
HStem: -23 77<279 299> 334 74<343 364> 632 77<405 427>
VStem: 74 88<145 162> 169 88<478 493> 472 88<224 241> 516 88<543 561>
Fore
233 373 m 1xfc
 221 383 l 2
 179 417 169 436 169 480 c 0
 169 535 192 590 234 632 c 0
 285 685 344 709 421 709 c 0
 485 709 533 692 566 657 c 0
 590 631 604 596 604 561 c 0xfa
 604 518 587 470 560 436 c 0
 544 416 534 408 493 383 c 0
 490 381 485 378 477 373 c 1
 533 341 560 297 560 239 c 0
 560 182 535 120 492 72 c 0
 436 9 365 -23 281 -23 c 0
 155 -23 74 43 74 145 c 0
 74 247 128 325 233 373 c 1xfc
407 632 m 0
 320 632 257 573 257 491 c 0
 257 439 297 408 364 408 c 0
 416 408 455 424 483 458 c 0
 503 482 516 516 516 545 c 0
 516 599 475 632 407 632 c 0
344 334 m 0
 243 334 162 257 162 160 c 0
 162 97 213 54 287 54 c 0
 392 54 472 129 472 226 c 0xfc
 472 292 422 334 344 334 c 0
EndSplineSet
KernsSLIF: 55 -43 1 0 49 -55 1 0 52 -6 1 0
EndChar
StartChar: nine
Encoding: 57 57 26
Width: 556
Flags: W
HStem: -23 77<256 276> 244 77<303 327> 632 77<386 406>
VStem: 83 88<135 162> 126 88<417 438> 511 88<504 527>
Fore
84 162 m 1xf4
 171 162 l 1xf4
 171 93 206 54 270 54 c 0
 371 54 441 144 481 324 c 1
 451 299 438 288 425 279 c 0
 393 257 346 244 303 244 c 0
 195 244 126 311 126 417 c 0xec
 126 476 148 540 190 600 c 0
 240 671 314 709 404 709 c 0
 466 709 517 690 551 654 c 0
 581 621 599 572 599 525 c 0
 599 464 582 359 557 266 c 0
 529 161 493 97 428 43 c 0
 376 -1 319 -23 258 -23 c 0
 152 -23 83 39 83 135 c 0
 83 141 83 151 84 162 c 1xf4
392 632 m 0
 295 632 214 543 214 436 c 0xec
 214 364 256 321 327 321 c 0
 428 321 511 408 511 514 c 0
 511 581 460 632 392 632 c 0
EndSplineSet
KernsSLIF: 55 -50 1 0 49 -55 1 0 52 -12 1 0
EndChar
StartChar: colon
Encoding: 58 58 27
Width: 278
Flags: W
HStem: 0 21G<110 214> 504 20G<222 326>
DStem: 132 103 236 103 110 0 214 0 222 524 326 524 200 421 304 421
Fore
236 103 m 1
 214 0 l 1
 110 0 l 1
 132 103 l 1
 236 103 l 1
326 524 m 1
 304 421 l 1
 200 421 l 1
 222 524 l 1
 326 524 l 1
EndSplineSet
EndChar
StartChar: semicolon
Encoding: 59 59 28
Width: 278
Flags: W
HStem: -20 20G<110 169> 504 20G<221 325>
DStem: 132 103 237 103 110 0 211 -16 221 524 325 524 199 421 303 421
Fore
325 524 m 1
 303 421 l 1
 199 421 l 1
 221 524 l 1
 325 524 l 1
132 103 m 1
 237 103 l 1
 211 -16 l 1
 194 -101 144 -150 78 -147 c 1
 86 -109 l 1
 134 -109 155 -82 169 0 c 1
 110 0 l 1
 132 103 l 1
EndSplineSet
EndChar
StartChar: less
Encoding: 60 60 29
Width: 584
Flags: W
DStem: 87 198 196 231 532 -9 549 68 635 474 618 395 102 267 196 231
Fore
87 198 m 1
 102 267 l 1
 635 474 l 1
 618 395 l 1
 196 231 l 1
 549 68 l 1
 532 -9 l 1
 87 198 l 1
EndSplineSet
EndChar
StartChar: equal
Encoding: 61 61 30
Width: 584
Flags: W
HStem: 111 72<88 558> 283 72<124 594>
Fore
609 355 m 1
 594 283 l 1
 111 283 l 1
 125 355 l 1
 609 355 l 1
572 183 m 1
 558 111 l 1
 74 111 l 1
 89 183 l 1
 572 183 l 1
EndSplineSet
EndChar
StartChar: greater
Encoding: 62 62 31
Width: 584
Flags: W
DStem: 134 397 151 474 487 234 596 267 487 234 581 198 65 70 48 -9
Fore
596 267 m 1
 581 198 l 1
 48 -9 l 1
 65 70 l 1
 487 234 l 1
 134 397 l 1
 151 474 l 1
 596 267 l 1
EndSplineSet
EndChar
StartChar: question
Encoding: 63 63 32
Width: 556
Flags: W
HStem: 0 21G<239 329> 664 77<423 449>
VStem: 534 96<575 592>
DStem: 261 103 351 103 239 0 329 0
Fore
371 199 m 1
 281 199 l 1
 293 254 l 1
 307 315 322 333 429 417 c 0
 506 479 534 521 534 578 c 0
 534 629 490 664 427 664 c 0
 339 664 291 616 269 507 c 1
 184 507 l 1
 215 661 305 741 449 741 c 0
 501 741 543 730 572 707 c 0
 608 679 630 635 630 590 c 0
 630 513 588 448 485 370 c 0
 411 315 395 296 381 246 c 1
 371 199 l 1
351 103 m 1
 329 0 l 1
 239 0 l 1
 261 103 l 1
 351 103 l 1
EndSplineSet
EndChar
StartChar: at
Encoding: 64 64 33
Width: 1015
Flags: W
HStem: -142 77<444 481> 57 70<696 721> 455 69<606 628> 664 77<655 689>
VStem: 80 88<177 210> 310 92<194 221> 953 83<412 436>
DStem: 771 501 853 501 735 435 704 221
Fore
771 501 m 1
 853 501 l 1
 704 221 l 2
 687 189 680 172 680 163 c 0
 680 144 699 127 721 127 c 0
 830 127 953 280 953 414 c 0
 953 558 829 664 660 664 c 0
 413 664 168 431 168 196 c 0
 168 40 292 -65 475 -65 c 0
 536 -65 591 -56 679 -33 c 1
 692 -100 l 1
 618 -127 528 -142 447 -142 c 0
 332 -142 224 -96 153 -17 c 0
 104 38 80 104 80 182 c 0
 80 313 144 454 252 563 c 0
 363 674 523 741 681 741 c 0
 886 741 1036 611 1036 434 c 0
 1036 348 1006 253 959 193 c 0
 898 114 788 57 696 57 c 0
 665 57 638 63 623 73 c 0
 609 82 597 104 597 120 c 2
 597 125 l 1
 597 134 l 1
 590 129 584 124 582 122 c 0
 529 78 492 62 445 62 c 0
 364 62 310 117 310 201 c 0
 310 353 477 524 626 524 c 0
 685 524 723 494 735 435 c 1
 771 501 l 1
614 455 m 0
 566 455 516 427 473 376 c 0
 430 326 402 260 402 210 c 0
 402 160 434 124 478 124 c 0
 522 124 569 155 608 211 c 0
 651 271 682 346 682 390 c 0
 682 432 658 455 614 455 c 0
EndSplineSet
EndChar
StartChar: A
Encoding: 65 65 34
Width: 667
Flags: W
HStem: 0 21G<17 116 551 653> 219 78<283 524> 709 20G<432 552>
DStem: 432 729 474 630 17 0 283 297 432 729 239 219 17 0 116 0
Fore
524 219 m 1
 239 219 l 1
 116 0 l 1
 17 0 l 1
 432 729 l 1
 552 729 l 1
 653 0 l 1
 551 0 l 1
 524 219 l 1
514 297 m 1
 474 630 l 1
 283 297 l 1
 514 297 l 1
EndSplineSet
KernsSLIF: 121 -44 0 0 119 -29 0 0 118 -40 0 0 117 -18 0 0 116 -22 0 0 39 -68 0 0 186 -60 0 0 113 -15 0 0 46 -2 0 0 111 -19 0 0 45 -8 0 0 172 -47 0 0 171 -51 0 0 103 -17 0 0 101 -22 0 0 100 -14 0 0 44 -4 0 0 333 -16 0 0 99 -16 0 0 98 -5 0 0 97 -16 0 0 89 -104 0 0 87 -57 0 0 86 -81 0 0 301 -42 0 0 299 -42 0 0 302 -42 0 0 300 -42 0 0 85 -42 0 0 84 -103 0 0 81 -38 0 0 287 -37 0 0 79 -37 0 0 71 -41 0 0 265 -41 0 0 67 -41 0 0
EndChar
StartChar: B
Encoding: 66 66 35
Width: 667
Flags: W
HStem: 0 82<190 432> 333 82<261 470> 647 82<234 512>
VStem: 576 96<239 258> 615 96<561 584>
DStem: 234 729 311 647 79 0 261 415 234 729 244 333 79 0 190 82
Fore
79 0 m 1xf0
 234 729 l 1
 530 729 l 2
 599 729 641 714 675 678 c 0
 700 651 711 622 711 584 c 0xe8
 711 495 662 423 575 384 c 1
 645 354 672 319 672 258 c 0
 672 193 650 134 607 87 c 0
 554 28 491 0 409 0 c 2
 79 0 l 1xf0
261 415 m 1
 441 415 l 2
 507 415 547 429 577 461 c 0
 601 487 615 524 615 561 c 0
 615 620 576 647 491 647 c 2
 311 647 l 1
 261 415 l 1
190 82 m 1
 417 82 l 2
 473 82 511 99 542 139 c 0
 564 169 576 204 576 242 c 0xf0
 576 301 539 333 470 333 c 2
 244 333 l 1
 190 82 l 1
EndSplineSet
KernsSLIF: 89 -56 0 0 87 -27 0 0 86 -49 0 0 233 -2 0 0 289 -14 0 0 287 -14 0 0 290 -14 0 0 288 -14 0 0 234 -11 0 0 79 -14 0 0 262 -28 0 0 263 -28 0 0 257 -28 0 0 260 -28 0 0 258 -28 0 0 225 -29 0 0 65 -28 0 0
EndChar
StartChar: C
Encoding: 67 67 36
Width: 722
Flags: W
HStem: -23 81<365 385> 660 81<511 534>
VStem: 112 96<240 268>
Fore
770 503 m 1
 674 503 l 1
 666 611 616 660 515 660 c 0
 423 660 350 617 289 527 c 0
 238 451 208 351 208 260 c 0
 208 139 277 58 381 58 c 0
 460 58 536 95 578 155 c 0
 596 179 612 209 637 266 c 1
 735 266 l 1
 701 185 669 130 630 87 c 0
 565 16 473 -23 367 -23 c 0
 278 -23 215 4 169 62 c 0
 132 109 112 172 112 242 c 0
 112 367 161 505 240 600 c 0
 318 694 415 741 532 741 c 0
 626 741 697 704 738 634 c 0
 757 600 767 562 770 503 c 1
EndSplineSet
KernsSLIF: 287 -18 0 0 288 -18 0 0 79 -18 0 0 75 -20 0 0 72 -22 0 0 263 -43 0 0 257 -43 0 0 258 -43 0 0 225 -44 0 0 65 -43 0 0
EndChar
StartChar: D
Encoding: 68 68 37
Width: 722
Flags: W
HStem: 0 82<200 394> 647 82<244 506>
VStem: 663 96<463 497>
DStem: 244 729 321 647 89 0 200 82
Fore
89 0 m 1
 244 729 l 1
 526 729 l 2
 591 729 644 711 682 677 c 0
 729 635 759 561 759 488 c 0
 759 363 711 217 643 134 c 0
 570 45 479 0 371 0 c 2
 89 0 l 1
200 82 m 1
 372 82 l 2
 463 82 539 125 591 205 c 0
 631 268 663 388 663 480 c 0
 663 584 599 647 492 647 c 2
 321 647 l 1
 200 82 l 1
EndSplineSet
KernsSLIF: 89 -74 0 0 88 -58 0 0 87 -31 0 0 86 -54 0 0 84 -56 0 0 74 -13 0 0 262 -50 0 0 263 -50 0 0 259 -50 0 0 257 -50 0 0 260 -50 0 0 258 -50 0 0 65 -50 0 0
EndChar
StartChar: E
Encoding: 69 69 38
Width: 667
Flags: W
HStem: 0 82<201 613> 332 82<272 650> 647 82<245 734>
DStem: 245 729 322 647 90 0 272 414 245 729 255 332 90 0 201 82
Fore
255 332 m 1
 201 82 l 1
 630 82 l 1
 613 0 l 1
 90 0 l 1
 245 729 l 1
 751 729 l 1
 734 647 l 1
 322 647 l 1
 272 414 l 1
 668 414 l 1
 650 332 l 1
 255 332 l 1
EndSplineSet
EndChar
StartChar: F
Encoding: 70 70 39
Width: 611
Flags: W
HStem: 0 21G<90 184> 332 82<272 602> 647 82<245 717>
DStem: 245 729 322 647 90 0 272 414 245 729 255 332 90 0 184 0
Fore
255 332 m 1
 184 0 l 1
 90 0 l 1
 245 729 l 1
 734 729 l 1
 717 647 l 1
 322 647 l 1
 272 414 l 1
 619 414 l 1
 602 332 l 1
 255 332 l 1
EndSplineSet
KernsSLIF: 117 -42 0 0 114 -44 0 0 46 -113 0 0 249 -30 0 0 250 -33 0 0 352 -30 0 0 353 -30 0 0 111 -30 0 0 106 -19 0 0 105 -19 0 0 45 -20 0 0 336 -33 0 0 101 -33 0 0 44 -113 0 0 329 -45 0 0 241 -41 0 0 323 -45 0 0 324 -45 0 0 97 -45 0 0 287 -30 0 0 79 -30 0 0 74 -59 0 0 262 -78 0 0 263 -78 0 0 259 -78 0 0 257 -78 0 0 260 -78 0 0 258 -78 0 0 65 -78 0 0
EndChar
StartChar: G
Encoding: 71 71 40
Width: 778
Flags: W
HStem: -23 81<378 411> 303 82<488 693> 660 81<524 557>
VStem: 109 96<259 282> 718 91<508 527>
Fore
793 385 m 1
 710 -4 l 1
 651 -4 l 1
 647 86 l 1
 609 54 590 40 566 26 c 0
 512 -5 443 -23 378 -23 c 0
 310 -23 245 -2 199 36 c 0
 143 81 109 167 109 261 c 0
 109 391 167 527 263 623 c 0
 341 701 439 741 555 741 c 0
 712 741 809 658 809 525 c 2
 809 519 l 1
 809 515 l 1
 809 508 l 1
 718 508 l 1
 717 554 707 581 681 607 c 0
 648 642 598 660 537 660 c 0
 440 660 354 617 293 538 c 0
 240 468 205 365 205 277 c 0
 205 220 219 167 242 132 c 0
 273 86 337 58 411 58 c 0
 480 58 538 79 592 123 c 0
 643 165 672 211 687 277 c 2
 693 303 l 1
 471 303 l 1
 489 385 l 1
 793 385 l 1
EndSplineSet
KernsSLIF: 89 -72 0 0 87 -31 0 0 86 -53 0 0 84 -53 0 0 262 -14 0 0 263 -14 0 0 259 -14 0 0 257 -14 0 0 260 -14 0 0 258 -14 0 0 225 -11 0 0 65 -14 0 0
EndChar
StartChar: H
Encoding: 72 72 41
Width: 722
Flags: W
HStem: 0 21G<83 177 550 644> 332 82<265 621> 709 20G<238 332 705 799>
DStem: 238 729 332 729 83 0 265 414 238 729 248 332 83 0 177 0 621 332 799 729 550 0 644 0 705 729 799 729 638 414 644 0
Fore
621 332 m 1
 248 332 l 1
 177 0 l 1
 83 0 l 1
 238 729 l 1
 332 729 l 1
 265 414 l 1
 638 414 l 1
 705 729 l 1
 799 729 l 1
 644 0 l 1
 550 0 l 1
 621 332 l 1
EndSplineSet
EndChar
StartChar: I
Encoding: 73 73 42
Width: 278
Flags: W
HStem: 0 21G<100 194> 709 20G<255 349>
DStem: 255 729 349 729 100 0 194 0
Fore
349 729 m 1
 194 0 l 1
 100 0 l 1
 255 729 l 1
 349 729 l 1
EndSplineSet
EndChar
StartChar: J
Encoding: 74 74 43
Width: 500
Flags: W
HStem: -23 81<213 240> 709 20G<487 581>
VStem: 47 96<121 138>
DStem: 487 729 581 729 378 216 465 182
Fore
487 729 m 1
 581 729 l 1
 465 182 l 2
 437 51 345 -23 213 -23 c 0
 164 -23 130 -13 102 9 c 0
 68 37 47 79 47 122 c 0
 47 136 49 153 53 170 c 1
 67 234 l 1
 161 234 l 1
 147 168 l 1
 144 156 143 145 143 134 c 0
 143 89 179 58 233 58 c 0
 270 58 307 75 331 102 c 0
 353 127 366 160 378 216 c 2
 487 729 l 1
EndSplineSet
KernsSLIF: 263 -39 0 0 257 -39 0 0 225 -39 0 0 65 -39 0 0
EndChar
StartChar: K
Encoding: 75 75 44
Width: 667
Flags: W
HStem: 0 21G<79 173 548 658> 709 20G<234 328 693 813>
DStem: 234 729 328 729 79 0 249 356 234 729 226 249 79 0 173 0 693 729 813 729 249 356 452 431 693 729 380 376 249 356 226 249
Fore
226 249 m 1
 173 0 l 1
 79 0 l 1
 234 729 l 1
 328 729 l 1
 249 356 l 1
 693 729 l 1
 813 729 l 1
 452 431 l 1
 658 0 l 1
 548 0 l 1
 380 376 l 1
 226 249 l 1
EndSplineSet
KernsSLIF: 121 -76 0 0 363 -32 0 0 117 -32 0 0 352 -42 0 0 353 -42 0 0 111 -42 0 0 45 -53 0 0 101 -46 0 0 329 -23 0 0 241 -20 0 0 323 -23 0 0 97 -23 0 0 84 14 0 0 83 -48 0 0 287 -53 0 0 288 -53 0 0 234 -49 0 0 79 -53 0 0 71 -57 0 0 67 -56 0 0
EndChar
StartChar: L
Encoding: 76 76 45
Width: 556
Flags: W
HStem: 0 82<191 534> 709 20G<235 329>
DStem: 235 729 329 729 80 0 191 82
Fore
329 729 m 1
 191 82 l 1
 551 82 l 1
 534 0 l 1
 80 0 l 1
 235 729 l 1
 329 729 l 1
EndSplineSet
KernsSLIF: 121 -68 0 0 363 -17 0 0 117 -17 0 0 39 -153 0 0 186 -145 0 0 45 -140 0 0 89 -128 0 0 87 -77 0 0 86 -115 0 0 299 -46 0 0 85 -46 0 0 84 -112 0 0 83 -28 0 0 291 -51 0 0 289 -51 0 0 287 -51 0 0 290 -51 0 0 288 -51 0 0 79 -51 0 0 71 -53 0 0 265 -51 0 0 67 -52 0 0 263 8 0 0 257 8 0 0 258 8 0 0 225 11 0 0 65 8 0 0
EndChar
StartChar: M
Encoding: 77 77 46
Width: 833
Flags: W
HStem: 0 21G<75 164 370 467 672 761> 709 20G<230 359 785 916>
DStem: 230 729 293 605 75 0 164 0 293 605 359 729 370 0 439 102 785 729 801 605 439 102 467 0 801 605 916 729 672 0 761 0
Fore
467 0 m 1
 370 0 l 1
 293 605 l 1
 164 0 l 1
 75 0 l 1
 230 729 l 1
 359 729 l 1
 439 102 l 1
 785 729 l 1
 916 729 l 1
 761 0 l 1
 672 0 l 1
 801 605 l 1
 467 0 l 1
EndSplineSet
EndChar
StartChar: N
Encoding: 78 78 47
Width: 722
Flags: W
HStem: 0 21G<76 165 540 646> 709 20G<231 335 712 801>
DStem: 231 729 291 591 76 0 165 0 291 591 335 729 540 0 585 131 712 729 801 729 585 131 646 0
Fore
801 729 m 1
 646 0 l 1
 540 0 l 1
 291 591 l 1
 165 0 l 1
 76 0 l 1
 231 729 l 1
 335 729 l 1
 585 131 l 1
 712 729 l 1
 801 729 l 1
EndSplineSet
KernsSLIF: 363 -9 0 0 117 -8 0 0 46 -15 0 0 249 -4 0 0 352 -8 0 0 353 -8 0 0 111 -8 0 0 336 -11 0 0 101 -11 0 0 44 -15 0 0 329 -17 0 0 241 -13 0 0 323 -17 0 0 324 -17 0 0 97 -17 0 0 287 -11 0 0 288 -11 0 0 79 -11 0 0 71 -14 0 0 265 -14 0 0 67 -15 0 0 263 -19 0 0 257 -19 0 0 258 -19 0 0 225 -16 0 0 65 -19 0 0
EndChar
StartChar: O
Encoding: 79 79 48
Width: 778
Flags: W
HStem: -23 81<389 409> 660 81<519 539>
VStem: 104 96<248 282> 732 96<440 466>
Fore
537 741 m 0
 628 741 707 713 756 664 c 0
 800 619 828 543 828 464 c 0
 828 306 752 144 635 54 c 0
 570 4 485 -23 391 -23 c 0
 306 -23 225 6 177 54 c 0
 131 100 104 177 104 263 c 0
 104 390 157 522 246 614 c 0
 327 699 424 741 537 741 c 0
525 660 m 0
 431 660 342 613 284 533 c 0
 231 460 200 363 200 271 c 0
 200 213 214 164 241 130 c 0
 276 86 339 58 404 58 c 0
 501 58 589 104 647 185 c 0
 700 257 732 355 732 446 c 0
 732 505 718 553 691 588 c 0
 657 632 593 660 525 660 c 0
EndSplineSet
KernsSLIF: 89 -71 0 0 88 -52 0 0 87 -25 0 0 86 -48 0 0 84 -54 0 0 263 -43 0 0 257 -43 0 0 258 -43 0 0 225 -47 0 0 65 -43 0 0
EndChar
StartChar: P
Encoding: 80 80 49
Width: 667
Flags: W
HStem: 0 21G<91 185> 309 82<268 481> 647 82<246 540>
VStem: 637 96<548 568>
DStem: 246 729 323 647 91 0 268 391 246 729 251 309 91 0 185 0
Fore
251 309 m 1
 185 0 l 1
 91 0 l 1
 246 729 l 1
 548 729 l 2
 670 729 733 674 733 568 c 0
 733 487 697 411 634 361 c 0
 589 325 542 309 479 309 c 2
 251 309 l 1
268 391 m 1
 462 391 l 2
 526 391 569 410 602 452 c 0
 625 482 637 515 637 550 c 0
 637 613 595 647 517 647 c 2
 323 647 l 1
 268 391 l 1
EndSplineSet
KernsSLIF: 46 -138 0 0 249 -35 0 0 250 -38 0 0 352 -34 0 0 353 -34 0 0 111 -34 0 0 45 -45 0 0 336 -38 0 0 101 -38 0 0 44 -138 0 0 329 -39 0 0 241 -35 0 0 323 -39 0 0 324 -39 0 0 97 -39 0 0 74 -85 0 0 263 -86 0 0 257 -86 0 0 258 -86 0 0 225 -93 0 0 65 -86 0 0
EndChar
StartChar: Q
Encoding: 81 81 50
Width: 778
Flags: W
HStem: -23 81<388 425> 660 81<519 539>
VStem: 104 96<260 294> 732 96<436 470>
DStem: 466 149 524 205 528 87 598 132 586 28 655 76 673 -59 733 -1
Fore
733 -1 m 1
 673 -59 l 1
 586 28 l 1
 513 -11 467 -23 390 -23 c 0
 210 -23 104 84 104 264 c 0
 104 417 182 575 301 664 c 0
 370 715 448 741 537 741 c 0
 626 741 707 712 755 664 c 0
 801 617 828 539 828 456 c 0
 828 312 765 175 655 76 c 1
 733 -1 l 1
524 205 m 1
 598 132 l 1
 685 216 732 327 732 446 c 0
 732 505 718 553 691 588 c 0
 656 633 593 660 525 660 c 0
 431 660 342 613 285 533 c 0
 232 461 200 363 200 272 c 0
 200 138 278 58 409 58 c 0
 450 58 479 65 528 87 c 1
 466 149 l 1
 524 205 l 1
EndSplineSet
EndChar
StartChar: R
Encoding: 82 82 51
Width: 722
Flags: W
HStem: 0 21G<93 187 566 679> 314 82<271 510> 647 82<248 586>
VStem: 562 101<47 76> 594 96<239 264> 674 96<556 575>
DStem: 248 729 325 647 93 0 271 396 248 729 254 314 93 0 187 0
Fore
254 314 m 1xe8
 187 0 l 1
 93 0 l 1
 248 729 l 1
 584 729 l 2
 712 729 770 681 770 575 c 0xe4
 770 513 743 446 703 409 c 0
 685 393 669 382 630 360 c 1
 677 329 690 308 690 264 c 0xe8
 690 246 682 194 669 126 c 0
 665 105 663 88 663 76 c 0
 663 54 671 35 684 23 c 1
 679 0 l 1
 566 0 l 1
 563 21 562 32 562 47 c 0xf0
 562 79 562 79 586 179 c 0
 591 201 594 222 594 239 c 0
 594 288 558 314 493 314 c 2
 254 314 l 1xe8
271 396 m 1
 502 396 l 2
 566 396 608 413 637 449 c 0
 659 477 674 521 674 558 c 0
 674 582 666 605 653 619 c 0
 634 640 608 647 555 647 c 2
 325 647 l 1
 271 396 l 1
EndSplineSet
KernsSLIF: 121 -16 0 0 363 -14 0 0 364 -14 0 0 117 -13 0 0 250 -16 0 0 352 -13 0 0 353 -13 0 0 111 -13 0 0 45 -4 0 0 336 -16 0 0 101 -16 0 0 329 -21 0 0 241 -17 0 0 323 -21 0 0 324 -21 0 0 97 -21 0 0 89 -54 0 0 87 -27 0 0 86 -49 0 0 299 -21 0 0 85 -21 0 0 84 -33 0 0 287 -17 0 0 288 -17 0 0 234 -14 0 0 79 -17 0 0 71 -21 0 0 265 -21 0 0 67 -21 0 0
EndChar
StartChar: S
Encoding: 83 83 52
Width: 667
Flags: W
HStem: -23 81<317 362> 660 81<456 490>
VStem: 89 92<169 191> 178 96<492 518> 573 96<209 237> 622 92<551 571>
Fore
706 515 m 1xd4
 618 515 l 1
 621 535 622 542 622 551 c 0
 622 580 609 612 590 629 c 0
 568 649 526 660 470 660 c 0
 404 660 355 644 318 611 c 0
 289 584 274 553 274 518 c 0xd4
 274 474 298 454 375 432 c 2
 547 383 l 2
 594 370 623 350 645 315 c 0
 660 291 669 263 669 237 c 0
 669 181 633 108 582 61 c 0
 523 6 435 -23 330 -23 c 0
 179 -23 89 49 89 169 c 0
 89 190 91 206 98 232 c 1
 185 232 l 1
 182 213 181 204 181 191 c 0
 181 100 233 58 346 58 c 0
 426 58 485 77 526 114 c 0
 554 140 573 178 573 209 c 0xe8
 573 257 540 286 460 309 c 2
 289 357 l 2
 222 376 178 429 178 492 c 0
 178 543 209 614 250 656 c 0
 304 712 385 741 488 741 c 0
 566 741 619 725 660 689 c 0
 693 660 714 614 714 571 c 0
 714 556 712 543 706 515 c 1xd4
EndSplineSet
KernsSLIF: 116 -11 0 0 89 -58 0 0 87 -31 0 0 86 -52 0 0 84 -38 0 0 263 -31 0 0 257 -31 0 0 258 -31 0 0 225 -31 0 0 65 -31 0 0
EndChar
StartChar: T
Encoding: 84 84 53
Width: 611
Flags: W
HStem: 0 21G<261 355> 647 82<174 399 175 731>
DStem: 399 647 493 647 261 0 355 0
Fore
493 647 m 1
 355 0 l 1
 261 0 l 1
 399 647 l 1
 158 647 l 1
 175 729 l 1
 748 729 l 1
 731 647 l 1
 493 647 l 1
EndSplineSet
KernsSLIF: 121 -110 0 0 119 -103 0 0 118 -106 0 0 117 -98 0 0 59 -140 0 0 115 -98 0 0 114 -98 0 0 46 -105 0 0 249 -94 0 0 111 -99 0 0 106 -12 0 0 105 -12 0 0 45 -82 0 0 172 -123 0 0 171 -126 0 0 103 -94 0 0 101 -102 0 0 44 -105 0 0 58 -152 0 0 99 -96 0 0 241 -104 0 0 97 -107 0 0 89 10 0 0 87 7 0 0 86 2 0 0 83 -32 0 0 291 -50 0 0 233 -42 0 0 289 -50 0 0 287 -50 0 0 290 -50 0 0 288 -50 0 0 234 -44 0 0 79 -50 0 0 74 -108 0 0 71 -55 0 0 67 -53 0 0 262 -104 0 0 263 -104 0 0 259 -104 0 0 257 -104 0 0 260 -104 0 0 258 -104 0 0 225 -106 0 0 65 -104 0 0
EndChar
StartChar: U
Encoding: 85 85 54
Width: 722
Flags: W
HStem: -23 81<361 383> 709 20G<240 334 706 800>
VStem: 124 96<155 173>
DStem: 240 729 334 729 138 251 225 217 706 729 800 729 597 217 691 217
Fore
706 729 m 1
 800 729 l 1
 691 217 l 2
 660 71 531 -23 363 -23 c 0
 286 -23 220 -2 179 35 c 0
 147 64 124 114 124 155 c 0
 124 170 131 218 138 251 c 2
 240 729 l 1
 334 729 l 1
 225 217 l 1
 222 201 220 187 220 173 c 0
 220 104 285 58 381 58 c 0
 494 58 576 118 597 217 c 2
 706 729 l 1
EndSplineSet
KernsSLIF: 114 -16 0 0 46 -32 0 0 112 -8 0 0 110 -16 0 0 109 -17 0 0 44 -35 0 0 262 -45 0 0 263 -45 0 0 257 -45 0 0 260 -45 0 0 258 -45 0 0 225 -48 0 0 65 -45 0 0
EndChar
StartChar: V
Encoding: 86 86 55
Width: 667
Flags: W
HStem: 0 21G<292 392> 709 20G<185 282 701 800>
DStem: 185 729 282 729 292 0 365 112
Fore
392 0 m 1
 292 0 l 1
 185 729 l 1
 282 729 l 1
 365 112 l 1
 701 729 l 1
 800 729 l 1
 392 0 l 1
EndSplineSet
KernsSLIF: 121 -28 0 0 117 -52 0 0 59 -75 0 0 114 -51 0 0 46 -94 0 0 249 -57 0 0 111 -61 0 0 105 -14 0 0 45 -44 0 0 172 -84 0 0 171 -88 0 0 103 -57 0 0 101 -64 0 0 44 -94 0 0 58 -76 0 0 241 -66 0 0 97 -71 0 0 84 7 0 0 83 -44 0 0 291 -46 0 0 233 -34 0 0 289 -46 0 0 287 -46 0 0 290 -46 0 0 288 -46 0 0 79 -46 0 0 71 -50 0 0 67 -50 0 0 262 -77 0 0 263 -77 0 0 259 -77 0 0 257 -77 0 0 260 -77 0 0 258 -77 0 0 225 -84 0 0 65 -77 0 0
EndChar
StartChar: W
Encoding: 87 87 56
Width: 944
Flags: W
HStem: 0 21G<209 311 642 744> 709 20G<177 277 580 676 980 1084>
DStem: 580 729 601 592 292 137 311 0 601 592 676 729 642 0 717 137
Fore
744 0 m 1
 642 0 l 1
 601 592 l 1
 311 0 l 1
 209 0 l 1
 177 729 l 1
 277 729 l 1
 292 137 l 1
 580 729 l 1
 676 729 l 1
 717 137 l 1
 980 729 l 1
 1084 729 l 1
 744 0 l 1
EndSplineSet
KernsSLIF: 121 -15 0 0 117 -36 0 0 59 -62 0 0 114 -36 0 0 46 -62 0 0 249 -32 0 0 111 -36 0 0 105 -10 0 0 45 -19 0 0 172 -60 0 0 171 -63 0 0 103 -32 0 0 101 -39 0 0 44 -62 0 0 58 -62 0 0 241 -42 0 0 97 -46 0 0 84 11 0 0 83 -31 0 0 291 -26 0 0 233 -14 0 0 289 -26 0 0 287 -26 0 0 290 -26 0 0 288 -26 0 0 79 -26 0 0 71 -30 0 0 67 -30 0 0 262 -56 0 0 263 -56 0 0 259 -56 0 0 257 -56 0 0 260 -56 0 0 258 -56 0 0 225 -62 0 0 65 -56 0 0
EndChar
StartChar: X
Encoding: 88 88 57
Width: 667
Flags: W
HStem: 0 21G<22 137 535 650> 709 20G<194 307 680 794>
DStem: 194 729 307 729 361 374 432 444
Fore
471 374 m 1
 650 0 l 1
 535 0 l 1
 401 304 l 1
 137 0 l 1
 22 0 l 1
 361 374 l 1
 194 729 l 1
 307 729 l 1
 432 444 l 1
 680 729 l 1
 794 729 l 1
 471 374 l 1
EndSplineSet
KernsSLIF: 121 -67 0 0 117 -36 0 0 111 -46 0 0 45 -57 0 0 101 -51 0 0 97 -27 0 0 81 -51 0 0 287 -50 0 0 79 -50 0 0 67 -53 0 0
EndChar
StartChar: Y
Encoding: 89 89 58
Width: 667
Flags: W
HStem: 0 21G<293 387> 709 20G<168 280 705 816>
DStem: 354 286 448 286 293 0 387 0 705 729 816 729 416 372 448 286
Fore
448 286 m 1
 387 0 l 1
 293 0 l 1
 354 286 l 1
 168 729 l 1
 280 729 l 1
 416 372 l 1
 705 729 l 1
 816 729 l 1
 448 286 l 1
EndSplineSet
MinimumDistance: x4,8 
KernsSLIF: 118 -48 0 0 117 -73 0 0 59 -97 0 0 46 -117 0 0 112 -63 0 0 249 -89 0 0 111 -93 0 0 105 -6 0 0 45 -89 0 0 172 -124 0 0 171 -128 0 0 103 -89 0 0 101 -97 0 0 44 -117 0 0 58 -97 0 0 241 -95 0 0 97 -100 0 0 84 15 0 0 83 -49 0 0 291 -64 0 0 233 -55 0 0 289 -64 0 0 287 -64 0 0 290 -64 0 0 288 -64 0 0 79 -64 0 0 71 -69 0 0 67 -68 0 0 262 -102 0 0 263 -102 0 0 259 -102 0 0 257 -102 0 0 260 -102 0 0 258 -102 0 0 225 -108 0 0 65 -102 0 0
EndChar
StartChar: Z
Encoding: 90 90 59
Width: 611
Flags: W
HStem: 0 82<163 584> 647 82<211 601>
DStem: 601 647 719 645 46 84 163 82
Fore
737 729 m 1
 719 645 l 1
 163 82 l 1
 601 82 l 1
 584 0 l 1
 28 0 l 1
 46 84 l 1
 601 647 l 1
 195 647 l 1
 212 729 l 1
 737 729 l 1
EndSplineSet
KernsSLIF: 121 -44 0 0 118 -44 0 0
EndChar
StartChar: bracketleft
Encoding: 91 91 60
Width: 278
Flags: W
HStem: -213 72<118 205> 657 72<219 390>
DStem: 219 729 288 657 19 -213 118 -141
Fore
405 729 m 1
 390 657 l 1
 288 657 l 1
 118 -141 l 1
 220 -141 l 1
 205 -213 l 1
 19 -213 l 1
 219 729 l 1
 405 729 l 1
EndSplineSet
EndChar
StartChar: backslash
Encoding: 92 92 61
Width: 278
Flags: W
HStem: -20 21G<225 280> 709 20G<147 202>
DStem: 147 729 202 729 225 -20 280 -20
Fore
147 729 m 1
 202 729 l 1
 280 -20 l 1
 225 -20 l 1
 147 729 l 1
EndSplineSet
EndChar
StartChar: bracketright
Encoding: 93 93 62
Width: 278
Flags: W
HStem: -213 72<-9 164> 657 72<176 265>
DStem: 265 657 364 729 95 -141 164 -213
Fore
-23 -213 m 1
 -8 -141 l 1
 95 -141 l 1
 265 657 l 1
 162 657 l 1
 177 729 l 1
 364 729 l 1
 164 -213 l 1
 -23 -213 l 1
EndSplineSet
EndChar
StartChar: asciicircum
Encoding: 94 94 63
Width: 469
Flags: W
HStem: 689 20G<349 422>
DStem: 349 709 369 628 115 329 187 329 369 628 422 709 427 329 496 329
Fore
349 709 m 1
 422 709 l 1
 496 329 l 1
 427 329 l 1
 369 628 l 1
 187 329 l 1
 115 329 l 1
 349 709 l 1
EndSplineSet
EndChar
StartChar: underscore
Encoding: 95 95 64
Width: 556
Flags: W
HStem: -176 50<-49 540>
Fore
551 -126 m 1
 540 -176 l 1
 -59 -176 l 1
 -48 -126 l 1
 551 -126 l 1
EndSplineSet
EndChar
StartChar: quoteleft
Encoding: 96 8216 65
Width: 222
Flags: W
DStem: 184 577 278 580 163 477 256 477
Fore
256 477 m 1
 163 477 l 1
 184 577 l 1
 202 658 246 705 308 709 c 1
 300 670 l 1
 262 666 242 640 231 580 c 1
 278 580 l 1
 256 477 l 1
EndSplineSet
KernsSLIF: 89 -17 1 0 87 6 1 0 86 -5 1 0 84 -14 1 0 263 -74 1 0 257 -74 1 0 258 -74 1 0 225 -86 1 0 65 -74 1 0
EndChar
StartChar: a
Encoding: 97 97 66
Width: 556
Flags: W
HStem: -23 72<209 242> 462 77<368 394>
VStem: 65 88<103 122> 478 90<398 426>
DStem: 451 258 562 389 431 164 498 88
Fore
552 51 m 1
 539 -14 l 1
 533 -15 527 -16 525 -17 c 0
 500 -23 497 -23 486 -23 c 0
 438 -23 410 2 410 43 c 2
 410 47 l 1
 410 54 l 1
 369 18 354 8 322 -3 c 0
 286 -16 244 -23 209 -23 c 0
 119 -23 65 25 65 105 c 0
 65 163 95 216 147 249 c 0
 196 280 238 290 372 302 c 0
 445 309 464 320 473 361 c 1
 476 379 l 1
 477 387 478 394 478 398 c 0
 478 435 432 462 372 462 c 0
 329 462 287 447 265 425 c 0
 251 411 244 397 235 369 c 1
 151 369 l 1
 170 480 255 539 394 539 c 0
 499 539 568 494 568 426 c 0
 568 416 568 416 562 389 c 1
 498 88 l 1
 497 85 497 82 497 78 c 0
 497 58 509 49 535 49 c 0
 539 49 543 49 552 51 c 1
431 164 m 2
 451 258 l 1
 407 243 399 242 305 229 c 0
 256 222 226 214 202 199 c 0
 172 181 153 148 153 115 c 0
 153 73 185 49 242 49 c 0
 330 49 418 102 431 164 c 2
EndSplineSet
KernsSLIF: 121 -33 0 0 119 -16 0 0 118 -26 0 0 39 -23 0 0 106 -10 0 0
EndChar
StartChar: b
Encoding: 98 98 67
Width: 556
Flags: W
HStem: -23 77<291 311> 462 77<383 411> 709 20G<209 293>
VStem: 500 88<322 345>
DStem: 209 729 293 729 54 0 235 454 209 729 146 78 54 0 129 0
Fore
209 729 m 1
 293 729 l 1
 235 454 l 1
 266 487 279 498 296 509 c 0
 326 527 371 539 411 539 c 0
 512 539 588 455 588 343 c 0
 588 240 544 126 477 55 c 0
 432 8 361 -23 294 -23 c 0
 250 -23 209 -8 183 18 c 0
 168 33 159 47 146 78 c 1
 129 0 l 1
 54 0 l 1
 209 729 l 1
383 462 m 0
 323 462 270 427 231 361 c 0
 203 313 185 245 185 183 c 0
 185 104 228 54 296 54 c 0
 361 54 413 87 454 155 c 0
 483 203 500 267 500 324 c 0
 500 410 456 462 383 462 c 0
EndSplineSet
KernsSLIF: 121 -28 0 0 119 -10 0 0 118 -21 0 0
EndChar
StartChar: c
Encoding: 99 99 68
Width: 500
Flags: W
HStem: -23 77<261 285> 462 77<363 383>
VStem: 76 88<168 186> 468 86<370 392>
Fore
551 348 m 1
 467 348 l 1
 468 357 468 364 468 370 c 0
 468 427 429 462 366 462 c 0
 305 462 255 432 218 373 c 0
 185 321 164 245 164 181 c 0
 164 103 208 54 277 54 c 0
 349 54 404 98 434 180 c 1
 518 180 l 1
 502 124 486 90 460 60 c 0
 414 6 345 -23 263 -23 c 0
 199 -23 154 -4 120 39 c 0
 92 74 76 123 76 170 c 0
 76 262 110 371 157 432 c 0
 210 501 291 539 381 539 c 0
 438 539 479 524 510 492 c 0
 536 465 554 425 554 392 c 0
 554 389 553 378 552 363 c 2
 551 348 l 1
EndSplineSet
KernsSLIF: 107 -1 0 0 104 -7 0 0
EndChar
StartChar: d
Encoding: 100 100 69
Width: 556
Flags: W
HStem: -23 77<244 278> 462 77<344 373> 709 20G<566 650>
VStem: 73 88<168 202>
DStem: 566 729 650 729 506 448 495 0
Fore
650 729 m 1
 495 0 l 1
 414 0 l 1
 430 76 l 1
 416 48 403 33 373 15 c 0
 333 -9 287 -23 244 -23 c 0
 140 -23 73 53 73 170 c 0
 73 381 197 539 363 539 c 0
 434 539 474 513 506 448 c 1
 566 729 l 1
 650 729 l 1
355 462 m 0
 291 462 243 430 205 361 c 0
 178 310 161 246 161 190 c 0
 161 104 204 54 278 54 c 0
 339 54 388 88 427 155 c 0
 457 207 473 268 473 327 c 0
 473 412 429 462 355 462 c 0
EndSplineSet
EndChar
StartChar: e
Encoding: 101 101 70
Width: 556
Flags: W
HStem: -23 77<280 298> 234 72<195 563> 462 77<371 391>
VStem: 84 88<168 190> 492 88<339 368>
Fore
563 234 m 1
 177 234 l 1
 173 219 172 209 172 188 c 0
 172 103 217 54 296 54 c 0
 363 54 416 90 452 159 c 1
 536 159 l 1
 505 51 402 -23 282 -23 c 0
 225 -23 181 -7 146 27 c 0
 107 64 84 119 84 173 c 0
 84 254 121 368 168 431 c 0
 218 498 302 539 389 539 c 0
 497 539 580 464 580 368 c 0
 580 341 575 299 566 251 c 2
 563 234 l 1
195 306 m 1
 489 306 l 1
 491 322 492 329 492 339 c 0
 492 414 447 462 376 462 c 0
 295 462 221 398 195 306 c 1
EndSplineSet
KernsSLIF: 121 -33 0 0 120 -35 0 0 119 -16 0 0 118 -26 0 0 116 -16 0 0 39 -20 0 0
EndChar
StartChar: f
Encoding: 102 102 71
Width: 278
Flags: W
HStem: 0 21G<89 173> 457 67<129 186 284 356> 660 72<354 378>
DStem: 186 457 270 457 89 0 173 0
Fore
370 524 m 1
 356 457 l 1
 270 457 l 1
 173 0 l 1
 89 0 l 1
 186 457 l 1
 116 457 l 1
 130 524 l 1
 200 524 l 1
 219 613 l 2
 235 687 291 732 368 732 c 0
 384 732 395 731 413 727 c 1
 398 658 l 1
 384 660 378 660 371 660 c 0
 328 660 310 643 299 593 c 2
 284 524 l 1
 370 524 l 1
EndSplineSet
KernsSLIF: 116 16 0 0 115 -8 0 0 39 -8 0 0 249 -16 0 0 250 -20 0 0 352 -18 0 0 353 -18 0 0 111 -18 0 0 108 -12 0 0 106 -11 0 0 105 -10 0 0 102 12 0 0 336 -21 0 0 101 -21 0 0 329 -20 0 0 241 -15 0 0 323 -20 0 0 324 -20 0 0 97 -20 0 0
EndChar
StartChar: g
Encoding: 103 103 72
Width: 556
Flags: W
HStem: -218 72<206 228> -17 72<247 271> 462 77<351 371>
VStem: 32 86<-91 -72> 74 88<165 186>
DStem: 525 524 601 524 508 446 508 85
Fore
525 524 m 1xe8
 601 524 l 1
 508 85 l 2
 481 -42 454 -103 404 -151 c 0
 359 -194 288 -218 209 -218 c 0
 102 -218 32 -168 32 -91 c 0
 32 -87 32 -81 33 -73 c 1
 34 -60 l 1
 118 -60 l 1
 118 -68 l 1
 118 -74 l 2xf0
 118 -119 158 -146 226 -146 c 0
 332 -146 386 -92 415 44 c 2
 419 63 l 1
 369 10 310 -17 247 -17 c 0
 145 -17 74 59 74 168 c 0
 74 260 112 373 165 439 c 0
 214 501 292 539 369 539 c 0
 403 539 435 528 461 509 c 0
 483 493 493 479 508 446 c 1
 525 524 l 1xe8
363 462 m 0
 300 462 244 425 208 360 c 0
 179 308 162 244 162 184 c 0xe8
 162 105 204 55 271 55 c 0
 331 55 390 93 423 154 c 0
 451 203 469 277 469 339 c 0
 469 414 427 462 363 462 c 0
EndSplineSet
KernsSLIF: 114 -9 0 0 352 -8 0 0 353 -8 0 0 108 -8 0 0 336 -11 0 0 101 -11 0 0 329 -17 0 0 241 -13 0 0 323 -17 0 0 97 -17 0 0
EndChar
StartChar: h
Encoding: 104 104 73
Width: 556
Flags: W
HStem: 0 21G<70 154 406 490> 467 72<400 439> 709 20G<225 309>
VStem: 485 89<382 413>
DStem: 225 729 309 729 70 0 252 459 225 729 215 289 70 0 154 0 479 343 570 376 406 0 490 0
Fore
225 729 m 1
 309 729 l 1
 252 459 l 1
 315 518 364 539 439 539 c 0
 523 539 574 492 574 413 c 0
 574 401 573 389 570 376 c 1
 490 0 l 1
 406 0 l 1
 479 343 l 1
 485 370 485 370 485 382 c 0
 485 433 451 467 400 467 c 0
 309 467 239 399 215 289 c 1
 154 0 l 1
 70 0 l 1
 225 729 l 1
EndSplineSet
KernsSLIF: 121 -31 0 0 39 -19 0 0
EndChar
StartChar: i
Encoding: 105 105 74
Width: 222
Flags: W
HStem: 0 21G<66 150> 504 20G<177 261> 709 20G<221 305>
DStem: 177 524 261 524 66 0 150 0 221 729 305 729 199 626 283 626
Fore
261 524 m 1
 150 0 l 1
 66 0 l 1
 177 524 l 1
 261 524 l 1
305 729 m 1
 283 626 l 1
 199 626 l 1
 221 729 l 1
 305 729 l 1
EndSplineSet
KernsSLIF: 106 -10 0 0 84 -16 0 0
EndChar
StartChar: j
Encoding: 106 106 75
Width: 222
Flags: W
HStem: -218 72<-46 -16> 504 20G<180 264> 709 20G<224 308>
DStem: 180 524 264 524 53 -76 130 -109 224 729 308 729 202 626 286 626
Fore
180 524 m 1
 264 524 l 1
 130 -109 l 1
 112 -191 69 -218 -46 -218 c 0
 -55 -218 -58 -217 -65 -215 c 1
 -50 -144 l 1
 -32 -146 -30 -146 -25 -146 c 0
 26 -146 41 -132 53 -76 c 2
 180 524 l 1
308 729 m 1
 286 626 l 1
 202 626 l 1
 224 729 l 1
 308 729 l 1
EndSplineSet
EndChar
StartChar: k
Encoding: 107 107 76
Width: 500
Flags: W
HStem: 0 21G<58 142 406 502> 504 20G<476 584> 709 20G<213 297>
DStem: 213 729 297 729 58 0 207 306 213 729 185 203 58 0 142 0 292 291 362 343 406 0 502 0 476 524 584 524 207 306 362 343
Fore
297 729 m 1
 207 306 l 1
 476 524 l 1
 584 524 l 1
 362 343 l 1
 502 0 l 1
 406 0 l 1
 292 291 l 1
 185 203 l 1
 142 0 l 1
 58 0 l 1
 213 729 l 1
 297 729 l 1
EndSplineSet
KernsSLIF: 363 -16 0 0 117 -22 0 0 115 -14 0 0 46 -13 0 0 352 -30 0 0 353 -30 0 0 111 -30 0 0 45 -49 0 0 103 -26 0 0 336 -33 0 0 101 -33 0 0 44 -13 0 0 329 -14 0 0 241 -12 0 0 323 -14 0 0 324 -14 0 0 97 -14 0 0
EndChar
StartChar: l
Encoding: 108 108 77
Width: 222
Flags: W
HStem: 0 21G<68 152> 709 20G<223 307>
DStem: 223 729 307 729 68 0 152 0
Fore
307 729 m 1
 152 0 l 1
 68 0 l 1
 223 729 l 1
 307 729 l 1
EndSplineSet
KernsSLIF: 121 -15 0 0 118 -11 0 0
EndChar
StartChar: m
Encoding: 109 109 78
Width: 833
Flags: W
HStem: 0 21G<71 155 377 461 683 767> 467 72<376 423 688 725>
VStem: 764 88<390 428>
DStem: 182 524 225 329 71 0 155 0 454 361 531 329 377 0 461 0 755 341 846 373 683 0 767 0
Fore
182 524 m 1
 258 524 l 1
 245 459 l 1
 309 519 355 539 423 539 c 0
 489 539 528 512 544 456 c 1
 603 513 660 539 725 539 c 0
 771 539 798 529 820 505 c 0
 840 482 852 454 852 428 c 0
 852 417 849 384 846 373 c 1
 767 0 l 1
 683 0 l 1
 755 341 l 1
 764 375 764 375 764 390 c 0
 764 438 735 467 688 467 c 0
 616 467 547 407 531 329 c 1
 461 0 l 1
 377 0 l 1
 454 361 l 1
 457 374 458 387 458 398 c 0
 458 439 425 467 376 467 c 0
 309 467 241 405 225 329 c 2
 155 0 l 1
 71 0 l 1
 182 524 l 1
EndSplineSet
KernsSLIF: 121 -30 0 0 119 -14 0 0 118 -24 0 0 112 -3 0 0
EndChar
StartChar: n
Encoding: 110 110 79
Width: 556
Flags: W
HStem: 0 21G<70 154 406 490> 467 72<399 438>
VStem: 486 88<386 414>
DStem: 181 524 215 289 70 0 154 0 480 349 570 376 406 0 490 0
Fore
181 524 m 1
 257 524 l 1
 244 459 l 1
 296 512 362 539 438 539 c 0
 521 539 574 490 574 414 c 0
 574 401 573 389 570 376 c 1
 490 0 l 1
 406 0 l 1
 480 349 l 1
 484 365 486 380 486 386 c 0
 486 432 449 467 399 467 c 0
 309 467 239 399 215 289 c 1
 154 0 l 1
 70 0 l 1
 181 524 l 1
EndSplineSet
KernsSLIF: 121 -31 0 0 119 -14 0 0 118 -24 0 0 39 -19 0 0 112 -3 0 0 84 -103 0 0
EndChar
StartChar: o
Encoding: 111 111 80
Width: 556
Flags: W
HStem: -23 77<267 289> 462 77<367 386>
VStem: 80 88<163 186> 488 88<328 354>
Fore
384 539 m 0
 442 539 487 523 521 490 c 0
 556 456 576 405 576 352 c 0
 576 265 543 156 497 93 c 0
 441 16 365 -23 269 -23 c 0
 157 -23 80 53 80 164 c 0
 80 249 113 359 158 423 c 0
 209 497 291 539 384 539 c 0
371 462 m 0
 305 462 249 425 212 357 c 0
 185 307 168 241 168 184 c 0
 168 104 212 54 283 54 c 0
 352 54 406 90 444 159 c 0
 471 209 488 274 488 333 c 0
 488 414 445 462 371 462 c 0
EndSplineSet
KernsSLIF: 121 -34 0 0 120 -35 0 0 119 -16 0 0 118 -27 0 0 116 -17 0 0 39 -23 0 0 84 -106 0 0
EndChar
StartChar: p
Encoding: 112 112 81
Width: 556
Flags: W
HStem: -23 77<284 312> 462 77<379 412>
VStem: 498 88<314 346>
DStem: 164 524 245 524 7 -213 227 440 164 524 151 68 7 -213 91 -213
Fore
7 -213 m 1
 164 524 l 1
 245 524 l 1
 227 440 l 1
 240 467 252 480 284 500 c 0
 324 526 368 539 412 539 c 0
 519 539 586 464 586 344 c 0
 586 246 552 142 498 76 c 0
 447 13 372 -23 294 -23 c 0
 223 -23 182 3 151 68 c 1
 91 -213 l 1
 7 -213 l 1
379 462 m 0
 317 462 267 428 230 361 c 0
 200 309 183 244 183 184 c 0
 183 104 229 54 302 54 c 0
 367 54 417 87 454 155 c 0
 481 205 498 270 498 324 c 0
 498 410 454 462 379 462 c 0
EndSplineSet
KernsSLIF: 121 -28 0 0 116 -10 0 0
EndChar
StartChar: q
Encoding: 113 113 82
Width: 556
Flags: W
HStem: -23 77<248 276> 462 77<358 376>
VStem: 71 88<170 188>
DStem: 425 62 607 524 366 -213 450 -213 532 524 607 524 513 438 450 -213
Fore
450 -213 m 1
 366 -213 l 1
 425 62 l 1
 391 28 379 17 363 7 c 0
 334 -11 288 -23 248 -23 c 0
 147 -23 71 61 71 173 c 0
 71 276 115 390 182 461 c 0
 227 509 298 539 366 539 c 0
 439 539 490 503 513 438 c 1
 532 524 l 1
 607 524 l 1
 450 -213 l 1
364 462 m 0
 300 462 244 427 205 361 c 0
 178 316 159 244 159 186 c 0
 159 106 205 54 276 54 c 0
 336 54 388 89 428 155 c 0
 456 203 474 271 474 333 c 0
 474 412 431 462 364 462 c 0
EndSplineSet
KernsSLIF: 117 -5 0 0 99 -2 0 0
EndChar
StartChar: r
Encoding: 114 114 83
Width: 333
Flags: W
HStem: 0 21G<69 153> 504 20G<180 256>
DStem: 180 524 256 524 69 0 239 442 180 524 211 272 69 0 153 0
Fore
180 524 m 1
 256 524 l 1
 239 442 l 1
 301 513 346 539 404 539 c 0
 415 539 423 538 436 536 c 1
 418 451 l 1
 308 455 237 394 211 272 c 2
 153 0 l 1
 69 0 l 1
 180 524 l 1
EndSplineSet
KernsSLIF: 121 15 0 0 120 9 0 0 119 21 0 0 118 18 0 0 117 -7 0 0 116 21 0 0 59 -30 0 0 115 -4 0 0 114 -8 0 0 39 -6 0 0 113 -10 0 0 46 -77 0 0 249 -14 0 0 354 -14 0 0 250 -16 0 0 352 -14 0 0 355 -14 0 0 353 -14 0 0 111 -14 0 0 110 -8 0 0 109 -9 0 0 108 -7 0 0 107 -2 0 0 106 -6 0 0 105 -6 0 0 45 -54 0 0 104 -8 0 0 103 -8 0 0 102 17 0 0 337 -17 0 0 338 -17 0 0 336 -17 0 0 101 -17 0 0 100 -8 0 0 44 -77 0 0 58 -31 0 0 333 -11 0 0 99 -11 0 0 329 -16 0 0 325 -16 0 0 241 -11 0 0 323 -16 0 0 326 -16 0 0 324 -16 0 0 97 -16 0 0
EndChar
StartChar: s
Encoding: 115 115 84
Width: 500
Flags: W
HStem: -23 77<240 270> 462 77<332 358>
VStem: 61 93<105 131> 123 88<345 367> 405 88<150 173> 431 89<400 421>
Fore
514 378 m 1xd4
 430 378 l 1
 431 386 431 393 431 400 c 0
 431 439 398 462 339 462 c 0
 295 462 265 452 241 429 c 0
 223 412 211 387 211 367 c 0xd4
 211 341 240 321 296 307 c 2
 372 288 l 2
 460 266 493 234 493 173 c 0
 493 54 396 -23 247 -23 c 0
 131 -23 61 25 61 105 c 0
 61 121 62 133 67 156 c 1
 156 156 l 1
 155 146 154 137 154 131 c 0
 154 81 193 54 262 54 c 0
 305 54 348 67 373 88 c 0
 389 101 405 132 405 150 c 0xe8
 405 159 399 174 392 183 c 0
 383 194 368 200 335 209 c 2
 261 228 l 2
 158 255 123 284 123 345 c 0
 123 392 147 444 183 479 c 0
 224 518 285 539 356 539 c 0
 453 539 520 491 520 421 c 0
 520 408 519 399 514 378 c 1xd4
EndSplineSet
KernsSLIF: 116 -15 0 0 39 -24 0 0
EndChar
StartChar: t
Encoding: 116 116 85
Width: 278
Flags: W
HStem: -23 72<186 219> 457 67<121 179 277 352>
VStem: 97 86<56 76>
DStem: 179 457 263 457 100 87 185 90 224 668 308 668 193 524 277 524
Fore
366 524 m 1
 352 457 l 1
 263 457 l 1
 185 90 l 1
 184 84 183 79 183 76 c 0
 183 60 197 49 219 49 c 0
 231 49 236 50 267 57 c 1
 251 -16 l 1
 237 -20 206 -23 186 -23 c 0
 131 -23 97 7 97 56 c 0
 97 66 98 77 100 87 c 2
 179 457 l 1
 108 457 l 1
 122 524 l 1
 193 524 l 1
 224 668 l 1
 308 668 l 1
 277 524 l 1
 366 524 l 1
EndSplineSet
KernsSLIF: 59 -36 0 0 39 -7 0 0 352 -19 0 0 353 -19 0 0 111 -19 0 0 104 -14 0 0 336 -22 0 0 101 -22 0 0 58 -37 0 0 329 -10 0 0 241 -7 0 0 323 -10 0 0 324 -10 0 0 97 -10 0 0 83 -17 0 0
EndChar
StartChar: u
Encoding: 117 117 86
Width: 556
Flags: W
HStem: -23 72<226 268> 504 20G<177 261 510 594>
VStem: 88 91<86 126>
DStem: 177 524 261 524 91 120 182 153 510 524 594 524 447 227 483 0
Fore
483 0 m 1
 407 0 l 1
 419 57 l 1
 361 1 304 -23 226 -23 c 0
 140 -23 88 18 88 86 c 0
 88 99 89 110 91 120 c 2
 177 524 l 1
 261 524 l 1
 182 153 l 2
 180 143 179 134 179 126 c 0
 179 79 214 49 268 49 c 0
 353 49 424 119 447 227 c 2
 510 524 l 1
 594 524 l 1
 483 0 l 1
EndSplineSet
KernsSLIF: 39 -14 0 0
EndChar
StartChar: v
Encoding: 118 118 87
Width: 500
Flags: W
HStem: 0 21G<196 287> 504 20G<122 214 507 598>
DStem: 507 524 598 524 263 102 287 0
Fore
287 0 m 1
 196 0 l 1
 122 524 l 1
 214 524 l 1
 263 102 l 1
 507 524 l 1
 598 524 l 1
 287 0 l 1
EndSplineSet
KernsSLIF: 59 -31 0 0 115 -17 0 0 46 -76 0 0 249 -25 0 0 354 -25 0 0 352 -25 0 0 353 -25 0 0 111 -25 0 0 108 -8 0 0 45 -19 0 0 103 -20 0 0 337 -29 0 0 338 -29 0 0 336 -29 0 0 101 -29 0 0 44 -76 0 0 58 -32 0 0 99 -22 0 0 328 -30 0 0 329 -30 0 0 325 -30 0 0 241 -25 0 0 323 -30 0 0 326 -30 0 0 324 -30 0 0 97 -30 0 0
EndChar
StartChar: w
Encoding: 119 119 88
Width: 722
Flags: W
HStem: 0 21G<158 254 461 556> 504 20G<118 209 417 522 729 820>
DStem: 417 524 449 418 228 116 254 0 449 418 522 524 461 0 533 116
Fore
556 0 m 1
 461 0 l 1
 449 418 l 1
 254 0 l 1
 158 0 l 1
 118 524 l 1
 209 524 l 1
 228 116 l 1
 417 524 l 1
 522 524 l 1
 533 116 l 1
 729 524 l 1
 820 524 l 1
 556 0 l 1
EndSplineSet
KernsSLIF: 59 -31 0 0 115 -14 0 0 46 -57 0 0 249 -14 0 0 354 -17 0 0 352 -17 0 0 353 -17 0 0 111 -17 0 0 108 -8 0 0 45 -8 0 0 103 -13 0 0 337 -20 0 0 338 -20 0 0 336 -20 0 0 101 -20 0 0 44 -57 0 0 58 -32 0 0 99 -14 0 0 328 -26 0 0 329 -26 0 0 325 -26 0 0 241 -22 0 0 323 -26 0 0 326 -26 0 0 324 -26 0 0 97 -26 0 0
EndChar
StartChar: x
Encoding: 120 120 89
Width: 500
Flags: W
HStem: 0 21G<17 115 379 473> 504 20G<138 231 486 583>
DStem: 138 524 231 524 256 267 319 332 256 267 289 200 17 0 115 0 289 200 350 267 379 0 473 0 486 524 583 524 319 332 350 267
Fore
350 267 m 1
 473 0 l 1
 379 0 l 1
 289 200 l 1
 115 0 l 1
 17 0 l 1
 256 267 l 1
 138 524 l 1
 231 524 l 1
 319 332 l 1
 486 524 l 1
 583 524 l 1
 350 267 l 1
EndSplineSet
KernsSLIF: 113 -28 0 0 111 -33 0 0 336 -36 0 0 101 -36 0 0 99 -30 0 0 97 -30 0 0
EndChar
StartChar: y
Encoding: 121 121 90
Width: 500
Flags: W
HStem: -218 81<55 73> 504 20G<132 222 501 590>
DStem: 132 524 222 524 200 -4 268 117 501 524 590 524 268 117 222 -110
Fore
501 524 m 1
 590 524 l 1
 222 -110 l 2
 179 -184 128 -218 57 -218 c 0
 38 -218 26 -216 8 -208 c 1
 24 -133 l 1
 51 -136 58 -137 68 -137 c 0
 105 -137 121 -127 148 -85 c 2
 200 -4 l 1
 132 524 l 1
 222 524 l 1
 268 117 l 1
 501 524 l 1
EndSplineSet
KernsSLIF: 59 -40 0 0 115 -23 0 0 46 -80 0 0 249 -30 0 0 354 -31 0 0 352 -31 0 0 353 -31 0 0 111 -31 0 0 108 -14 0 0 45 -24 0 0 103 -26 0 0 337 -35 0 0 338 -35 0 0 336 -35 0 0 101 -35 0 0 44 -80 0 0 58 -40 0 0 99 -28 0 0 328 -36 0 0 329 -36 0 0 325 -36 0 0 241 -31 0 0 323 -36 0 0 326 -36 0 0 324 -36 0 0 97 -36 0 0
EndChar
StartChar: z
Encoding: 122 122 91
Width: 500
Flags: W
HStem: 0 72<147 458> 452 72<164 444>
DStem: 444 452 539 449 49 74 147 72
Fore
557 524 m 1
 539 449 l 1
 147 72 l 1
 473 72 l 1
 458 0 l 1
 31 0 l 1
 49 74 l 1
 444 452 l 1
 150 452 l 1
 165 524 l 1
 557 524 l 1
EndSplineSet
EndChar
StartChar: braceleft
Encoding: 123 123 92
Width: 334
Flags: W
HStem: -213 66<210 231> 664 65<382 417>
VStem: 98 77<-134 -113> 148 76<138 164>
DStem: 139 86 218 101 104 -80 179 -80 248 597 323 597 212 431 284 416
Fore
431 729 m 1xd0
 417 664 l 1
 401 664 l 2
 351 664 334 649 323 597 c 2
 284 416 l 1
 270 345 232 290 176 259 c 1
 213 235 224 213 224 162 c 0xd0
 224 140 222 120 218 101 c 2
 179 -80 l 1
 176 -92 175 -103 175 -113 c 0
 175 -137 191 -147 229 -147 c 2
 245 -147 l 1
 231 -213 l 1
 184 -213 l 2
 130 -213 98 -184 98 -134 c 0xe0
 98 -118 100 -98 104 -80 c 2
 139 86 l 1
 145 113 148 137 148 153 c 0
 148 193 128 218 91 224 c 1
 106 293 l 1
 164 303 194 342 212 431 c 1
 248 597 l 1
 258 641 268 663 290 687 c 0
 316 715 348 729 384 729 c 2
 431 729 l 1xd0
EndSplineSet
EndChar
StartChar: bar
Encoding: 124 124 93
Width: 260
Flags: W
HStem: 709 20G<255 315>
DStem: 255 729 315 729 54 -212 114 -212
Fore
255 729 m 1
 315 729 l 1
 114 -212 l 1
 54 -212 l 1
 255 729 l 1
EndSplineSet
EndChar
StartChar: braceright
Encoding: 125 125 94
Width: 334
Flags: W
HStem: 709 20G<184 231>
VStem: 191 76<346 380> 240 77<628 647>
DStem: 131 100 203 85 92 -81 167 -81 236 597 311 597 197 416 276 431
Fore
-16 -213 m 1xc0
 -2 -148 l 1
 14 -148 l 2
 64 -148 81 -133 92 -81 c 2
 131 100 l 1
 148 190 173 226 239 257 c 1
 206 286 191 319 191 362 c 0xc0
 191 379 193 397 197 416 c 2
 236 597 l 1
 239 609 240 620 240 630 c 0
 240 654 224 664 186 664 c 2
 170 664 l 1
 184 729 l 1
 231 729 l 2
 282 729 317 696 317 647 c 0xa0
 317 633 315 616 311 597 c 2
 276 431 l 1
 270 401 267 379 267 359 c 0
 267 322 287 299 324 293 c 1
 309 223 l 1
 251 214 217 169 203 85 c 1
 167 -81 l 2
 158 -123 147 -148 127 -171 c 0
 100 -203 76 -213 31 -213 c 2
 -16 -213 l 1xc0
EndSplineSet
EndChar
StartChar: asciitilde
Encoding: 126 126 95
Width: 584
Flags: W
HStem: 268 68<458 475> 372 66<259 275>
DStem: 299 357 326 422 384 294 428 353
Fore
542 411 m 1
 594 411 l 1
 587 370 578 347 560 323 c 0
 535 289 496 268 458 268 c 0
 434 268 406 278 384 294 c 2
 299 357 l 2
 288 365 270 372 260 372 c 0
 229 372 205 345 189 293 c 1
 137 293 l 1
 162 387 211 438 275 438 c 0
 293 438 311 432 326 422 c 2
 428 353 l 2
 446 341 460 336 475 336 c 0
 510 336 531 360 542 411 c 1
EndSplineSet
EndChar
StartChar: exclamdown
Encoding: 161 161 96
Width: 333
Flags: W
HStem: 504 20G<233 317>
DStem: 150 145 234 145 76 -205 160 -205 233 524 317 524 211 421 295 421
Fore
76 -205 m 1
 150 145 l 1
 217 356 l 1
 257 356 l 1
 234 145 l 1
 160 -205 l 1
 76 -205 l 1
211 421 m 1
 233 524 l 1
 317 524 l 1
 295 421 l 1
 211 421 l 1
EndSplineSet
EndChar
StartChar: cent
Encoding: 162 162 97
Width: 556
Flags: W
VStem: 96 88<167 201> 499 86<371 392>
DStem: 264 -22 304 -23 243 -120 283 -120 366 460 407 463 281 56 320 53 402 628 442 628 383 538 423 538
Fore
407 463 m 1
 320 53 l 1
 391 61 434 98 465 180 c 1
 549 180 l 1
 514 49 438 -15 304 -23 c 1
 283 -120 l 1
 243 -120 l 1
 264 -22 l 1
 161 -11 96 64 96 171 c 0
 96 286 142 402 214 467 c 0
 262 510 312 531 383 538 c 1
 402 628 l 1
 442 628 l 1
 423 538 l 1
 448 538 465 535 485 528 c 0
 542 507 585 448 585 392 c 0
 585 389 584 378 583 363 c 2
 582 348 l 1
 498 348 l 1
 499 357 499 365 499 371 c 0
 499 422 472 452 419 461 c 2
 407 463 l 1
281 56 m 1
 366 460 l 1
 328 453 302 440 276 415 c 0
 221 362 184 269 184 183 c 0
 184 113 221 64 281 56 c 1
EndSplineSet
EndChar
StartChar: sterling
Encoding: 163 163 98
Width: 556
Flags: W
HStem: -23 93<401 424> 321 55<106 208 287 435> 652 77<422 444>
VStem: 160 96<472 499> 218 83<269 285> 540 88<554 579>
Fore
447 376 m 1xf4
 435 321 l 1
 298 321 l 1
 299 310 l 1
 300 297 301 287 301 283 c 0
 301 264 294 234 283 210 c 0
 261 161 242 140 169 86 c 0
 163 81 153 74 136 61 c 1
 192 89 230 100 269 100 c 0
 291 100 299 99 322 91 c 0
 367 76 397 70 424 70 c 0
 455 70 476 77 518 101 c 1
 543 31 l 1
 500 -4 449 -23 401 -23 c 0
 365 -23 329 -14 262 12 c 0
 242 19 222 23 199 23 c 0
 162 23 127 12 81 -14 c 1
 44 52 l 1
 161 129 218 200 218 271 c 0xec
 218 286 217 292 208 321 c 1
 95 321 l 1
 107 376 l 1
 190 376 l 1
 188 382 185 390 181 398 c 0
 164 438 160 455 160 480 c 0
 160 610 295 729 442 729 c 0
 553 729 628 669 628 579 c 0
 628 557 626 539 619 497 c 1
 531 497 l 1
 538 523 540 536 540 554 c 0
 540 614 495 652 424 652 c 0
 329 652 256 582 256 492 c 0
 256 466 256 466 278 404 c 0
 279 403 283 389 287 376 c 1
 447 376 l 1xf4
EndSplineSet
EndChar
StartChar: fraction
Encoding: 164 8260 99
Width: 167
Flags: W
HStem: -20 21G<-178 -120> 689 20G<428 486>
DStem: 428 709 486 709 -178 -20 -120 -20
Fore
428 709 m 1
 486 709 l 1
 -120 -20 l 1
 -178 -20 l 1
 428 709 l 1
EndSplineSet
EndChar
StartChar: yen
Encoding: 165 165 100
Width: 556
Flags: W
HStem: 0 21G<237 325> 175 51<110 274 373 535> 303 51<137 302 419 562> 689 20G<162 247 611 696>
DStem: 162 709 247 709 292 354 363 387 274 175 362 175 237 0 325 0 611 709 696 709 363 387 419 354
Fore
573 354 m 1
 562 303 l 1
 390 303 l 1
 373 226 l 1
 545 226 l 1
 535 175 l 1
 362 175 l 1
 325 0 l 1
 237 0 l 1
 274 175 l 1
 100 175 l 1
 111 226 l 1
 285 226 l 1
 302 303 l 1
 127 303 l 1
 138 354 l 1
 292 354 l 1
 162 709 l 1
 247 709 l 1
 363 387 l 1
 611 709 l 1
 696 709 l 1
 419 354 l 1
 573 354 l 1
EndSplineSet
EndChar
StartChar: florin
Encoding: 166 402 101
Width: 556
Flags: W
HStem: -212 77<20 53> 392 72<239 337 454 552> 661 77<602 621>
DStem: 337 392 425 392 172 -21 267 -5
Fore
567 464 m 1
 552 392 l 1
 425 392 l 1
 267 -5 l 2
 211 -146 133 -212 20 -212 c 0
 -2 -212 -15 -209 -32 -202 c 1
 3 -116 l 1
 20 -130 33 -135 53 -135 c 0
 103 -135 141 -99 172 -21 c 2
 337 392 l 1
 225 392 l 1
 240 464 l 1
 365 464 l 1
 408 567 l 2
 451 670 535 738 621 738 c 0
 647 738 671 732 696 719 c 1
 650 641 l 1
 631 656 619 661 602 661 c 0
 555 661 513 617 481 533 c 1
 454 464 l 1
 567 464 l 1
EndSplineSet
EndChar
StartChar: section
Encoding: 167 167 102
Width: 556
Flags: W
HStem: -213 77<222 247> -34 20G<74 159> 524 21G<491 575> 652 77<416 436>
VStem: 63 88<-75 -57> 104 88<274 309> 221 92<540 555> 350 92<-34 -16> 471 88<231 267> 501 88<574 594>
DStem: 167 162 236 229 312 38 374 108 287 428 355 491 418 322 482 390
Fore
575 524 m 1xf740
 491 524 l 1
 498 544 501 559 501 575 c 0xf740
 501 622 468 652 418 652 c 0
 362 652 313 605 313 553 c 0
 313 530 321 518 355 491 c 2
 482 390 l 2
 516 363 525 354 535 342 c 0
 551 320 559 295 559 267 c 0
 559 223 537 166 507 131 c 0
 484 104 452 84 412 71 c 1
 434 41 442 18 442 -16 c 0
 442 -57 422 -104 387 -142 c 1
 348 -187 289 -213 225 -213 c 0
 127 -213 63 -158 63 -75 c 0
 63 -54 66 -41 74 -14 c 1
 159 -14 l 1
 153 -35 151 -46 151 -59 c 0xfb80
 151 -104 188 -136 238 -136 c 0
 299 -136 350 -89 350 -34 c 0
 350 -5 340 14 312 38 c 2
 167 162 l 2
 121 201 104 232 104 274 c 0
 104 315 124 365 152 397 c 0
 175 423 187 431 247 463 c 1
 229 486 221 510 221 540 c 0
 221 638 324 729 436 729 c 0
 526 729 589 673 589 594 c 0
 589 573 588 569 577 533 c 0
 577 532 576 529 575 524 c 1xf740
236 229 m 2
 374 108 l 1
 438 141 471 183 471 231 c 0xf780
 471 261 450 296 418 322 c 2
 287 428 l 1
 217 388 192 357 192 309 c 0
 192 277 202 258 236 229 c 2
EndSplineSet
EndChar
StartChar: currency
Encoding: 168 164 103
Width: 556
Flags: W
HStem: 160 77<309 327> 448 77<367 385>
VStem: 156 79<305 323> 458 79<363 381>
Fore
526 191 m 1
 456 137 l 1
 414 190 l 1
 386 171 348 160 309 160 c 0
 270 160 238 169 219 185 c 1
 154 133 l 1
 110 191 l 1
 170 240 l 1
 161 257 156 281 156 305 c 0
 156 328 161 354 171 378 c 0
 180 400 180 400 211 441 c 2
 214 445 l 1
 172 500 l 1
 238 556 l 1
 283 498 l 1
 310 514 351 525 385 525 c 0
 422 525 458 514 478 496 c 1
 546 552 l 1
 593 494 l 1
 524 438 l 1
 533 422 537 406 537 381 c 0
 537 334 513 274 483 245 c 1
 526 191 l 1
369 448 m 0
 300 448 235 388 235 323 c 0
 235 274 274 237 325 237 c 0
 394 237 458 299 458 364 c 0
 458 411 419 448 369 448 c 0
EndSplineSet
EndChar
StartChar: quotesingle
Encoding: 169 39 104
Width: 191
Flags: W
HStem: 689 20G<198 292>
DStem: 198 709 292 709 174 598 268 598
Fore
198 709 m 1
 292 709 l 1
 268 598 l 1
 213 464 l 1
 173 464 l 1
 174 598 l 1
 198 709 l 1
EndSplineSet
EndChar
StartChar: quotedblleft
Encoding: 170 8220 105
Width: 333
Flags: W
DStem: 167 577 261 580 146 477 239 477 328 577 422 580 307 477 400 477
Fore
239 477 m 1
 146 477 l 1
 167 577 l 1
 184 656 228 704 288 709 c 1
 280 670 l 1
 245 665 224 638 214 580 c 1
 261 580 l 1
 239 477 l 1
400 477 m 1
 307 477 l 1
 328 577 l 1
 345 656 389 704 449 709 c 1
 441 670 l 1
 405 665 385 638 374 580 c 1
 422 580 l 1
 400 477 l 1
EndSplineSet
KernsSLIF: 89 -1 1 0 87 22 1 0 86 10 1 0 84 1 1 0 263 -58 1 0 257 -58 1 0 258 -58 1 0 225 -70 1 0 65 -58 1 0
EndChar
StartChar: guillemotleft
Encoding: 171 171 106
Width: 556
Flags: W
DStem: 147 227 204 271 272 106 290 188 343 438 325 355 166 316 204 271 352 227 409 271 477 106 495 188 548 438 530 355 371 316 409 271
Fore
147 227 m 1
 166 316 l 1
 343 438 l 1
 325 355 l 1
 204 271 l 1
 290 188 l 1
 272 106 l 1
 147 227 l 1
352 227 m 1
 371 316 l 1
 548 438 l 1
 530 355 l 1
 409 271 l 1
 495 188 l 1
 477 106 l 1
 352 227 l 1
EndSplineSet
EndChar
StartChar: guilsinglleft
Encoding: 172 8249 107
Width: 333
Flags: W
DStem: 140 227 197 271 265 106 283 188 336 438 318 355 159 316 197 271
Fore
140 227 m 1
 159 316 l 1
 336 438 l 1
 318 355 l 1
 197 271 l 1
 283 188 l 1
 265 106 l 1
 140 227 l 1
EndSplineSet
EndChar
StartChar: guilsinglright
Encoding: 173 8250 108
Width: 333
Flags: W
DStem: 162 356 180 438 250 273 307 317 250 273 288 228 127 189 109 106
Fore
307 317 m 1
 288 228 l 1
 109 106 l 1
 127 189 l 1
 250 273 l 1
 162 356 l 1
 180 438 l 1
 307 317 l 1
EndSplineSet
KernsSLIF: 89 -131 1 0 87 -62 1 0 86 -90 1 0 84 -126 1 0 263 -52 1 0 257 -52 1 0 258 -52 1 0 225 -56 1 0 65 -52 1 0
EndChar
StartChar: fi
Encoding: 174 64257 109
Width: 500
Flags: W
HStem: 0 21G<83 167 352 436> 457 67<123 180 278 350> 660 72<348 372>
DStem: 180 457 264 457 83 0 167 0 463 524 547 524 352 0 436 0 507 729 591 729 485 626 569 626
Fore
364 524 m 1
 350 457 l 1
 264 457 l 1
 167 0 l 1
 83 0 l 1
 180 457 l 1
 110 457 l 1
 124 524 l 1
 194 524 l 1
 213 613 l 2
 229 687 285 732 362 732 c 0
 378 732 389 731 407 727 c 1
 392 658 l 1
 377 660 371 660 365 660 c 0
 322 660 304 643 293 593 c 2
 278 524 l 1
 364 524 l 1
547 524 m 1
 436 0 l 1
 352 0 l 1
 463 524 l 1
 547 524 l 1
591 729 m 1
 569 626 l 1
 485 626 l 1
 507 729 l 1
 591 729 l 1
EndSplineSet
LCarets: 0 65535 '    ' 1 0 
Ligature: 0 0 'liga' f i
EndChar
StartChar: fl
Encoding: 175 64258 110
Width: 500
Flags: W
HStem: 0 21G<88 172 346 430> 457 67<128 185 283 355> 660 72<353 377>
DStem: 185 457 269 457 88 0 172 0 501 729 585 729 346 0 430 0
Fore
369 524 m 1
 355 457 l 1
 269 457 l 1
 172 0 l 1
 88 0 l 1
 185 457 l 1
 115 457 l 1
 129 524 l 1
 199 524 l 1
 218 613 l 2
 234 687 290 732 367 732 c 0
 383 732 394 731 412 727 c 1
 397 658 l 1
 383 660 377 660 370 660 c 0
 327 660 309 643 298 593 c 2
 283 524 l 1
 369 524 l 1
585 729 m 1
 430 0 l 1
 346 0 l 1
 501 729 l 1
 585 729 l 1
EndSplineSet
Ligature: 0 0 'liga' f l
EndChar
StartChar: endash
Encoding: 177 8211 111
Width: 556
Flags: W
HStem: 240 72<60 613>
Fore
628 312 m 1
 613 240 l 1
 46 240 l 1
 61 312 l 1
 628 312 l 1
EndSplineSet
EndChar
StartChar: dagger
Encoding: 178 8224 112
Width: 556
Flags: W
HStem: 420 81<143 320 426 603> 689 20G<382 470>
DStem: 320 420 408 420 194 -177 282 -177 382 709 470 709 338 501 426 501
Fore
620 501 m 1
 603 420 l 1
 408 420 l 1
 282 -177 l 1
 194 -177 l 1
 320 420 l 1
 127 420 l 1
 144 501 l 1
 338 501 l 1
 382 709 l 1
 470 709 l 1
 426 501 l 1
 620 501 l 1
EndSplineSet
EndChar
StartChar: daggerdbl
Encoding: 179 8225 113
Width: 556
Flags: W
HStem: 31 81<67 241 346 520> 420 81<150 324 429 603> 689 20G<385 473>
DStem: 241 31 329 31 197 -177 285 -177 324 420 412 420 258 112 346 112 385 709 473 709 341 501 429 501
Fore
620 501 m 1
 603 420 l 1
 412 420 l 1
 346 112 l 1
 537 112 l 1
 520 31 l 1
 329 31 l 1
 285 -177 l 1
 197 -177 l 1
 241 31 l 1
 51 31 l 1
 68 112 l 1
 258 112 l 1
 324 420 l 1
 134 420 l 1
 151 501 l 1
 341 501 l 1
 385 709 l 1
 473 709 l 1
 429 501 l 1
 620 501 l 1
EndSplineSet
EndChar
StartChar: periodcentered
Encoding: 180 183 114
Width: 278
Flags: W
DStem: 188 295 293 295 166 192 271 192
Fore
293 295 m 1
 271 192 l 1
 166 192 l 1
 188 295 l 1
 293 295 l 1
EndSplineSet
EndChar
StartChar: paragraph
Encoding: 182 182 115
Width: 537
Flags: W
HStem: 665 64<427 543 427 663>
DStem: 310 259 460 665 217 -178 281 -178 543 665 607 665 364 -178 428 -178
Fore
677 729 m 1
 663 665 l 1
 607 665 l 1
 428 -178 l 1
 364 -178 l 1
 543 665 l 1
 460 665 l 1
 281 -178 l 1
 217 -178 l 1
 310 259 l 1
 207 262 145 329 145 436 c 0
 145 588 281 729 427 729 c 2
 677 729 l 1
EndSplineSet
EndChar
StartChar: bullet
Encoding: 183 8226 116
Width: 350
Flags: W
Fore
274 470 m 0
 334 470 376 430 376 372 c 0
 376 293 301 220 220 220 c 0
 164 220 120 263 120 318 c 0
 120 397 194 470 274 470 c 0
EndSplineSet
EndChar
StartChar: quotesinglbase
Encoding: 184 8218 117
Width: 222
Flags: W
HStem: -20 20G<64 112>
DStem: 86 103 180 103 64 0 159 3
Fore
86 103 m 1
 180 103 l 1
 159 3 l 1
 142 -76 98 -124 37 -128 c 1
 45 -90 l 1
 81 -85 102 -57 112 0 c 1
 64 0 l 1
 86 103 l 1
EndSplineSet
EndChar
StartChar: quotedblbase
Encoding: 185 8222 118
Width: 333
Flags: W
HStem: -20 20G<47 95 206 254>
DStem: 69 103 163 103 47 0 142 3 228 103 322 103 206 0 301 3
Fore
69 103 m 1
 163 103 l 1
 142 3 l 1
 125 -76 81 -124 20 -128 c 1
 28 -90 l 1
 64 -85 85 -57 95 0 c 1
 47 0 l 1
 69 103 l 1
228 103 m 1
 322 103 l 1
 301 3 l 1
 284 -76 240 -124 179 -128 c 1
 187 -90 l 1
 223 -85 244 -57 254 0 c 1
 206 0 l 1
 228 103 l 1
EndSplineSet
KernsSLIF: 89 -96 1 0 87 -39 1 0 86 -74 1 0 84 -80 1 0 225 21 1 0 65 21 1 0
EndChar
StartChar: quotedblright
Encoding: 186 8221 119
Width: 333
Flags: W
HStem: 688 20G<199 293 358 452>
DStem: 199 708 293 708 177 605 272 608 358 708 452 708 336 605 431 608
Fore
199 708 m 1
 293 708 l 1
 272 608 l 1
 255 529 211 481 150 477 c 1
 158 515 l 1
 194 520 215 548 225 605 c 1
 177 605 l 1
 199 708 l 1
358 708 m 1
 452 708 l 1
 431 608 l 1
 414 529 370 481 309 477 c 1
 317 515 l 1
 353 520 374 548 384 605 c 1
 336 605 l 1
 358 708 l 1
EndSplineSet
KernsSLIF: 89 -2 1 0 87 21 1 0 86 9 1 0 84 2 1 0 263 -60 1 0 257 -60 1 0 258 -60 1 0 225 -72 1 0 65 -60 1 0
EndChar
StartChar: guillemotright
Encoding: 187 187 120
Width: 556
Flags: W
DStem: 174 356 192 438 262 273 319 317 262 273 300 228 139 189 121 106 373 356 391 438 461 273 518 317 461 273 499 228 338 189 320 106
Fore
319 317 m 1
 300 228 l 1
 121 106 l 1
 139 189 l 1
 262 273 l 1
 174 356 l 1
 192 438 l 1
 319 317 l 1
518 317 m 1
 499 228 l 1
 320 106 l 1
 338 189 l 1
 461 273 l 1
 373 356 l 1
 391 438 l 1
 518 317 l 1
EndSplineSet
KernsSLIF: 89 -137 1 0 87 -68 1 0 86 -96 1 0 84 -132 1 0 263 -58 1 0 257 -58 1 0 258 -58 1 0 225 -62 1 0 65 -58 1 0
EndChar
StartChar: ellipsis
Encoding: 188 8230 121
Width: 1000
Flags: W
HStem: 0 103<136 219 469 552 802 885>
DStem: 137 103 241 103 115 0 219 0 470 103 574 103 448 0 552 0 803 103 907 103 781 0 885 0
Fore
241 103 m 1
 219 0 l 1
 115 0 l 1
 137 103 l 1
 241 103 l 1
574 103 m 1
 552 0 l 1
 448 0 l 1
 470 103 l 1
 574 103 l 1
907 103 m 1
 885 0 l 1
 781 0 l 1
 803 103 l 1
 907 103 l 1
EndSplineSet
Ligature: 0 1 'liga' period period period
EndChar
StartChar: perthousand
Encoding: 189 8240 122
Width: 1000
Flags: W
HStem: -19 55<476 493 837 854> 221 55<529 543 890 904> 430 55<247 264> 670 55<300 314>
VStem: 128 60<544 558> 357 60<95 109> 374 60<598 612> 603 60<149 163> 718 60<95 109> 964 60<149 163>
DStem: 649 738 715 738 93 -20 159 -20
Fore
649 738 m 1xf9c0
 715 738 l 1
 159 -20 l 1
 93 -20 l 1
 649 738 l 1xf9c0
314 725 m 0
 383 725 434 677 434 612 c 0xfbc0
 434 515 347 430 247 430 c 0
 180 430 128 480 128 546 c 0
 128 638 218 725 314 725 c 0
302 670 m 0
 241 670 188 616 188 556 c 0
 188 515 219 485 262 485 c 0
 322 485 374 539 374 600 c 0
 374 639 342 670 302 670 c 0
543 276 m 0
 612 276 663 228 663 163 c 0
 663 66 576 -19 476 -19 c 0
 409 -19 357 31 357 97 c 0xfdc0
 357 189 447 276 543 276 c 0
531 221 m 0
 470 221 417 167 417 107 c 0
 417 66 448 36 491 36 c 0
 551 36 603 90 603 151 c 0
 603 190 571 221 531 221 c 0
904 276 m 0
 973 276 1024 228 1024 163 c 0
 1024 66 937 -19 837 -19 c 0
 770 -19 718 31 718 97 c 0
 718 189 808 276 904 276 c 0
892 221 m 0
 831 221 778 167 778 107 c 0
 778 66 809 36 852 36 c 0
 912 36 964 90 964 151 c 0
 964 190 932 221 892 221 c 0
EndSplineSet
EndChar
StartChar: questiondown
Encoding: 191 191 123
Width: 611
Flags: W
HStem: -217 77<266 290> 504 20G<386 476>
VStem: 86 95<-72 -53>
DStem: 386 524 476 524 364 421 454 421
Fore
344 325 m 1
 434 325 l 1
 422 270 l 1
 408 209 390 187 285 107 c 1
 213 50 181 1 181 -53 c 0
 181 -106 223 -140 288 -140 c 0
 376 -140 424 -92 446 17 c 1
 531 17 l 1
 500 -138 410 -217 266 -217 c 0
 199 -217 154 -200 121 -162 c 0
 99 -137 86 -104 86 -72 c 0
 86 -26 105 26 137 68 c 0
 157 94 182 117 230 154 c 0
 304 209 320 228 334 278 c 1
 344 325 l 1
364 421 m 1
 386 524 l 1
 476 524 l 1
 454 421 l 1
 364 421 l 1
EndSplineSet
EndChar
StartChar: grave
Encoding: 193 96 124
Width: 333
Flags: W
HStem: 720 20G<179 285>
Fore
285 740 m 1
 357 592 l 1
 304 592 l 1
 179 740 l 1
 285 740 l 1
EndSplineSet
EndChar
StartChar: acute
Encoding: 194 180 125
Width: 333
Flags: W
HStem: 720 20G<346 458>
Fore
346 740 m 1
 458 740 l 1
 278 592 l 1
 218 592 l 1
 346 740 l 1
EndSplineSet
Ligature: 0 1 'liga' space acutecomb
EndChar
StartChar: circumflex
Encoding: 195 710 126
Width: 333
Flags: W
HStem: 721 20G<274 369>
Fore
274 741 m 1
 369 741 l 1
 433 591 l 1
 370 591 l 1
 314 690 l 1
 210 591 l 1
 146 591 l 1
 274 741 l 1
EndSplineSet
EndChar
StartChar: tilde
Encoding: 196 732 127
Width: 333
Flags: W
Fore
418 719 m 1
 471 719 l 1
 450 654 408 612 363 612 c 0
 341 612 324 616 260 638 c 0
 249 642 239 644 233 644 c 0
 214 644 202 638 190 620 c 0
 188 618 186 615 183 611 c 1
 130 611 l 1
 142 646 150 663 162 678 c 0
 178 699 209 714 234 714 c 0
 251 714 268 710 307 697 c 0
 333 688 360 682 370 682 c 0
 390 682 400 690 418 719 c 1
EndSplineSet
Ligature: 0 1 'liga' space tildecomb
EndChar
StartChar: macron
Encoding: 197 175 128
Width: 333
Flags: W
HStem: 627 69<174 435>
Fore
450 696 m 1
 435 627 l 1
 160 627 l 1
 175 696 l 1
 450 696 l 1
EndSplineSet
Ligature: 0 1 'liga' space uni0304
EndChar
StartChar: breve
Encoding: 198 728 129
Width: 333
Flags: W
HStem: 709 20G<170 223 415 471>
VStem: 165 58<693 716>
Fore
170 729 m 1
 223 729 l 1
 223 721 l 1
 223 716 l 2
 223 686 256 666 305 666 c 0
 364 666 405 689 415 729 c 1
 471 729 l 1
 460 685 449 664 425 643 c 0
 392 613 341 594 292 594 c 0
 217 594 165 634 165 693 c 0
 165 702 166 710 170 729 c 1
EndSplineSet
Ligature: 0 1 'liga' space uni0306
EndChar
StartChar: dotaccent
Encoding: 199 729 130
Width: 333
Flags: W
DStem: 266 715 370 715 244 612 348 612
Fore
370 715 m 1
 348 612 l 1
 244 612 l 1
 266 715 l 1
 370 715 l 1
EndSplineSet
Ligature: 0 1 'liga' space uni0307
EndChar
StartChar: dieresis
Encoding: 200 168 131
Width: 333
Flags: W
HStem: 612 103<180 263 341 424>
DStem: 181 715 285 715 159 612 263 612 342 715 446 715 320 612 424 612
Fore
285 715 m 1
 263 612 l 1
 159 612 l 1
 181 715 l 1
 285 715 l 1
446 715 m 1
 424 612 l 1
 320 612 l 1
 342 715 l 1
 446 715 l 1
EndSplineSet
Ligature: 0 1 'liga' space uni0308
EndChar
StartChar: ring
Encoding: 202 730 132
Width: 333
Flags: W
HStem: 579 44<287 299> 710 44<311 326>
VStem: 216 46<648 660> 351 45<673 687>
Fore
324 754 m 0
 365 754 396 725 396 687 c 0
 396 631 344 579 287 579 c 0
 247 579 216 610 216 649 c 0
 216 702 270 754 324 754 c 0
317 710 m 0
 289 710 262 684 262 658 c 0
 262 637 277 623 297 623 c 0
 324 623 351 649 351 675 c 0
 351 695 336 710 317 710 c 0
EndSplineSet
Ligature: 0 1 'liga' space uni030A
EndChar
StartChar: cedilla
Encoding: 203 184 133
Width: 333
Flags: W
HStem: -214 43<112 137> -94 40<155 197> -20 20G<165 206>
VStem: 186 78<-119 -105>
DStem: 165 0 206 0 115 -92 176 -56
Fore
165 0 m 1
 206 0 l 1
 176 -56 l 1
 189 -54 193 -54 197 -54 c 0
 234 -54 264 -77 264 -105 c 0
 264 -168 203 -214 119 -214 c 0
 81 -214 52 -206 1 -180 c 1
 29 -142 l 1
 70 -163 95 -171 123 -171 c 0
 160 -171 186 -148 186 -116 c 0
 186 -104 172 -94 155 -94 c 0
 151 -94 151 -94 135 -97 c 2
 128 -98 l 1
 115 -92 l 1
 165 0 l 1
EndSplineSet
Ligature: 0 1 'liga' space uni0327
EndChar
StartChar: hungarumlaut
Encoding: 205 733 134
Width: 333
Flags: W
HStem: 720 20G<219 331 393 505>
Fore
219 740 m 1
 331 740 l 1
 151 590 l 1
 91 590 l 1
 219 740 l 1
393 740 m 1
 505 740 l 1
 325 590 l 1
 265 590 l 1
 393 740 l 1
EndSplineSet
Ligature: 0 1 'liga' space uni030B
EndChar
StartChar: ogonek
Encoding: 206 731 135
Width: 333
Flags: W
HStem: -205 45<162 180> -20 20G<165 234>
VStem: 35 75<-130 -116>
Fore
165 0 m 1
 234 0 l 1
 230 -3 222 -6 212 -11 c 0
 162 -36 147 -46 130 -66 c 0
 117 -81 110 -100 110 -116 c 0
 110 -142 137 -160 176 -160 c 0
 203 -160 228 -156 246 -150 c 1
 237 -195 l 1
 216 -202 197 -205 169 -205 c 0
 84 -205 35 -177 35 -130 c 0
 35 -93 56 -59 94 -34 c 0
 113 -22 130 -13 165 0 c 1
EndSplineSet
Ligature: 0 1 'liga' space uni0328
EndChar
StartChar: caron
Encoding: 207 711 136
Width: 333
Flags: W
HStem: 720 20G<176 239 399 463>
Fore
335 592 m 1
 240 592 l 1
 176 740 l 1
 239 740 l 1
 295 642 l 1
 399 740 l 1
 463 740 l 1
 335 592 l 1
EndSplineSet
EndChar
StartChar: emdash
Encoding: 208 8212 137
Width: 1000
Flags: W
HStem: 240 72<56 1053>
Fore
1068 312 m 1
 1053 240 l 1
 42 240 l 1
 57 312 l 1
 1068 312 l 1
EndSplineSet
EndChar
StartChar: AE
Encoding: 225 198 138
Width: 1000
Flags: W
HStem: 0 82<579 950> 214 81<293 513> 332 82<650 983> 647 82<465 605 465 1070>
DStem: 465 729 505 647 11 0 293 295 465 729 244 214 11 0 114 0 513 214 632 332 468 0 579 82 605 647 699 647 531 295 650 414
Fore
513 214 m 1
 244 214 l 1
 114 0 l 1
 11 0 l 1
 465 729 l 1
 1087 729 l 1
 1070 647 l 1
 699 647 l 1
 650 414 l 1
 1001 414 l 1
 983 332 l 1
 632 332 l 1
 579 82 l 1
 967 82 l 1
 950 0 l 1
 468 0 l 1
 513 214 l 1
531 295 m 1
 605 647 l 1
 505 647 l 1
 293 295 l 1
 531 295 l 1
EndSplineSet
EndChar
StartChar: ordfeminine
Encoding: 227 170 139
Width: 370
Flags: W
HStem: 303 51<117 395> 399 50<231 249> 691 51<312 337>
VStem: 136 60<477 488> 382 59<656 676>
Fore
406 354 m 1
 395 303 l 1
 107 303 l 1
 118 354 l 1
 406 354 l 1
432 449 m 1
 423 405 l 1
 418 404 414 403 413 403 c 0
 396 399 394 399 387 399 c 0
 359 399 343 414 340 442 c 1
 310 414 272 399 231 399 c 0
 170 399 136 428 136 479 c 0
 136 516 154 548 186 568 c 0
 215 586 241 592 320 600 c 0
 364 605 371 608 378 633 c 2
 380 641 l 2
 381 646 382 651 382 656 c 0
 382 664 381 667 371 679 c 0
 365 685 342 691 320 691 c 0
 296 691 270 682 259 669 c 0
 249 658 245 650 240 634 c 1
 184 634 l 1
 196 677 202 690 218 705 c 0
 243 729 285 742 337 742 c 0
 401 742 441 717 441 676 c 0
 441 669 441 661 440 658 c 1
 399 468 l 1
 398 465 398 463 398 461 c 0
 398 454 406 447 415 447 c 0
 417 447 420 447 424 448 c 2
 432 449 l 1
353 515 m 2
 363 566 l 1
 346 560 336 558 312 555 c 0
 255 547 242 544 224 533 c 0
 208 523 196 503 196 486 c 0
 196 461 214 449 249 449 c 0
 294 449 347 483 353 515 c 2
EndSplineSet
EndChar
StartChar: Lslash
Encoding: 232 321 140
Width: 556
Flags: W
HStem: 0 82<211 552> 709 20G<255 349>
DStem: 158 276 261 315 100 0 211 82 255 729 349 729 175 355 278 394 474 512 457 433 278 394 261 315
Fore
261 315 m 1
 211 82 l 1
 570 82 l 1
 552 0 l 1
 100 0 l 1
 158 276 l 1
 75 225 l 1
 92 304 l 1
 175 355 l 1
 255 729 l 1
 349 729 l 1
 278 394 l 1
 474 512 l 1
 457 433 l 1
 261 315 l 1
EndSplineSet
EndChar
StartChar: Oslash
Encoding: 233 216 141
Width: 778
Flags: W
HStem: -23 81<376 401> 660 81<495 529>
VStem: 88 96<247 297> 716 96<439 473>
DStem: 126 100 158 57 32 15 67 -24 672 592 700 546 202 168 230 123 832 735 867 696 745 657 775 613
Fore
32 15 m 1
 126 100 l 1
 102 141 88 205 88 268 c 0
 88 390 142 522 229 614 c 0
 309 698 407 741 519 741 c 0
 616 741 701 709 745 657 c 1
 832 735 l 1
 867 696 l 1
 775 613 l 1
 800 570 812 519 812 463 c 0
 812 305 734 140 618 54 c 0
 550 4 467 -23 378 -23 c 0
 285 -23 209 5 158 57 c 1
 67 -24 l 1
 32 15 l 1
202 168 m 1
 672 592 l 1
 636 635 575 660 508 660 c 0
 327 660 184 486 184 265 c 0
 184 225 189 198 202 168 c 1
700 546 m 1
 230 123 l 1
 264 83 325 58 391 58 c 0
 484 58 574 106 632 185 c 0
 684 256 716 355 716 443 c 0
 716 485 710 521 700 546 c 1
EndSplineSet
KernsSLIF: 65 -47 0 0
EndChar
StartChar: OE
Encoding: 234 338 142
Width: 1000
Flags: W
HStem: -23 81<331 358> 0 82<634 957> 327 82<704 1013> 647 82<678 1091> 660 81<478 502>
VStem: 101 96<200 250>
DStem: 638 539 755 647 562 182 704 409 638 539 687 327 562 182 634 82
Fore
687 327 m 1x34
 634 82 l 1
 974 82 l 1
 957 0 l 1
 523 0 l 1x74
 539 77 l 1
 482 7 419 -23 332 -23 c 0
 193 -23 101 73 101 219 c 0
 101 359 158 529 235 616 c 0
 304 693 404 741 496 741 c 0xac
 579 741 631 714 662 653 c 1
 678 729 l 1
 1108 729 l 1
 1091 647 l 1
 755 647 l 1
 704 409 l 1
 1031 409 l 1
 1013 327 l 1
 687 327 l 1x34
562 182 m 1
 638 539 l 1
 619 621 568 660 480 660 c 0
 393 660 320 613 269 523 c 0
 229 454 197 318 197 222 c 0
 197 120 256 58 352 58 c 0xac
 436 58 505 99 562 182 c 1
EndSplineSet
EndChar
StartChar: ordmasculine
Encoding: 235 186 143
Width: 365
Flags: W
HStem: 303 51<124 377> 399 52<262 278> 690 52<321 338>
VStem: 149 60<509 527> 392 60<606 629>
Fore
388 354 m 1
 377 303 l 1
 114 303 l 1
 125 354 l 1
 388 354 l 1
336 742 m 0
 369 742 399 732 417 716 c 0
 437 697 452 660 452 627 c 0
 452 576 431 508 404 470 c 0
 370 424 321 399 262 399 c 0
 195 399 149 444 149 509 c 0
 149 565 169 635 197 672 c 0
 229 716 281 742 336 742 c 0
327 690 m 0
 261 690 209 618 209 525 c 0
 209 478 234 451 276 451 c 0
 341 451 392 524 392 617 c 0
 392 662 367 690 327 690 c 0
EndSplineSet
EndChar
StartChar: ae
Encoding: 241 230 144
Width: 889
Flags: W
HStem: -23 72<201 237> 234 72<530 898> 462 77<361 389 710 730>
VStem: 59 88<103 122> 827 88<339 370>
Fore
225 369 m 1
 141 369 l 1
 157 427 170 454 194 478 c 0
 235 517 304 539 387 539 c 0
 451 539 486 528 522 499 c 0
 541 483 543 481 546 474 c 1
 591 514 660 539 728 539 c 0
 830 539 915 462 915 370 c 0
 915 342 910 299 901 251 c 2
 898 234 l 1
 512 234 l 1
 508 216 507 204 507 181 c 2
 507 169 l 1
 507 163 l 2
 507 135 524 101 550 79 c 0
 570 62 597 54 632 54 c 0
 698 54 751 90 787 159 c 1
 871 159 l 1
 839 50 737 -23 616 -23 c 0
 536 -23 481 9 442 79 c 1
 375 14 288 -23 201 -23 c 0
 114 -23 59 27 59 105 c 0
 59 163 90 217 141 249 c 0
 191 279 234 289 363 300 c 0
 435 307 453 318 463 361 c 1
 468 386 l 1
 469 393 470 399 470 405 c 0
 470 440 430 462 366 462 c 0
 287 462 246 435 225 369 c 1
421 164 m 2
 441 257 l 1
 404 244 398 243 299 229 c 0
 247 222 220 214 196 199 c 0
 166 180 147 148 147 115 c 0
 147 72 179 49 237 49 c 0
 321 49 408 104 421 164 c 2
530 306 m 1
 824 306 l 1
 826 321 827 328 827 339 c 0
 827 414 783 462 712 462 c 0
 629 462 561 404 530 306 c 1
EndSplineSet
KernsSLIF: 121 -32 0 0 119 -15 0 0 118 -26 0 0
EndChar
StartChar: dotlessi
Encoding: 245 305 145
Width: 278
Flags: W
HStem: 0 21G<94 178> 507 20G<206 290>
DStem: 206 527 290 527 94 0 178 0
Fore
290 527 m 1
 178 0 l 1
 94 0 l 1
 206 527 l 1
 290 527 l 1
EndSplineSet
EndChar
StartChar: lslash
Encoding: 248 322 146
Width: 222
Flags: W
HStem: 0 21G<67 151> 709 20G<222 306>
DStem: 134 314 225 347 67 0 151 0 222 729 306 729 149 382 239 414
Fore
239 414 m 1
 312 456 l 1
 298 389 l 1
 225 347 l 1
 151 0 l 1
 67 0 l 1
 134 314 l 1
 62 270 l 1
 76 337 l 1
 149 382 l 1
 222 729 l 1
 306 729 l 1
 239 414 l 1
EndSplineSet
EndChar
StartChar: oslash
Encoding: 249 248 147
Width: 611
Flags: W
HStem: -23 77<272 291> 462 77<367 388>
VStem: 81 88<160 182> 489 88<326 354>
DStem: 102 74 123 41 19 -2 45 -30 470 410 484 370 175 141 190 102 613 541 639 511 537 472 558 437
Fore
19 -2 m 1
 102 74 l 1
 87 106 81 133 81 164 c 0
 81 248 114 359 159 423 c 0
 211 498 291 539 383 539 c 0
 454 539 504 517 537 472 c 1
 613 541 l 1
 639 511 l 1
 558 437 l 1
 571 408 577 383 577 354 c 0
 577 265 544 157 498 93 c 0
 443 17 365 -23 274 -23 c 0
 206 -23 153 -1 123 41 c 1
 45 -30 l 1
 19 -2 l 1
175 141 m 1
 470 410 l 1
 451 444 415 462 369 462 c 0
 305 462 249 425 213 357 c 0
 185 306 169 242 169 180 c 0
 169 163 170 156 175 141 c 1
484 370 m 1
 190 102 l 1
 209 71 245 54 289 54 c 0
 353 54 410 93 446 159 c 0
 470 204 489 280 489 328 c 0
 489 339 488 350 484 370 c 1
EndSplineSet
EndChar
StartChar: oe
Encoding: 250 339 148
Width: 944
Flags: W
HStem: -23 77<273 294 665 685> 234 72<581 949> 462 77<369 388 756 777>
VStem: 85 88<160 186> 487 69<176 334> 878 88<338 368>
Fore
838 159 m 1
 922 159 l 1
 890 50 788 -23 667 -23 c 0
 598 -23 550 1 508 55 c 0
 499 66 496 72 491 84 c 1
 441 17 362 -23 275 -23 c 0
 217 -23 171 -7 139 26 c 0
 105 61 85 112 85 165 c 0
 85 246 117 354 162 422 c 0
 212 497 292 539 386 539 c 0
 470 539 529 503 558 436 c 1
 601 495 693 539 775 539 c 0
 883 539 966 464 966 368 c 0
 966 341 961 299 952 251 c 2
 949 234 l 1
 563 234 l 1
 558 208 556 196 556 176 c 0
 556 102 605 54 683 54 c 0
 749 54 802 90 838 159 c 1
371 462 m 0
 261 462 173 338 173 181 c 0
 173 103 216 54 285 54 c 0
 351 54 408 92 445 159 c 0
 471 207 487 275 487 334 c 0
 487 414 443 462 371 462 c 0
581 306 m 1
 875 306 l 1
 877 320 878 328 878 338 c 0
 878 414 833 462 764 462 c 0
 682 462 607 398 581 306 c 1
EndSplineSet
EndChar
StartChar: germandbls
Encoding: 251 223 149
Width: 661
Flags: W
HStem: -15 79<294 328> 354 73<373 399.207> 652 76<422 443>
VStem: 518 94<252 269> 555 91<563 585>
DStem: 168 532 252 510 55 0 143 0
Back
373 427 m 1xf0
 493 427 539 481 552 540 c 0
 554 548 555 556 555 564 c 0
 555 616 512 652 424 652 c 0
 311 652 270 595 252 510 c 2
 143 0 l 1
 55 0 l 1
 168 532 l 5
 193 647 291 728 441 728 c 0
 571 728 646 673 646 585 c 0xe8
 646 573 644 561 642 548 c 0
 621 451 554 415 528 400 c 1
 586 383 612 321 612 267 c 0
 612 255 611 244 609 234 c 0
 571 57 447 -15 304 -15 c 0
 275 -15 266 -11 253 -8 c 1
 268 67 l 1
 283 65 298 64 312 64 c 0
 421 64 492 113 514 214 c 0
 517 229 518 242 518 254 c 0
 518 328 461 354 373 354 c 2
 357 354 l 1
 373 427 l 1xf0
EndSplineSet
Fore
373 427 m 1xf0
 497.925 427 555 491 555 564 c 0
 555 616 512 652 424 652 c 0
 311 652 270 595 252 510 c 2
 143 0 l 1
 55 0 l 1
 168 532 l 2
 193 647 291 728 441 728 c 0
 571 728 646 673 646 585 c 0xe8
 646 465 552.724 414.264 528 400 c 1
 586 383 612 321 612 267 c 0
 612 170 529 -15 304 -15 c 0
 275 -15 266 -11 253 -8 c 1
 268 67 l 1
 283 65 298 64 312 64 c 0
 440 64 518 141 518 254 c 0
 518 328 461 354 373 354 c 2
 357 354 l 1
 373 427 l 1xf0
EndSplineSet
EndChar
StartChar: Adieresis
Encoding: 257 196 150
Width: 667
Flags: W
HStem: 0 21G<17 116 551 653> 219 78<283 524> 709 20G<432 552> 811 103<396 479 557 640>
DStem: 397 914 501 914 375 811 479 811 432 729 474 630 17 0 283 297 432 729 239 219 17 0 116 0 558 914 662 914 536 811 640 811
Fore
524 219 m 1
 239 219 l 1
 116 0 l 1
 17 0 l 1
 432 729 l 1
 552 729 l 1
 653 0 l 1
 551 0 l 1
 524 219 l 1
514 297 m 1
 474 630 l 1
 283 297 l 1
 514 297 l 1
501 914 m 1
 479 811 l 1
 375 811 l 1
 397 914 l 1
 501 914 l 1
662 914 m 1
 640 811 l 1
 536 811 l 1
 558 914 l 1
 662 914 l 1
EndSplineSet
KernsSLIF: 121 -44 0 0 119 -29 0 0 118 -40 0 0 117 -19 0 0 116 -22 0 0 39 -68 0 0 186 -60 0 0 113 -15 0 0 46 -3 0 0 111 -19 0 0 45 -8 0 0 172 -48 0 0 171 -51 0 0 103 -17 0 0 100 -14 0 0 44 -4 0 0 99 -17 0 0 98 -5 0 0 97 -16 0 0 89 -104 0 0 87 -57 0 0 86 -81 0 0 85 -43 0 0 84 -103 0 0 81 -39 0 0 79 -38 0 0 71 -41 0 0 67 -42 0 0
Ligature: 0 0 'liga' A uni0308
EndChar
StartChar: Aacute
Encoding: 258 193 151
Width: 667
Flags: W
HStem: 0 21G<17 116 551 653> 219 78<283 524> 709 20G<432 552>
DStem: 432 729 474 630 17 0 283 297 432 729 239 219 17 0 116 0
Fore
524 219 m 1
 239 219 l 1
 116 0 l 1
 17 0 l 1
 432 729 l 1
 552 729 l 1
 653 0 l 1
 551 0 l 1
 524 219 l 1
514 297 m 1
 474 630 l 1
 283 297 l 1
 514 297 l 1
555 939 m 1
 667 939 l 1
 487 791 l 1
 427 791 l 1
 555 939 l 1
EndSplineSet
KernsSLIF: 121 -44 0 0 119 -29 0 0 118 -40 0 0 117 -20 0 0 116 -23 0 0 39 -68 0 0 113 -16 0 0 46 -3 0 0 111 -20 0 0 45 -9 0 0 172 -48 0 0 171 -51 0 0 103 -17 0 0 101 -23 0 0 100 -15 0 0 44 -4 0 0 99 -17 0 0 98 -6 0 0 97 -16 0 0 89 -104 0 0 87 -57 0 0 86 -81 0 0 85 -43 0 0 84 -103 0 0 81 -39 0 0 79 -38 0 0 71 -42 0 0 67 -42 0 0
Ligature: 0 0 'liga' A acutecomb
EndChar
StartChar: Agrave
Encoding: 259 192 152
Width: 667
Flags: W
HStem: 0 21G<17 116 551 653> 219 78<283 524> 709 20G<432 552>
DStem: 432 729 474 630 17 0 283 297 432 729 239 219 17 0 116 0
Fore
524 219 m 1
 239 219 l 1
 116 0 l 1
 17 0 l 1
 432 729 l 1
 552 729 l 1
 653 0 l 1
 551 0 l 1
 524 219 l 1
514 297 m 1
 474 630 l 1
 283 297 l 1
 514 297 l 1
483 939 m 1
 555 791 l 1
 502 791 l 1
 377 939 l 1
 483 939 l 1
EndSplineSet
KernsSLIF: 46 -2 0 0 44 -4 0 0 89 -104 0 0 87 -57 0 0 86 -81 0 0 85 -42 0 0 84 -103 0 0 81 -38 0 0 79 -37 0 0 71 -41 0 0 67 -41 0 0
Ligature: 0 0 'liga' A gravecomb
EndChar
StartChar: Acircumflex
Encoding: 260 194 153
Width: 667
Flags: W
HStem: 0 21G<17 116 551 653> 219 78<283 524> 709 20G<432 552>
DStem: 432 729 474 630 17 0 283 297 432 729 239 219 17 0 116 0
Fore
524 219 m 1
 239 219 l 1
 116 0 l 1
 17 0 l 1
 432 729 l 1
 552 729 l 1
 653 0 l 1
 551 0 l 1
 524 219 l 1
514 297 m 1
 474 630 l 1
 283 297 l 1
 514 297 l 1
486 940 m 1
 581 940 l 1
 645 790 l 1
 582 790 l 1
 526 889 l 1
 422 790 l 1
 358 790 l 1
 486 940 l 1
EndSplineSet
KernsSLIF: 46 -2 0 0 44 -4 0 0 89 -104 0 0 87 -57 0 0 86 -81 0 0 85 -42 0 0 84 -103 0 0 81 -38 0 0 79 -37 0 0 71 -41 0 0 67 -41 0 0
Ligature: 0 0 'liga' A uni0302
EndChar
StartChar: Abreve
Encoding: 261 258 154
Width: 667
Flags: W
HStem: 0 21G<17 116 551 653> 219 78<283 524> 709 20G<432 552> 793 72<502 524>
VStem: 377 58<892 915>
DStem: 432 729 474 630 17 0 283 297 432 729 239 219 17 0 116 0
Fore
524 219 m 1
 239 219 l 1
 116 0 l 1
 17 0 l 1
 432 729 l 1
 552 729 l 1
 653 0 l 1
 551 0 l 1
 524 219 l 1
514 297 m 1
 474 630 l 1
 283 297 l 1
 514 297 l 1
382 928 m 1
 435 928 l 1
 435 920 l 1
 435 915 l 2
 435 885 468 865 517 865 c 0
 576 865 617 888 627 928 c 1
 683 928 l 1
 672 884 661 863 637 842 c 0
 604 812 553 793 504 793 c 0
 429 793 377 833 377 892 c 0
 377 901 378 909 382 928 c 1
EndSplineSet
Ligature: 0 0 'liga' A uni0306
EndChar
StartChar: Atilde
Encoding: 262 195 155
Width: 667
Flags: W
HStem: 0 21G<17 116 551 653> 219 78<283 524> 709 20G<432 552> 811 70<570 581> 843 70<431 450>
DStem: 432 729 474 630 17 0 283 297 432 729 239 219 17 0 116 0
Fore
524 219 m 1xe0
 239 219 l 1
 116 0 l 1
 17 0 l 1
 432 729 l 1
 552 729 l 1
 653 0 l 1
 551 0 l 1
 524 219 l 1xe0
514 297 m 1
 474 630 l 1
 283 297 l 1
 514 297 l 1
627 918 m 1
 680 918 l 1
 659 853 617 811 572 811 c 0xf0
 550 811 533 815 469 837 c 0
 458 841 448 843 442 843 c 0
 423 843 411 837 399 819 c 0
 397 817 395 814 392 810 c 1
 339 810 l 1
 351 845 359 862 371 877 c 0
 387 898 418 913 443 913 c 0xe8
 460 913 477 909 516 896 c 0
 542 887 569 881 579 881 c 0xf0
 599 881 609 889 627 918 c 1
EndSplineSet
KernsSLIF: 46 -4 0 0 44 -4 0 0 89 -104 0 0 87 -57 0 0 86 -81 0 0 85 -44 0 0 84 -103 0 0 81 -40 0 0 79 -39 0 0 71 -42 0 0 67 -43 0 0
Ligature: 0 0 'liga' A tildecomb
EndChar
StartChar: Aring
Encoding: 263 197 156
Width: 667
Flags: W
HStem: 0 21G<17 116 551 653> 219 78<283 524> 709 20G<432 552> 778 44<496 508> 909 44<522 535>
VStem: 425 46<847 859> 560 45<872 886>
DStem: 432 729 474 630 17 0 283 297 432 729 239 219 17 0 116 0
Fore
524 219 m 1
 239 219 l 1
 116 0 l 1
 17 0 l 1
 432 729 l 1
 552 729 l 1
 653 0 l 1
 551 0 l 1
 524 219 l 1
514 297 m 1
 474 630 l 1
 283 297 l 1
 514 297 l 1
533 953 m 0
 574 953 605 924 605 886 c 0
 605 830 553 778 496 778 c 0
 456 778 425 809 425 848 c 0
 425 901 479 953 533 953 c 0
526 909 m 0
 498 909 471 883 471 857 c 0
 471 836 486 822 506 822 c 0
 533 822 560 848 560 874 c 0
 560 894 545 909 526 909 c 0
EndSplineSet
KernsSLIF: 121 -44 0 0 119 -29 0 0 118 -40 0 0 117 -18 0 0 116 -22 0 0 39 -68 0 0 186 -60 0 0 113 -15 0 0 46 -2 0 0 111 -19 0 0 45 -8 0 0 172 -47 0 0 171 -51 0 0 103 -17 0 0 101 -22 0 0 100 -14 0 0 44 -4 0 0 99 -16 0 0 98 -5 0 0 97 -16 0 0 89 -104 0 0 87 -57 0 0 86 -81 0 0 85 -42 0 0 84 -103 0 0 81 -38 0 0 79 -37 0 0 71 -41 0 0 67 -41 0 0
Ligature: 0 0 'liga' A uni030A
EndChar
StartChar: Aogonek
Encoding: 264 260 157
Width: 667
Flags: W
HStem: -205 45<580 597> -20 20G<551 582> 0 21G<17 116> 219 78<283 524> 709 20G<432 552>
VStem: 452 75<-130 -116>
DStem: 432 729 474 630 17 0 283 297
Fore
524 219 m 1
 226 219 l 1
 116 0 l 1
 17 0 l 1
 432 729 l 1
 552 729 l 1
 653 0 l 1
 564 -39 527 -73 527 -116 c 0
 527 -143 554 -160 595 -160 c 0
 619 -160 643 -157 663 -150 c 1
 654 -195 l 1
 612 -204 605 -205 582 -205 c 0
 502 -205 452 -176 452 -130 c 0
 452 -96 474 -59 509 -35 c 0
 529 -21 545 -13 582 0 c 1
 551 0 l 1
 524 219 l 1
514 297 m 1
 474 630 l 1
 283 297 l 1
 514 297 l 1
EndSplineSet
Ligature: 0 0 'liga' A uni0328
EndChar
StartChar: Ccedilla
Encoding: 265 199 158
Width: 722
Flags: W
HStem: -214 43<287 312> -94 40<330 372> -23 81<368 385> 660 81<511 534>
VStem: 112 96<240 268> 361 78<-119 -105>
DStem: 328 -21 368 -23 290 -92 351 -56
Fore
368 -23 m 1
 351 -56 l 1
 364 -54 367 -54 372 -54 c 0
 409 -54 439 -77 439 -105 c 0
 439 -168 378 -214 294 -214 c 0
 256 -214 227 -206 176 -180 c 1
 204 -142 l 1
 244 -163 270 -171 298 -171 c 0
 335 -171 361 -148 361 -116 c 0
 361 -104 347 -94 330 -94 c 0
 325 -94 325 -94 310 -97 c 2
 303 -98 l 1
 290 -92 l 1
 328 -21 l 1
 261 -11 232 1 197 32 c 0
 142 81 112 156 112 242 c 0
 112 367 161 505 240 600 c 0
 318 694 415 741 532 741 c 0
 626 741 697 704 738 634 c 0
 757 600 767 562 770 503 c 1
 674 503 l 1
 666 611 616 660 515 660 c 0
 423 660 350 617 289 527 c 0
 238 451 208 351 208 260 c 0
 208 139 277 58 381 58 c 0
 460 58 536 95 578 155 c 0
 596 179 612 209 637 266 c 1
 735 266 l 1
 656 68 542 -21 368 -23 c 1
EndSplineSet
KernsSLIF: 65 -44 0 0
Ligature: 0 0 'liga' C uni0327
EndChar
StartChar: Cacute
Encoding: 266 262 159
Width: 722
Flags: W
HStem: -23 81<365 385> 660 81<511 534>
VStem: 112 96<240 268>
Fore
770 503 m 1
 674 503 l 1
 666 611 616 660 515 660 c 0
 423 660 350 617 289 527 c 0
 238 451 208 351 208 260 c 0
 208 139 277 58 381 58 c 0
 460 58 536 95 578 155 c 0
 596 179 612 209 637 266 c 1
 735 266 l 1
 701 185 669 130 630 87 c 0
 565 16 473 -23 367 -23 c 0
 278 -23 215 4 169 62 c 0
 132 109 112 172 112 242 c 0
 112 367 161 505 240 600 c 0
 318 694 415 741 532 741 c 0
 626 741 697 704 738 634 c 0
 757 600 767 562 770 503 c 1
621 939 m 1
 733 939 l 1
 553 791 l 1
 493 791 l 1
 621 939 l 1
EndSplineSet
Ligature: 0 0 'liga' C acutecomb
EndChar
StartChar: Ccaron
Encoding: 267 268 160
Width: 722
Flags: W
HStem: -23 81<365 385> 660 81<502 534>
VStem: 112 96<240 268>
Fore
770 503 m 1
 674 503 l 1
 666 611 616 660 515 660 c 0
 423 660 350 617 289 527 c 0
 238 451 208 351 208 260 c 0
 208 139 277 58 381 58 c 0
 460 58 536 95 578 155 c 0
 596 179 612 209 637 266 c 1
 735 266 l 1
 701 185 669 130 630 87 c 0
 565 16 473 -23 367 -23 c 0
 278 -23 215 4 169 62 c 0
 132 109 112 172 112 242 c 0
 112 367 161 505 240 600 c 0
 318 694 415 741 532 741 c 0
 626 741 697 704 738 634 c 0
 757 600 767 562 770 503 c 1
596 791 m 1
 501 791 l 1
 437 939 l 1
 500 939 l 1
 556 841 l 1
 660 939 l 1
 724 939 l 1
 596 791 l 1
EndSplineSet
Ligature: 0 0 'liga' C uni030C
EndChar
StartChar: Dcaron
Encoding: 268 270 161
Width: 722
Flags: W
HStem: 0 82<200 394> 647 82<244 506>
VStem: 663 96<463 497>
DStem: 244 729 321 647 89 0 200 82
Fore
89 0 m 1
 244 729 l 1
 526 729 l 2
 591 729 644 711 682 677 c 0
 729 635 759 561 759 488 c 0
 759 363 711 217 643 134 c 0
 570 45 479 0 371 0 c 2
 89 0 l 1
200 82 m 1
 372 82 l 2
 463 82 539 125 591 205 c 0
 631 268 663 388 663 480 c 0
 663 584 599 647 492 647 c 2
 321 647 l 1
 200 82 l 1
536 791 m 1
 441 791 l 1
 377 939 l 1
 440 939 l 1
 496 841 l 1
 600 939 l 1
 664 939 l 1
 536 791 l 1
EndSplineSet
Ligature: 0 0 'liga' D uni030C
EndChar
StartChar: Edieresis
Encoding: 269 203 162
Width: 667
Flags: W
HStem: 0 82<201 613> 332 82<272 650> 647 82<245 734> 811 103<400 483 561 644>
DStem: 245 729 322 647 90 0 272 414 245 729 255 332 90 0 201 82 401 914 505 914 379 811 483 811 562 914 666 914 540 811 644 811
Fore
255 332 m 1
 201 82 l 1
 630 82 l 1
 613 0 l 1
 90 0 l 1
 245 729 l 1
 751 729 l 1
 734 647 l 1
 322 647 l 1
 272 414 l 1
 668 414 l 1
 650 332 l 1
 255 332 l 1
505 914 m 1
 483 811 l 1
 379 811 l 1
 401 914 l 1
 505 914 l 1
666 914 m 1
 644 811 l 1
 540 811 l 1
 562 914 l 1
 666 914 l 1
EndSplineSet
Ligature: 0 0 'liga' E uni0308
EndChar
StartChar: Eacute
Encoding: 270 201 163
Width: 667
Flags: W
HStem: 0 82<201 613> 332 82<272 650> 647 82<245 734>
DStem: 245 729 322 647 90 0 272 414 245 729 255 332 90 0 201 82
Fore
255 332 m 1
 201 82 l 1
 630 82 l 1
 613 0 l 1
 90 0 l 1
 245 729 l 1
 751 729 l 1
 734 647 l 1
 322 647 l 1
 272 414 l 1
 668 414 l 1
 650 332 l 1
 255 332 l 1
582 939 m 1
 694 939 l 1
 514 791 l 1
 454 791 l 1
 582 939 l 1
EndSplineSet
Ligature: 0 0 'liga' E acutecomb
EndChar
StartChar: Egrave
Encoding: 271 200 164
Width: 667
Flags: W
HStem: 0 82<201 613> 332 82<272 650> 647 82<245 734>
DStem: 245 729 322 647 90 0 272 414 245 729 255 332 90 0 201 82
Fore
255 332 m 1
 201 82 l 1
 630 82 l 1
 613 0 l 1
 90 0 l 1
 245 729 l 1
 751 729 l 1
 734 647 l 1
 322 647 l 1
 272 414 l 1
 668 414 l 1
 650 332 l 1
 255 332 l 1
495 939 m 1
 567 791 l 1
 514 791 l 1
 389 939 l 1
 495 939 l 1
EndSplineSet
Ligature: 0 0 'liga' E gravecomb
EndChar
StartChar: Ecircumflex
Encoding: 272 202 165
Width: 667
Flags: W
HStem: 0 82<201 613> 332 82<272 650> 647 82<245 734>
DStem: 245 729 322 647 90 0 272 414 245 729 255 332 90 0 201 82
Fore
255 332 m 1
 201 82 l 1
 630 82 l 1
 613 0 l 1
 90 0 l 1
 245 729 l 1
 751 729 l 1
 734 647 l 1
 322 647 l 1
 272 414 l 1
 668 414 l 1
 650 332 l 1
 255 332 l 1
495 940 m 1
 590 940 l 1
 654 790 l 1
 591 790 l 1
 535 889 l 1
 431 790 l 1
 367 790 l 1
 495 940 l 1
EndSplineSet
Ligature: 0 0 'liga' E uni0302
EndChar
StartChar: Ecaron
Encoding: 273 282 166
Width: 667
Flags: W
HStem: 0 82<201 613> 332 82<272 650> 647 82<245 734>
DStem: 245 729 322 647 90 0 272 414 245 729 255 332 90 0 201 82
Fore
255 332 m 1
 201 82 l 1
 630 82 l 1
 613 0 l 1
 90 0 l 1
 245 729 l 1
 751 729 l 1
 734 647 l 1
 322 647 l 1
 272 414 l 1
 668 414 l 1
 650 332 l 1
 255 332 l 1
555 791 m 1
 460 791 l 1
 396 939 l 1
 459 939 l 1
 515 841 l 1
 619 939 l 1
 683 939 l 1
 555 791 l 1
EndSplineSet
Ligature: 0 0 'liga' E uni030C
EndChar
StartChar: Edotaccent
Encoding: 274 278 167
Width: 667
Flags: W
HStem: 0 82<201 613> 332 82<272 650> 647 82<245 734>
DStem: 245 729 322 647 90 0 272 414 245 729 255 332 90 0 201 82 481 914 585 914 459 811 563 811
Fore
255 332 m 1
 201 82 l 1
 630 82 l 1
 613 0 l 1
 90 0 l 1
 245 729 l 1
 751 729 l 1
 734 647 l 1
 322 647 l 1
 272 414 l 1
 668 414 l 1
 650 332 l 1
 255 332 l 1
585 914 m 1
 563 811 l 1
 459 811 l 1
 481 914 l 1
 585 914 l 1
EndSplineSet
Ligature: 0 0 'liga' E uni0307
EndChar
StartChar: Eogonek
Encoding: 275 280 168
Width: 667
Flags: W
HStem: -205 45<540 557> 0 82<201 542> 332 82<272 650> 647 82<245 734>
VStem: 412 75<-130 -116>
DStem: 245 729 322 647 90 0 272 414 245 729 255 332 90 0 201 82
Fore
255 332 m 1
 201 82 l 1
 630 82 l 1
 613 0 l 1
 551 -29 539 -37 522 -52 c 0
 499 -73 487 -94 487 -116 c 0
 487 -142 514 -160 555 -160 c 0
 579 -160 603 -157 623 -150 c 1
 614 -195 l 1
 572 -204 565 -205 542 -205 c 0
 462 -205 412 -176 412 -130 c 0
 412 -96 434 -59 469 -35 c 0
 489 -21 505 -14 542 0 c 1
 90 0 l 1
 245 729 l 1
 751 729 l 1
 734 647 l 1
 322 647 l 1
 272 414 l 1
 668 414 l 1
 650 332 l 1
 255 332 l 1
EndSplineSet
Ligature: 0 0 'liga' E uni0328
EndChar
StartChar: Gbreve
Encoding: 276 286 169
Width: 778
Flags: W
HStem: -23 81<378 411> 303 82<488 693> 660 81<524 557> 793 72<563 580>
VStem: 109 96<259 282> 438 58<892 915> 718 91<508 527>
Fore
793 385 m 1
 710 -4 l 1
 651 -4 l 1
 647 86 l 1
 609 54 590 40 566 26 c 0
 512 -5 443 -23 378 -23 c 0
 310 -23 245 -2 199 36 c 0
 143 81 109 167 109 261 c 0
 109 391 167 527 263 623 c 0
 341 701 439 741 555 741 c 0
 712 741 809 658 809 525 c 2
 809 519 l 1
 809 515 l 1
 809 508 l 1
 718 508 l 1
 717 554 707 581 681 607 c 0
 648 642 598 660 537 660 c 0
 440 660 354 617 293 538 c 0
 240 468 205 365 205 277 c 0
 205 220 219 167 242 132 c 0
 273 86 337 58 411 58 c 0
 480 58 538 79 592 123 c 0
 643 165 672 211 687 277 c 2
 693 303 l 1
 471 303 l 1
 489 385 l 1
 793 385 l 1
443 928 m 1
 496 928 l 1
 496 920 l 1
 496 915 l 2
 496 885 529 865 578 865 c 0
 637 865 678 888 688 928 c 1
 744 928 l 1
 733 884 722 863 698 842 c 0
 665 812 614 793 565 793 c 0
 490 793 438 833 438 892 c 0
 438 901 439 909 443 928 c 1
EndSplineSet
Ligature: 0 0 'liga' G uni0306
EndChar
StartChar: Idieresis
Encoding: 277 207 170
Width: 278
Flags: W
HStem: 0 21G<100 194> 709 20G<255 349> 804 103<201 284 362 445>
DStem: 202 907 306 907 180 804 284 804 255 729 349 729 100 0 194 0 363 907 467 907 341 804 445 804
Fore
349 729 m 1
 194 0 l 1
 100 0 l 1
 255 729 l 1
 349 729 l 1
306 907 m 1
 284 804 l 1
 180 804 l 1
 202 907 l 1
 306 907 l 1
467 907 m 1
 445 804 l 1
 341 804 l 1
 363 907 l 1
 467 907 l 1
EndSplineSet
Ligature: 0 0 'liga' I uni0308
EndChar
StartChar: Iacute
Encoding: 278 205 171
Width: 278
Flags: W
HStem: 0 21G<100 194> 709 20G<255 349>
DStem: 255 729 349 729 100 0 194 0
Fore
349 729 m 1
 194 0 l 1
 100 0 l 1
 255 729 l 1
 349 729 l 1
367 939 m 1
 479 939 l 1
 299 791 l 1
 239 791 l 1
 367 939 l 1
EndSplineSet
Ligature: 0 0 'liga' I acutecomb
EndChar
StartChar: Igrave
Encoding: 279 204 172
Width: 278
Flags: W
HStem: 0 21G<100 194> 709 20G<255 349>
DStem: 255 729 349 729 100 0 194 0
Fore
349 729 m 1
 194 0 l 1
 100 0 l 1
 255 729 l 1
 349 729 l 1
306 939 m 1
 378 791 l 1
 325 791 l 1
 200 939 l 1
 306 939 l 1
EndSplineSet
Ligature: 0 0 'liga' I gravecomb
EndChar
StartChar: Icircumflex
Encoding: 280 206 173
Width: 278
Flags: W
HStem: 0 21G<100 194> 709 20G<255 349>
DStem: 255 729 349 729 100 0 194 0
Fore
349 729 m 1
 194 0 l 1
 100 0 l 1
 255 729 l 1
 349 729 l 1
295 940 m 1
 390 940 l 1
 454 790 l 1
 391 790 l 1
 335 889 l 1
 231 790 l 1
 167 790 l 1
 295 940 l 1
EndSplineSet
Ligature: 0 0 'liga' I uni0302
EndChar
StartChar: Idotaccent
Encoding: 281 304 174
Width: 278
Flags: W
HStem: 0 21G<100 194> 709 20G<255 349>
DStem: 255 729 349 729 100 0 194 0 285 914 389 914 263 811 367 811
Fore
349 729 m 1
 194 0 l 1
 100 0 l 1
 255 729 l 1
 349 729 l 1
389 914 m 1
 367 811 l 1
 263 811 l 1
 285 914 l 1
 389 914 l 1
EndSplineSet
Ligature: 0 0 'liga' I uni0307
EndChar
StartChar: Lacute
Encoding: 282 313 175
Width: 556
Flags: W
HStem: 0 82<191 534> 709 20G<235 329>
DStem: 235 729 329 729 80 0 191 82
Fore
329 729 m 1
 191 82 l 1
 551 82 l 1
 534 0 l 1
 80 0 l 1
 235 729 l 1
 329 729 l 1
368 939 m 1
 480 939 l 1
 300 791 l 1
 240 791 l 1
 368 939 l 1
EndSplineSet
Ligature: 0 0 'liga' L acutecomb
EndChar
StartChar: Lcaron
Encoding: 283 317 176
Width: 556
Flags: W
HStem: 0 82<191 534> 505 38<381 391> 709 20G<235 329 429 529>
DStem: 235 729 329 729 80 0 191 82
Fore
329 729 m 1
 191 82 l 1
 551 82 l 1
 534 0 l 1
 80 0 l 1
 235 729 l 1
 329 729 l 1
429 729 m 1
 529 729 l 1
 510 636 l 1
 492 554 444 505 381 505 c 1
 389 543 l 1
 428 543 452 572 463 631 c 1
 408 631 l 1
 429 729 l 1
EndSplineSet
Ligature: 0 0 'liga' L uni030C
EndChar
StartChar: Nacute
Encoding: 284 323 177
Width: 722
Flags: W
HStem: 0 21G<76 165 540 646> 709 20G<231 335 712 801>
DStem: 231 729 291 591 76 0 165 0 291 591 335 729 540 0 585 131 712 729 801 729 585 131 646 0
Fore
801 729 m 1
 646 0 l 1
 540 0 l 1
 291 591 l 1
 165 0 l 1
 76 0 l 1
 231 729 l 1
 335 729 l 1
 585 131 l 1
 712 729 l 1
 801 729 l 1
594 939 m 1
 706 939 l 1
 526 791 l 1
 466 791 l 1
 594 939 l 1
EndSplineSet
Ligature: 0 0 'liga' N acutecomb
EndChar
StartChar: Ncaron
Encoding: 285 327 178
Width: 722
Flags: W
HStem: 0 21G<76 165 540 646> 709 20G<231 335 712 801>
DStem: 231 729 291 591 76 0 165 0 291 591 335 729 540 0 585 131 712 729 801 729 585 131 646 0
Fore
801 729 m 1
 646 0 l 1
 540 0 l 1
 291 591 l 1
 165 0 l 1
 76 0 l 1
 231 729 l 1
 335 729 l 1
 585 131 l 1
 712 729 l 1
 801 729 l 1
570 791 m 1
 475 791 l 1
 411 939 l 1
 474 939 l 1
 530 841 l 1
 634 939 l 1
 698 939 l 1
 570 791 l 1
EndSplineSet
Ligature: 0 0 'liga' N uni030C
EndChar
StartChar: Ntilde
Encoding: 286 209 179
Width: 722
Flags: W
HStem: 0 21G<76 165 540 646> 709 20G<231 335 712 801> 811 70<612 623> 843 70<475 493>
DStem: 231 729 291 591 76 0 165 0 291 591 335 729 540 0 585 131 712 729 801 729 585 131 646 0
Fore
801 729 m 1xc0
 646 0 l 1
 540 0 l 1
 291 591 l 1
 165 0 l 1
 76 0 l 1
 231 729 l 1
 335 729 l 1
 585 131 l 1
 712 729 l 1
 801 729 l 1xc0
669 918 m 1
 722 918 l 1
 701 853 659 811 614 811 c 0xe0
 592 811 575 815 511 837 c 0
 500 841 490 843 484 843 c 0
 465 843 453 837 441 819 c 0
 439 817 437 814 434 810 c 1
 381 810 l 1
 393 845 401 862 413 877 c 0
 429 898 460 913 485 913 c 0xd0
 502 913 519 909 558 896 c 0
 584 887 611 881 621 881 c 0xe0
 641 881 651 889 669 918 c 1
EndSplineSet
Ligature: 0 0 'liga' N tildecomb
EndChar
StartChar: Odieresis
Encoding: 287 214 180
Width: 778
Flags: W
HStem: -23 81<389 409> 660 81<519 539> 811 103<445 528 606 689>
VStem: 104 96<248 282> 732 96<440 466>
DStem: 446 914 550 914 424 811 528 811 607 914 711 914 585 811 689 811
Fore
537 741 m 0
 628 741 707 713 756 664 c 0
 800 619 828 543 828 464 c 0
 828 306 752 144 635 54 c 0
 570 4 485 -23 391 -23 c 0
 306 -23 225 6 177 54 c 0
 131 100 104 177 104 263 c 0
 104 390 157 522 246 614 c 0
 327 699 424 741 537 741 c 0
525 660 m 0
 431 660 342 613 284 533 c 0
 231 460 200 363 200 271 c 0
 200 213 214 164 241 130 c 0
 276 86 339 58 404 58 c 0
 501 58 589 104 647 185 c 0
 700 257 732 355 732 446 c 0
 732 505 718 553 691 588 c 0
 657 632 593 660 525 660 c 0
550 914 m 1
 528 811 l 1
 424 811 l 1
 446 914 l 1
 550 914 l 1
711 914 m 1
 689 811 l 1
 585 811 l 1
 607 914 l 1
 711 914 l 1
EndSplineSet
KernsSLIF: 89 -71 0 0 88 -52 0 0 87 -25 0 0 86 -48 0 0 84 -54 0 0 65 -43 0 0
Ligature: 0 0 'liga' O uni0308
EndChar
StartChar: Oacute
Encoding: 288 211 181
Width: 778
Flags: W
HStem: -23 81<389 409> 660 81<519 539>
VStem: 104 96<248 282> 732 96<440 466>
Fore
537 741 m 0
 628 741 707 713 756 664 c 0
 800 619 828 543 828 464 c 0
 828 306 752 144 635 54 c 0
 570 4 485 -23 391 -23 c 0
 306 -23 225 6 177 54 c 0
 131 100 104 177 104 263 c 0
 104 390 157 522 246 614 c 0
 327 699 424 741 537 741 c 0
525 660 m 0
 431 660 342 613 284 533 c 0
 231 460 200 363 200 271 c 0
 200 213 214 164 241 130 c 0
 276 86 339 58 404 58 c 0
 501 58 589 104 647 185 c 0
 700 257 732 355 732 446 c 0
 732 505 718 553 691 588 c 0
 657 632 593 660 525 660 c 0
621 939 m 1
 733 939 l 1
 553 791 l 1
 493 791 l 1
 621 939 l 1
EndSplineSet
KernsSLIF: 89 -71 0 0 87 -25 0 0 86 -48 0 0 84 -54 0 0 65 -43 0 0
Ligature: 0 0 'liga' O acutecomb
EndChar
StartChar: Ograve
Encoding: 289 210 182
Width: 778
Flags: W
HStem: -23 81<389 409> 660 81<519 541>
VStem: 104 96<248 282> 732 96<440 466>
Fore
537 741 m 0
 628 741 707 713 756 664 c 0
 800 619 828 543 828 464 c 0
 828 306 752 144 635 54 c 0
 570 4 485 -23 391 -23 c 0
 306 -23 225 6 177 54 c 0
 131 100 104 177 104 263 c 0
 104 390 157 522 246 614 c 0
 327 699 424 741 537 741 c 0
525 660 m 0
 431 660 342 613 284 533 c 0
 231 460 200 363 200 271 c 0
 200 213 214 164 241 130 c 0
 276 86 339 58 404 58 c 0
 501 58 589 104 647 185 c 0
 700 257 732 355 732 446 c 0
 732 505 718 553 691 588 c 0
 657 632 593 660 525 660 c 0
538 939 m 1
 610 791 l 1
 557 791 l 1
 432 939 l 1
 538 939 l 1
EndSplineSet
KernsSLIF: 89 -71 0 0 86 -48 0 0 84 -54 0 0
Ligature: 0 0 'liga' O gravecomb
EndChar
StartChar: Ocircumflex
Encoding: 290 212 183
Width: 778
Flags: W
HStem: -23 81<389 413> 660 81<519 541>
VStem: 104 96<248 282> 732 96<440 466>
Fore
537 741 m 0
 628 741 707 713 756 664 c 0
 800 619 828 543 828 464 c 0
 828 306 752 144 635 54 c 0
 570 4 485 -23 391 -23 c 0
 306 -23 225 6 177 54 c 0
 131 100 104 177 104 263 c 0
 104 390 157 522 246 614 c 0
 327 699 424 741 537 741 c 0
525 660 m 0
 431 660 342 613 284 533 c 0
 231 460 200 363 200 271 c 0
 200 213 214 164 241 130 c 0
 276 86 339 58 404 58 c 0
 501 58 589 104 647 185 c 0
 700 257 732 355 732 446 c 0
 732 505 718 553 691 588 c 0
 657 632 593 660 525 660 c 0
538 940 m 1
 633 940 l 1
 697 790 l 1
 634 790 l 1
 578 889 l 1
 474 790 l 1
 410 790 l 1
 538 940 l 1
EndSplineSet
KernsSLIF: 89 -71 0 0 86 -48 0 0 84 -54 0 0
Ligature: 0 0 'liga' O uni0302
EndChar
StartChar: Otilde
Encoding: 291 213 184
Width: 778
Flags: W
HStem: -23 81<389 408> 660 81<507 539> 811 70<636 650> 843 70<503 512>
VStem: 104 96<248 282> 732 96<440 466>
Fore
537 741 m 0xcc
 628 741 707 713 756 664 c 0
 800 619 828 543 828 464 c 0
 828 306 752 144 635 54 c 0
 570 4 485 -23 391 -23 c 0
 306 -23 225 6 177 54 c 0
 131 100 104 177 104 263 c 0
 104 390 157 522 246 614 c 0
 327 699 424 741 537 741 c 0xcc
525 660 m 0
 431 660 342 613 284 533 c 0
 231 460 200 363 200 271 c 0
 200 213 214 164 241 130 c 0
 276 86 339 58 404 58 c 0
 501 58 589 104 647 185 c 0
 700 257 732 355 732 446 c 0
 732 505 718 553 691 588 c 0
 657 632 593 660 525 660 c 0
694 918 m 1
 747 918 l 1
 726 853 684 811 639 811 c 0xec
 617 811 600 815 536 837 c 0
 525 841 515 843 509 843 c 0
 490 843 478 837 466 819 c 0
 464 817 462 814 459 810 c 1
 406 810 l 1
 418 845 426 862 438 877 c 0
 454 898 485 913 510 913 c 0xdc
 527 913 544 909 583 896 c 0
 609 887 636 881 646 881 c 0xec
 666 881 676 889 694 918 c 1
EndSplineSet
KernsSLIF: 89 -71 0 0 86 -48 0 0 84 -54 0 0
Ligature: 0 0 'liga' O tildecomb
EndChar
StartChar: Ohungarumlaut
Encoding: 292 336 185
Width: 778
Flags: W
HStem: -23 81<389 409> 660 81<519 539>
VStem: 104 96<248 282> 732 96<440 466>
Fore
537 741 m 0
 628 741 707 713 756 664 c 0
 800 619 828 543 828 464 c 0
 828 306 752 144 635 54 c 0
 570 4 485 -23 391 -23 c 0
 306 -23 225 6 177 54 c 0
 131 100 104 177 104 263 c 0
 104 390 157 522 246 614 c 0
 327 699 424 741 537 741 c 0
525 660 m 0
 431 660 342 613 284 533 c 0
 231 460 200 363 200 271 c 0
 200 213 214 164 241 130 c 0
 276 86 339 58 404 58 c 0
 501 58 589 104 647 185 c 0
 700 257 732 355 732 446 c 0
 732 505 718 553 691 588 c 0
 657 632 593 660 525 660 c 0
555 939 m 1
 667 939 l 1
 487 789 l 1
 427 789 l 1
 555 939 l 1
729 939 m 1
 841 939 l 1
 661 789 l 1
 601 789 l 1
 729 939 l 1
EndSplineSet
Ligature: 0 0 'liga' O uni030B
EndChar
StartChar: Racute
Encoding: 293 340 186
Width: 722
Flags: W
HStem: 0 21G<93 187 566 679> 314 82<271 511> 647 82<248 586>
VStem: 562 101<47 76> 594 96<239 264> 674 96<556 575>
DStem: 248 729 325 647 93 0 271 396 248 729 254 314 93 0 187 0
Fore
254 314 m 1xe8
 187 0 l 1
 93 0 l 1
 248 729 l 1
 584 729 l 2
 712 729 770 681 770 575 c 0xe4
 770 513 743 446 703 409 c 0
 685 393 669 382 630 360 c 1
 677 329 690 308 690 264 c 0xe8
 690 246 682 194 669 126 c 0
 665 105 663 88 663 76 c 0
 663 54 671 35 684 23 c 1
 679 0 l 1
 566 0 l 1
 563 21 562 32 562 47 c 0xf0
 562 79 562 79 586 179 c 0
 591 201 594 222 594 239 c 0
 594 288 558 314 493 314 c 2
 254 314 l 1xe8
271 396 m 1
 502 396 l 2
 566 396 608 413 637 449 c 0
 659 477 674 521 674 558 c 0
 674 582 666 605 653 619 c 0
 634 640 608 647 555 647 c 2
 325 647 l 1
 271 396 l 1
577 939 m 1
 689 939 l 1
 509 791 l 1
 449 791 l 1
 577 939 l 1
EndSplineSet
Ligature: 0 0 'liga' R acutecomb
EndChar
StartChar: Rcaron
Encoding: 294 344 187
Width: 722
Flags: W
HStem: 0 21G<93 187 566 679> 314 82<271 510> 647 82<248 586>
VStem: 562 101<47 76> 594 96<239 264> 674 96<556 575>
DStem: 248 729 325 647 93 0 271 396 248 729 254 314 93 0 187 0
Fore
254 314 m 1xe8
 187 0 l 1
 93 0 l 1
 248 729 l 1
 584 729 l 2
 712 729 770 681 770 575 c 0xe4
 770 513 743 446 703 409 c 0
 685 393 669 382 630 360 c 1
 677 329 690 308 690 264 c 0xe8
 690 246 682 194 669 126 c 0
 665 105 663 88 663 76 c 0
 663 54 671 35 684 23 c 1
 679 0 l 1
 566 0 l 1
 563 21 562 32 562 47 c 0xf0
 562 79 562 79 586 179 c 0
 591 201 594 222 594 239 c 0
 594 288 558 314 493 314 c 2
 254 314 l 1xe8
271 396 m 1
 502 396 l 2
 566 396 608 413 637 449 c 0
 659 477 674 521 674 558 c 0
 674 582 666 605 653 619 c 0
 634 640 608 647 555 647 c 2
 325 647 l 1
 271 396 l 1
556 791 m 1
 461 791 l 1
 397 939 l 1
 460 939 l 1
 516 841 l 1
 620 939 l 1
 684 939 l 1
 556 791 l 1
EndSplineSet
Ligature: 0 0 'liga' R uni030C
EndChar
StartChar: Sacute
Encoding: 295 346 188
Width: 667
Flags: W
HStem: -23 81<317 362> 660 81<456 498>
VStem: 89 92<169 191> 178 96<492 518> 573 96<209 237> 622 92<551 571>
Fore
706 515 m 1xd4
 618 515 l 1
 621 535 622 542 622 551 c 0
 622 580 609 612 590 629 c 0
 568 649 526 660 470 660 c 0
 404 660 355 644 318 611 c 0
 289 584 274 553 274 518 c 0xd4
 274 474 298 454 375 432 c 2
 547 383 l 2
 594 370 623 350 645 315 c 0
 660 291 669 263 669 237 c 0
 669 181 633 108 582 61 c 0
 523 6 435 -23 330 -23 c 0
 179 -23 89 49 89 169 c 0
 89 190 91 206 98 232 c 1
 185 232 l 1
 182 213 181 204 181 191 c 0
 181 100 233 58 346 58 c 0
 426 58 485 77 526 114 c 0
 554 140 573 178 573 209 c 0xe8
 573 257 540 286 460 309 c 2
 289 357 l 2
 222 376 178 429 178 492 c 0
 178 543 209 614 250 656 c 0
 304 712 385 741 488 741 c 0
 566 741 619 725 660 689 c 0
 693 660 714 614 714 571 c 0
 714 556 712 543 706 515 c 1xd4
566 939 m 1
 678 939 l 1
 498 791 l 1
 438 791 l 1
 566 939 l 1
EndSplineSet
Ligature: 0 0 'liga' S acutecomb
EndChar
StartChar: Scaron
Encoding: 296 352 189
Width: 667
Flags: W
HStem: -23 81<317 362> 660 81<456 490>
VStem: 89 92<169 191> 178 96<492 518> 573 96<209 237> 622 92<551 571>
Fore
706 515 m 1xd4
 618 515 l 1
 621 535 622 542 622 551 c 0
 622 580 609 612 590 629 c 0
 568 649 526 660 470 660 c 0
 404 660 355 644 318 611 c 0
 289 584 274 553 274 518 c 0xd4
 274 474 298 454 375 432 c 2
 547 383 l 2
 594 370 623 350 645 315 c 0
 660 291 669 263 669 237 c 0
 669 181 633 108 582 61 c 0
 523 6 435 -23 330 -23 c 0
 179 -23 89 49 89 169 c 0
 89 190 91 206 98 232 c 1
 185 232 l 1
 182 213 181 204 181 191 c 0
 181 100 233 58 346 58 c 0
 426 58 485 77 526 114 c 0
 554 140 573 178 573 209 c 0xe8
 573 257 540 286 460 309 c 2
 289 357 l 2
 222 376 178 429 178 492 c 0
 178 543 209 614 250 656 c 0
 304 712 385 741 488 741 c 0
 566 741 619 725 660 689 c 0
 693 660 714 614 714 571 c 0
 714 556 712 543 706 515 c 1xd4
547 791 m 1
 452 791 l 1
 388 939 l 1
 451 939 l 1
 507 841 l 1
 611 939 l 1
 675 939 l 1
 547 791 l 1
EndSplineSet
Ligature: 0 0 'liga' S uni030C
EndChar
StartChar: Scedilla
Encoding: 297 350 190
Width: 667
Flags: W
HStem: -214 43<250 281> -94 40<299 341> -22 80<338 362> 660 81<456 490>
VStem: 89 92<169 191> 178 96<492 518> 330 78<-119 -105> 573 96<209 237> 622 92<551 571>
DStem: 296 -22 338 -22 259 -92 320 -56
Fore
338 -22 m 1xf7
 320 -56 l 1
 333 -54 336 -54 341 -54 c 0
 378 -54 408 -77 408 -105 c 0
 408 -168 347 -214 263 -214 c 0
 225 -214 197 -206 145 -180 c 1
 173 -142 l 1
 213 -163 239 -171 267 -171 c 0
 304 -171 330 -148 330 -116 c 0
 330 -104 315 -94 299 -94 c 0
 294 -94 294 -94 279 -97 c 2
 272 -98 l 1
 259 -92 l 1
 296 -22 l 1
 227 -13 199 -4 169 15 c 0
 118 49 89 105 89 169 c 0
 89 190 91 206 98 232 c 1
 185 232 l 1
 182 213 181 204 181 191 c 0
 181 100 233 58 346 58 c 0
 426 58 485 77 526 114 c 0
 554 140 573 179 573 209 c 0xfb
 573 257 540 286 460 309 c 2
 289 357 l 2
 222 376 178 429 178 492 c 0
 178 543 209 614 250 656 c 0
 304 712 385 741 488 741 c 0
 566 741 619 725 660 689 c 0
 693 660 714 614 714 571 c 0
 714 555 712 543 706 515 c 1
 618 515 l 1
 621 535 622 543 622 551 c 0xf680
 622 579 609 612 590 629 c 0
 568 649 526 660 470 660 c 0
 404 660 355 644 318 611 c 0
 289 584 274 553 274 518 c 0
 274 474 298 454 375 432 c 2
 547 383 l 2
 594 370 623 350 645 315 c 0
 660 291 669 263 669 237 c 0
 669 165 616 78 545 32 c 0
 489 -4 422 -22 338 -22 c 1xf7
EndSplineSet
Ligature: 0 0 'liga' S uni0327
EndChar
StartChar: Tcaron
Encoding: 298 356 191
Width: 611
Flags: W
HStem: 0 21G<261 355> 647 82<174 399 175 731>
DStem: 399 647 493 647 261 0 355 0
Fore
493 647 m 1
 355 0 l 1
 261 0 l 1
 399 647 l 1
 158 647 l 1
 175 729 l 1
 748 729 l 1
 731 647 l 1
 493 647 l 1
524 791 m 1
 429 791 l 1
 365 939 l 1
 428 939 l 1
 484 841 l 1
 588 939 l 1
 652 939 l 1
 524 791 l 1
EndSplineSet
Ligature: 0 0 'liga' T uni030C
EndChar
StartChar: Udieresis
Encoding: 299 220 192
Width: 722
Flags: W
HStem: -23 81<361 383> 709 20G<240 334 706 800> 811 103<427 509 588 670>
VStem: 124 96<155 174>
DStem: 240 729 334 729 138 251 225 217 428 914 532 914 406 811 509 811 589 914 693 914 567 811 670 811 706 729 800 729 597 217 691 217
Fore
532 914 m 1
 509 811 l 1
 406 811 l 1
 428 914 l 1
 532 914 l 1
693 914 m 1
 670 811 l 1
 567 811 l 1
 589 914 l 1
 693 914 l 1
706 729 m 1
 800 729 l 1
 691 217 l 2
 660 71 531 -23 363 -23 c 0
 286 -23 220 -2 179 35 c 0
 147 64 124 114 124 155 c 0
 124 171 131 217 138 251 c 1
 240 729 l 1
 334 729 l 1
 225 217 l 2
 222 202 220 187 220 174 c 0
 220 104 285 58 381 58 c 0
 494 58 576 118 597 217 c 2
 706 729 l 1
EndSplineSet
KernsSLIF: 114 -16 0 0 46 -32 0 0 112 -8 0 0 110 -16 0 0 109 -17 0 0 44 -35 0 0 98 -8 0 0 65 -44 0 0
Ligature: 0 0 'liga' U uni0308
EndChar
StartChar: Uacute
Encoding: 300 218 193
Width: 722
Flags: W
HStem: -23 81<361 383> 709 20G<240 334 706 800>
VStem: 124 96<155 174>
DStem: 240 729 334 729 138 251 225 217 706 729 800 729 597 217 691 217
Fore
591 939 m 1
 703 939 l 1
 523 791 l 1
 463 791 l 1
 591 939 l 1
706 729 m 1
 800 729 l 1
 691 217 l 2
 660 71 531 -23 363 -23 c 0
 286 -23 220 -2 179 35 c 0
 147 64 124 114 124 155 c 0
 124 171 131 217 138 251 c 1
 240 729 l 1
 334 729 l 1
 225 217 l 2
 222 202 220 187 220 174 c 0
 220 104 285 58 381 58 c 0
 494 58 576 118 597 217 c 2
 706 729 l 1
EndSplineSet
KernsSLIF: 114 -16 0 0 46 -32 0 0 112 -8 0 0 110 -16 0 0 109 -17 0 0 44 -35 0 0 65 -45 0 0
Ligature: 0 0 'liga' U acutecomb
EndChar
StartChar: Ugrave
Encoding: 301 217 194
Width: 722
Flags: W
HStem: -23 81<361 383> 709 20G<240 334 706 800>
VStem: 124 96<155 174>
DStem: 240 729 334 729 138 251 225 217 706 729 800 729 597 217 691 217
Fore
514 939 m 1
 586 791 l 1
 532 791 l 1
 408 939 l 1
 514 939 l 1
706 729 m 1
 800 729 l 1
 691 217 l 2
 660 71 531 -23 363 -23 c 0
 286 -23 220 -2 179 35 c 0
 147 64 124 114 124 155 c 0
 124 171 131 217 138 251 c 1
 240 729 l 1
 334 729 l 1
 225 217 l 2
 222 202 220 187 220 174 c 0
 220 104 285 58 381 58 c 0
 494 58 576 118 597 217 c 2
 706 729 l 1
EndSplineSet
KernsSLIF: 65 -45 0 0
Ligature: 0 0 'liga' U gravecomb
EndChar
StartChar: Ucircumflex
Encoding: 302 219 195
Width: 722
Flags: W
HStem: -23 81<361 391> 709 20G<240 334 706 800>
VStem: 124 96<155 174>
DStem: 240 729 334 729 138 251 225 217 706 729 800 729 597 217 691 217
Fore
517 940 m 1
 611 940 l 1
 676 790 l 1
 612 790 l 1
 556 889 l 1
 453 790 l 1
 389 790 l 1
 517 940 l 1
706 729 m 1
 800 729 l 1
 691 217 l 2
 660 71 531 -23 363 -23 c 0
 286 -23 220 -2 179 35 c 0
 147 64 124 114 124 155 c 0
 124 171 131 217 138 251 c 1
 240 729 l 1
 334 729 l 1
 225 217 l 2
 222 202 220 187 220 174 c 0
 220 104 285 58 381 58 c 0
 494 58 576 118 597 217 c 2
 706 729 l 1
EndSplineSet
KernsSLIF: 65 -45 0 0
Ligature: 0 0 'liga' U uni0302
EndChar
StartChar: Uring
Encoding: 303 366 196
Width: 722
Flags: W
HStem: -23 81<361 383> 709 20G<240 334 706 800> 778 44<530 542> 909 44<555 569>
VStem: 124 96<155 174> 459 46<847 859> 594 45<872 886>
DStem: 240 729 334 729 138 251 225 217 706 729 800 729 597 217 691 217
Fore
706 729 m 1
 800 729 l 1
 691 217 l 2
 660 71 531 -23 363 -23 c 0
 286 -23 220 -2 179 35 c 0
 147 64 124 114 124 155 c 0
 124 171 131 217 138 251 c 1
 240 729 l 1
 334 729 l 1
 225 217 l 2
 222 202 220 187 220 174 c 0
 220 104 285 58 381 58 c 0
 494 58 576 118 597 217 c 2
 706 729 l 1
567 953 m 0
 608 953 639 924 639 886 c 0
 639 830 587 778 530 778 c 0
 490 778 459 809 459 848 c 0
 459 901 513 953 567 953 c 0
560 909 m 0
 532 909 505 883 505 857 c 0
 505 836 520 822 540 822 c 0
 567 822 594 848 594 874 c 0
 594 894 579 909 560 909 c 0
EndSplineSet
Ligature: 0 0 'liga' U uni030A
EndChar
StartChar: Uhungarumlaut
Encoding: 304 368 197
Width: 722
Flags: W
HStem: -23 81<361 392> 709 20G<240 334 706 800>
VStem: 124 96<155 174>
DStem: 240 729 334 729 138 251 225 217 706 729 800 729 597 217 691 217
Fore
706 729 m 1
 800 729 l 1
 691 217 l 2
 660 71 531 -23 363 -23 c 0
 286 -23 220 -2 179 35 c 0
 147 64 124 114 124 155 c 0
 124 171 131 217 138 251 c 1
 240 729 l 1
 334 729 l 1
 225 217 l 2
 222 202 220 187 220 174 c 0
 220 104 285 58 381 58 c 0
 494 58 576 118 597 217 c 2
 706 729 l 1
520 939 m 1
 632 939 l 1
 452 789 l 1
 392 789 l 1
 520 939 l 1
694 939 m 1
 806 939 l 1
 626 789 l 1
 566 789 l 1
 694 939 l 1
EndSplineSet
Ligature: 0 0 'liga' U uni030B
EndChar
StartChar: Yacute
Encoding: 305 221 198
Width: 667
Flags: W
HStem: 0 21G<293 387> 709 20G<168 280 705 816>
DStem: 354 286 448 286 293 0 387 0 705 729 816 729 416 372 448 286
Fore
448 286 m 1
 387 0 l 1
 293 0 l 1
 354 286 l 1
 168 729 l 1
 280 729 l 1
 416 372 l 1
 705 729 l 1
 816 729 l 1
 448 286 l 1
564 939 m 1
 676 939 l 1
 496 791 l 1
 436 791 l 1
 564 939 l 1
EndSplineSet
MinimumDistance: x4,8 
Ligature: 0 0 'liga' Y acutecomb
EndChar
StartChar: Zacute
Encoding: 306 377 199
Width: 611
Flags: W
HStem: 0 82<163 584> 647 82<211 601>
DStem: 601 647 719 645 46 84 163 82
Fore
737 729 m 1
 719 645 l 1
 163 82 l 1
 601 82 l 1
 584 0 l 1
 28 0 l 1
 46 84 l 1
 601 647 l 1
 195 647 l 1
 212 729 l 1
 737 729 l 1
552 939 m 1
 664 939 l 1
 484 791 l 1
 424 791 l 1
 552 939 l 1
EndSplineSet
Ligature: 0 0 'liga' Z acutecomb
EndChar
StartChar: Zcaron
Encoding: 307 381 200
Width: 611
Flags: W
HStem: 0 82<163 584> 647 82<211 601>
DStem: 601 647 719 645 46 84 163 82
Fore
737 729 m 1
 719 645 l 1
 163 82 l 1
 601 82 l 1
 584 0 l 1
 28 0 l 1
 46 84 l 1
 601 647 l 1
 195 647 l 1
 212 729 l 1
 737 729 l 1
531 791 m 1
 436 791 l 1
 372 939 l 1
 435 939 l 1
 491 841 l 1
 595 939 l 1
 659 939 l 1
 531 791 l 1
EndSplineSet
Ligature: 0 0 'liga' Z uni030C
EndChar
StartChar: Zdotaccent
Encoding: 308 379 201
Width: 611
Flags: W
HStem: 0 82<163 584> 647 82<211 601>
DStem: 458 914 562 914 436 811 540 811 601 647 719 645 46 84 163 82
Fore
737 729 m 1
 719 645 l 1
 163 82 l 1
 601 82 l 1
 584 0 l 1
 28 0 l 1
 46 84 l 1
 601 647 l 1
 195 647 l 1
 212 729 l 1
 737 729 l 1
562 914 m 1
 540 811 l 1
 436 811 l 1
 458 914 l 1
 562 914 l 1
EndSplineSet
Ligature: 0 0 'liga' Z uni0307
EndChar
StartChar: Amacron
Encoding: 309 256 202
Width: 667
Flags: W
HStem: 0 21G<17 116 551 653> 219 78<283 524> 709 20G<432 552> 826 69<387 648>
DStem: 432 729 474 630 17 0 283 297 432 729 239 219 17 0 116 0
Fore
524 219 m 1
 239 219 l 1
 116 0 l 1
 17 0 l 1
 432 729 l 1
 552 729 l 1
 653 0 l 1
 551 0 l 1
 524 219 l 1
514 297 m 1
 474 630 l 1
 283 297 l 1
 514 297 l 1
663 895 m 1
 648 826 l 1
 373 826 l 1
 388 895 l 1
 663 895 l 1
EndSplineSet
Ligature: 0 0 'liga' A uni0304
EndChar
StartChar: Tcommaaccent
Encoding: 310 354 203
Width: 611
Flags: W
HStem: -284 38<196 206> 0 21G<261 355> 647 82<174 399 175 731>
DStem: 399 647 493 647 261 0 355 0
Fore
493 647 m 1
 355 0 l 1
 261 0 l 1
 399 647 l 1
 158 647 l 1
 175 729 l 1
 748 729 l 1
 731 647 l 1
 493 647 l 1
244 -60 m 1
 344 -60 l 1
 325 -153 l 1
 307 -235 259 -284 196 -284 c 1
 204 -246 l 1
 243 -246 267 -217 278 -158 c 1
 223 -158 l 1
 244 -60 l 1
EndSplineSet
Ligature: 0 0 'liga' T uni0327
EndChar
StartChar: Ydieresis
Encoding: 311 376 204
Width: 667
Flags: W
HStem: 0 21G<293 387> 709 20G<168 280 705 816> 811 103<399 482 560 643>
DStem: 354 286 448 286 293 0 387 0 400 914 504 914 378 811 482 811 561 914 665 914 539 811 643 811 705 729 816 729 416 372 448 286
Fore
448 286 m 1
 387 0 l 1
 293 0 l 1
 354 286 l 1
 168 729 l 1
 280 729 l 1
 416 372 l 1
 705 729 l 1
 816 729 l 1
 448 286 l 1
504 914 m 1
 482 811 l 1
 378 811 l 1
 400 914 l 1
 504 914 l 1
665 914 m 1
 643 811 l 1
 539 811 l 1
 561 914 l 1
 665 914 l 1
EndSplineSet
MinimumDistance: x4,8 
Ligature: 0 0 'liga' Y uni0308
EndChar
StartChar: Emacron
Encoding: 312 274 205
Width: 667
Flags: W
HStem: 0 82<201 613> 332 82<272 650> 647 82<245 734> 826 69<391 652>
DStem: 245 729 322 647 90 0 272 414 245 729 255 332 90 0 201 82
Fore
255 332 m 1
 201 82 l 1
 630 82 l 1
 613 0 l 1
 90 0 l 1
 245 729 l 1
 751 729 l 1
 734 647 l 1
 322 647 l 1
 272 414 l 1
 668 414 l 1
 650 332 l 1
 255 332 l 1
667 895 m 1
 652 826 l 1
 377 826 l 1
 392 895 l 1
 667 895 l 1
EndSplineSet
Ligature: 0 0 'liga' E uni0304
EndChar
StartChar: Imacron
Encoding: 313 298 206
Width: 278
Flags: W
HStem: 0 21G<100 194> 709 20G<255 349> 826 69<210 443>
DStem: 255 729 349 729 100 0 194 0
Fore
349 729 m 1
 194 0 l 1
 100 0 l 1
 255 729 l 1
 349 729 l 1
458 895 m 1
 443 826 l 1
 195 826 l 1
 211 895 l 1
 458 895 l 1
EndSplineSet
Ligature: 0 0 'liga' I uni0304
EndChar
StartChar: Iogonek
Encoding: 314 302 207
Width: 278
Flags: W
HStem: -205 46<143 163> -20 20G<100 135> 709 20G<255 349>
VStem: 28 75<-129 -115>
DStem: 255 729 349 729 100 0 194 0
Fore
349 729 m 1
 194 0 l 1
 189 -4 184 -8 178 -12 c 0
 128 -51 103 -86 103 -115 c 0
 103 -142 127 -159 163 -159 c 0
 178 -159 184 -158 209 -150 c 1
 200 -195 l 1
 176 -203 164 -205 143 -205 c 0
 76 -205 28 -174 28 -129 c 0
 28 -96 43 -71 85 -35 c 0
 103 -20 112 -13 135 0 c 1
 100 0 l 1
 255 729 l 1
 349 729 l 1
EndSplineSet
Ligature: 0 0 'liga' I uni0328
EndChar
StartChar: Kcommaaccent
Encoding: 315 310 208
Width: 667
Flags: W
HStem: -284 38<238 250> 0 21G<79 173 548 658> 709 20G<234 328 693 813>
DStem: 234 729 328 729 79 0 249 356 234 729 226 249 79 0 173 0 693 729 813 729 249 356 452 431 693 729 380 376 249 356 226 249
Fore
226 249 m 1
 173 0 l 1
 79 0 l 1
 234 729 l 1
 328 729 l 1
 249 356 l 1
 693 729 l 1
 813 729 l 1
 452 431 l 1
 658 0 l 1
 548 0 l 1
 380 376 l 1
 226 249 l 1
286 -60 m 1
 386 -60 l 1
 367 -153 l 1
 349 -235 301 -284 238 -284 c 1
 246 -246 l 1
 285 -246 309 -217 320 -158 c 1
 265 -158 l 1
 286 -60 l 1
EndSplineSet
Ligature: 0 0 'liga' K uni0327
EndChar
StartChar: Lcommaaccent
Encoding: 316 315 209
Width: 556
Flags: W
HStem: -284 38<196 209> 0 82<191 534> 709 20G<235 329>
DStem: 235 729 329 729 80 0 191 82
Fore
329 729 m 1
 191 82 l 1
 551 82 l 1
 534 0 l 1
 80 0 l 1
 235 729 l 1
 329 729 l 1
244 -60 m 1
 344 -60 l 1
 325 -153 l 1
 307 -235 259 -284 196 -284 c 1
 204 -246 l 1
 243 -246 267 -217 278 -158 c 1
 223 -158 l 1
 244 -60 l 1
EndSplineSet
Ligature: 0 0 'liga' L uni0327
EndChar
StartChar: Ncommaaccent
Encoding: 317 325 210
Width: 722
Flags: W
HStem: -284 38<234 244> 0 21G<76 165 540 646> 709 20G<231 335 712 801>
DStem: 231 729 291 591 76 0 165 0 291 591 335 729 540 0 585 131 712 729 801 729 585 131 646 0
Fore
801 729 m 1
 646 0 l 1
 540 0 l 1
 291 591 l 1
 165 0 l 1
 76 0 l 1
 231 729 l 1
 335 729 l 1
 585 131 l 1
 712 729 l 1
 801 729 l 1
282 -60 m 1
 382 -60 l 1
 363 -153 l 1
 345 -235 297 -284 234 -284 c 1
 242 -246 l 1
 281 -246 305 -217 316 -158 c 1
 261 -158 l 1
 282 -60 l 1
EndSplineSet
Ligature: 0 0 'liga' N uni0327
EndChar
StartChar: Omacron
Encoding: 318 332 211
Width: 778
Flags: W
HStem: -23 81<389 423> 660 81<519 539> 826 69<437 698>
VStem: 104 96<248 282> 732 96<440 466>
Fore
537 741 m 0
 628 741 707 713 756 664 c 0
 800 619 828 543 828 464 c 0
 828 306 752 144 635 54 c 0
 570 4 485 -23 391 -23 c 0
 306 -23 225 6 177 54 c 0
 131 100 104 177 104 263 c 0
 104 390 157 522 246 614 c 0
 327 699 424 741 537 741 c 0
525 660 m 0
 431 660 342 613 284 533 c 0
 231 460 200 363 200 271 c 0
 200 213 214 164 241 130 c 0
 276 86 339 58 404 58 c 0
 501 58 589 104 647 185 c 0
 700 257 732 355 732 446 c 0
 732 505 718 553 691 588 c 0
 657 632 593 660 525 660 c 0
713 895 m 1
 698 826 l 1
 423 826 l 1
 438 895 l 1
 713 895 l 1
EndSplineSet
Ligature: 0 0 'liga' O uni0304
EndChar
StartChar: Rcommaaccent
Encoding: 319 342 212
Width: 722
Flags: W
HStem: -284 38<262 274> 0 21G<93 187 566 679> 314 82<271 510> 647 82<248 586>
VStem: 562 101<47 76> 594 96<239 264> 674 96<556 575>
DStem: 248 729 325 647 93 0 271 396 248 729 254 314 93 0 187 0
Fore
254 314 m 1xf4
 187 0 l 1
 93 0 l 1
 248 729 l 1
 584 729 l 2
 712 729 770 681 770 575 c 0xf2
 770 513 743 446 703 409 c 0
 685 393 669 382 630 360 c 1
 677 329 690 308 690 264 c 0xf4
 690 246 682 194 669 126 c 0
 665 105 663 88 663 76 c 0
 663 54 671 35 684 23 c 1
 679 0 l 1
 566 0 l 1
 563 21 562 32 562 47 c 0xf8
 562 79 562 79 586 179 c 0
 591 201 594 222 594 239 c 0
 594 288 558 314 493 314 c 2
 254 314 l 1xf4
271 396 m 1
 502 396 l 2
 566 396 608 413 637 449 c 0
 659 477 674 521 674 558 c 0
 674 582 666 605 653 619 c 0
 634 640 608 647 555 647 c 2
 325 647 l 1
 271 396 l 1
310 -60 m 1
 410 -60 l 1
 391 -153 l 1
 373 -235 325 -284 262 -284 c 1
 270 -246 l 1
 309 -246 333 -217 344 -158 c 1
 289 -158 l 1
 310 -60 l 1
EndSplineSet
Ligature: 0 0 'liga' R uni0327
EndChar
StartChar: Gcommaaccent
Encoding: 320 290 213
Width: 778
Flags: W
HStem: -284 38<283 295> -23 81<378 411> 303 82<488 693> 660 81<524 557>
VStem: 109 96<259 279> 718 91<508 527>
Fore
793 385 m 1
 710 -4 l 1
 651 -4 l 1
 647 86 l 1
 609 54 590 40 566 26 c 0
 512 -5 443 -23 378 -23 c 0
 310 -23 245 -2 199 36 c 0
 143 81 109 167 109 261 c 0
 109 391 167 527 263 623 c 0
 341 701 439 741 555 741 c 0
 712 741 809 658 809 525 c 2
 809 519 l 1
 809 515 l 1
 809 508 l 1
 718 508 l 1
 717 554 707 581 681 607 c 0
 648 642 598 660 537 660 c 0
 440 660 354 617 293 538 c 0
 240 468 205 365 205 277 c 0
 205 220 219 167 242 132 c 0
 273 86 337 58 411 58 c 0
 480 58 538 79 592 123 c 0
 643 165 672 211 687 277 c 2
 693 303 l 1
 471 303 l 1
 489 385 l 1
 793 385 l 1
331 -60 m 1
 431 -60 l 1
 412 -153 l 1
 394 -235 346 -284 283 -284 c 1
 291 -246 l 1
 330 -246 354 -217 365 -158 c 1
 310 -158 l 1
 331 -60 l 1
EndSplineSet
Ligature: 0 0 'liga' G uni0327
EndChar
StartChar: Umacron
Encoding: 321 362 214
Width: 722
Flags: W
HStem: -23 81<361 383> 709 20G<240 334 706 800> 826 69<417 677>
VStem: 124 96<155 174>
DStem: 240 729 334 729 138 251 225 217 706 729 800 729 597 217 691 217
Fore
706 729 m 1
 800 729 l 1
 691 217 l 2
 660 71 531 -23 363 -23 c 0
 286 -23 220 -2 179 35 c 0
 147 64 124 114 124 155 c 0
 124 171 131 217 138 251 c 1
 240 729 l 1
 334 729 l 1
 225 217 l 2
 222 202 220 187 220 174 c 0
 220 104 285 58 381 58 c 0
 494 58 576 118 597 217 c 2
 706 729 l 1
692 895 m 1
 677 826 l 1
 403 826 l 1
 418 895 l 1
 692 895 l 1
EndSplineSet
Ligature: 0 0 'liga' U uni0304
EndChar
StartChar: Uogonek
Encoding: 322 370 215
Width: 722
Flags: W
HStem: -205 45<485 516> -23 81<357 397> 709 20G<240 334 706 800>
VStem: 124 96<155 173> 356 75<-127 -114>
DStem: 240 729 334 729 138 251 225 217 706 729 800 729 597 217 691 217
Fore
568 -150 m 1
 559 -195 l 1
 537 -203 519 -205 487 -205 c 0
 403 -205 356 -177 356 -127 c 0
 356 -84 388 -46 453 -13 c 1
 415 -21 397 -23 366 -23 c 0
 285 -23 221 -3 179 35 c 0
 147 64 124 114 124 155 c 0
 124 170 131 218 138 251 c 2
 240 729 l 1
 334 729 l 1
 225 217 l 1
 222 201 220 187 220 173 c 0
 220 104 285 58 381 58 c 0
 494 58 576 118 597 217 c 2
 706 729 l 1
 800 729 l 1
 691 217 l 1
 668 121 624 65 514 -6 c 1
 463 -41 431 -84 431 -116 c 0
 431 -142 457 -160 497 -160 c 0
 524 -160 549 -156 568 -150 c 1
EndSplineSet
Ligature: 0 0 'liga' U uni0328
EndChar
StartChar: adieresis
Encoding: 323 228 216
Width: 556
Flags: W
HStem: -23 72<209 242> 462 77<368 394> 612 103<298 381 459 542>
VStem: 65 88<103 122> 478 90<398 426>
DStem: 299 715 403 715 277 612 381 612 451 258 562 389 431 164 498 88 460 715 564 715 438 612 542 612
Fore
552 51 m 1
 539 -14 l 1
 533 -15 527 -16 525 -17 c 0
 500 -23 497 -23 486 -23 c 0
 438 -23 410 2 410 43 c 2
 410 47 l 1
 410 54 l 1
 369 18 354 8 322 -3 c 0
 286 -16 244 -23 209 -23 c 0
 119 -23 65 25 65 105 c 0
 65 163 95 216 147 249 c 0
 196 280 238 290 372 302 c 0
 445 309 464 320 473 361 c 1
 476 379 l 1
 477 387 478 394 478 398 c 0
 478 435 432 462 372 462 c 0
 329 462 287 447 265 425 c 0
 251 411 244 397 235 369 c 1
 151 369 l 1
 170 480 255 539 394 539 c 0
 499 539 568 494 568 426 c 0
 568 416 568 416 562 389 c 1
 498 88 l 1
 497 85 497 82 497 78 c 0
 497 58 509 49 535 49 c 0
 539 49 543 49 552 51 c 1
431 164 m 2
 451 258 l 1
 407 243 399 242 305 229 c 0
 256 222 226 214 202 199 c 0
 172 181 153 148 153 115 c 0
 153 73 185 49 242 49 c 0
 330 49 418 102 431 164 c 2
403 715 m 1
 381 612 l 1
 277 612 l 1
 299 715 l 1
 403 715 l 1
564 715 m 1
 542 612 l 1
 438 612 l 1
 460 715 l 1
 564 715 l 1
EndSplineSet
KernsSLIF: 121 -33 0 0 119 -16 0 0 118 -26 0 0
Ligature: 0 0 'liga' a uni0308
EndChar
StartChar: aacute
Encoding: 324 225 217
Width: 556
Flags: W
HStem: -23 72<209 242> 462 77<368 394> 720 20G<458 570>
VStem: 65 88<103 122> 478 90<398 426>
DStem: 451 258 562 389 431 164 498 88
Fore
552 51 m 1
 539 -14 l 1
 533 -15 527 -16 525 -17 c 0
 500 -23 497 -23 486 -23 c 0
 438 -23 410 2 410 43 c 2
 410 47 l 1
 410 54 l 1
 369 18 354 8 322 -3 c 0
 286 -16 244 -23 209 -23 c 0
 119 -23 65 25 65 105 c 0
 65 163 95 216 147 249 c 0
 196 280 238 290 372 302 c 0
 445 309 464 320 473 361 c 1
 476 379 l 1
 477 387 478 394 478 398 c 0
 478 435 432 462 372 462 c 0
 329 462 287 447 265 425 c 0
 251 411 244 397 235 369 c 1
 151 369 l 1
 170 480 255 539 394 539 c 0
 499 539 568 494 568 426 c 0
 568 416 568 416 562 389 c 1
 498 88 l 1
 497 85 497 82 497 78 c 0
 497 58 509 49 535 49 c 0
 539 49 543 49 552 51 c 1
431 164 m 2
 451 258 l 1
 407 243 399 242 305 229 c 0
 256 222 226 214 202 199 c 0
 172 181 153 148 153 115 c 0
 153 73 185 49 242 49 c 0
 330 49 418 102 431 164 c 2
458 740 m 1
 570 740 l 1
 390 592 l 1
 330 592 l 1
 458 740 l 1
EndSplineSet
KernsSLIF: 121 -33 0 0 119 -16 0 0 118 -26 0 0
Ligature: 0 0 'liga' a acutecomb
EndChar
StartChar: agrave
Encoding: 325 224 218
Width: 556
Flags: W
HStem: -23 72<209 242> 462 77<368 394> 720 20G<285 391>
VStem: 65 88<103 122> 478 90<398 426>
DStem: 451 258 562 389 431 164 498 88
Fore
552 51 m 1
 539 -14 l 1
 533 -15 527 -16 525 -17 c 0
 500 -23 497 -23 486 -23 c 0
 438 -23 410 2 410 43 c 2
 410 47 l 1
 410 54 l 1
 369 18 354 8 322 -3 c 0
 286 -16 244 -23 209 -23 c 0
 119 -23 65 25 65 105 c 0
 65 163 95 216 147 249 c 0
 196 280 238 290 372 302 c 0
 445 309 464 320 473 361 c 1
 476 379 l 1
 477 387 478 394 478 398 c 0
 478 435 432 462 372 462 c 0
 329 462 287 447 265 425 c 0
 251 411 244 397 235 369 c 1
 151 369 l 1
 170 480 255 539 394 539 c 0
 499 539 568 494 568 426 c 0
 568 416 568 416 562 389 c 1
 498 88 l 1
 497 85 497 82 497 78 c 0
 497 58 509 49 535 49 c 0
 539 49 543 49 552 51 c 1
431 164 m 2
 451 258 l 1
 407 243 399 242 305 229 c 0
 256 222 226 214 202 199 c 0
 172 181 153 148 153 115 c 0
 153 73 185 49 242 49 c 0
 330 49 418 102 431 164 c 2
391 740 m 1
 463 592 l 1
 410 592 l 1
 285 740 l 1
 391 740 l 1
EndSplineSet
KernsSLIF: 121 -33 0 0 119 -16 0 0 118 -26 0 0
Ligature: 0 0 'liga' a gravecomb
EndChar
StartChar: acircumflex
Encoding: 326 226 219
Width: 556
Flags: W
HStem: -23 72<209 242> 462 77<368 394> 721 20G<393 488>
VStem: 65 88<103 122> 478 90<398 426>
DStem: 451 258 562 389 431 164 498 88
Fore
552 51 m 1
 539 -14 l 1
 533 -15 527 -16 525 -17 c 0
 500 -23 497 -23 486 -23 c 0
 438 -23 410 2 410 43 c 2
 410 47 l 1
 410 54 l 1
 369 18 354 8 322 -3 c 0
 286 -16 244 -23 209 -23 c 0
 119 -23 65 25 65 105 c 0
 65 163 95 216 147 249 c 0
 196 280 238 290 372 302 c 0
 445 309 464 320 473 361 c 1
 476 379 l 1
 477 387 478 394 478 398 c 0
 478 435 432 462 372 462 c 0
 329 462 287 447 265 425 c 0
 251 411 244 397 235 369 c 1
 151 369 l 1
 170 480 255 539 394 539 c 0
 499 539 568 494 568 426 c 0
 568 416 568 416 562 389 c 1
 498 88 l 1
 497 85 497 82 497 78 c 0
 497 58 509 49 535 49 c 0
 539 49 543 49 552 51 c 1
431 164 m 2
 451 258 l 1
 407 243 399 242 305 229 c 0
 256 222 226 214 202 199 c 0
 172 181 153 148 153 115 c 0
 153 73 185 49 242 49 c 0
 330 49 418 102 431 164 c 2
393 741 m 1
 488 741 l 1
 552 591 l 1
 489 591 l 1
 433 690 l 1
 329 591 l 1
 265 591 l 1
 393 741 l 1
EndSplineSet
Ligature: 0 0 'liga' a uni0302
EndChar
StartChar: abreve
Encoding: 327 259 220
Width: 556
Flags: W
HStem: -23 72<209 242> 462 77<368 394> 594 72<400 418> 709 20G<281 334 526 582>
VStem: 65 88<103 122> 276 58<693 716> 478 90<398 426>
DStem: 451 258 562 389 431 164 498 88
Fore
552 51 m 1
 539 -14 l 1
 533 -15 527 -16 525 -17 c 0
 500 -23 497 -23 486 -23 c 0
 438 -23 410 2 410 43 c 2
 410 47 l 1
 410 54 l 1
 369 18 354 8 322 -3 c 0
 286 -16 244 -23 209 -23 c 0
 119 -23 65 25 65 105 c 0
 65 163 95 216 147 249 c 0
 196 280 238 290 372 302 c 0
 445 309 464 320 473 361 c 1
 476 379 l 1
 477 387 478 394 478 398 c 0
 478 435 432 462 372 462 c 0
 329 462 287 447 265 425 c 0
 251 411 244 397 235 369 c 1
 151 369 l 1
 170 480 255 539 394 539 c 0
 499 539 568 494 568 426 c 0
 568 416 568 416 562 389 c 1
 498 88 l 1
 497 85 497 82 497 78 c 0
 497 58 509 49 535 49 c 0
 539 49 543 49 552 51 c 1
431 164 m 2
 451 258 l 1
 407 243 399 242 305 229 c 0
 256 222 226 214 202 199 c 0
 172 181 153 148 153 115 c 0
 153 73 185 49 242 49 c 0
 330 49 418 102 431 164 c 2
281 729 m 1
 334 729 l 1
 334 721 l 1
 334 716 l 2
 334 686 367 666 416 666 c 0
 475 666 516 689 526 729 c 1
 582 729 l 1
 571 685 560 664 536 643 c 0
 503 613 452 594 403 594 c 0
 328 594 276 634 276 693 c 0
 276 702 277 710 281 729 c 1
EndSplineSet
Ligature: 0 0 'liga' a uni0306
EndChar
StartChar: atilde
Encoding: 328 227 221
Width: 556
Flags: W
HStem: -23 72<209 242> 462 77<368 394> 612 70<472 488> 644 70<336 354>
VStem: 65 88<103 122> 478 90<398 426>
DStem: 451 258 562 389 431 164 498 88
Fore
552 51 m 1xcc
 539 -14 l 1
 533 -15 527 -16 525 -17 c 0
 500 -23 497 -23 486 -23 c 0
 438 -23 410 2 410 43 c 2
 410 47 l 1
 410 54 l 1
 369 18 354 8 322 -3 c 0
 286 -16 244 -23 209 -23 c 0
 119 -23 65 25 65 105 c 0
 65 163 95 216 147 249 c 0
 196 280 238 290 372 302 c 0
 445 309 464 320 473 361 c 1
 476 379 l 1
 477 387 478 394 478 398 c 0
 478 435 432 462 372 462 c 0
 329 462 287 447 265 425 c 0
 251 411 244 397 235 369 c 1
 151 369 l 1
 170 480 255 539 394 539 c 0
 499 539 568 494 568 426 c 0
 568 416 568 416 562 389 c 1
 498 88 l 1
 497 85 497 82 497 78 c 0
 497 58 509 49 535 49 c 0
 539 49 543 49 552 51 c 1xcc
431 164 m 2
 451 258 l 1
 407 243 399 242 305 229 c 0
 256 222 226 214 202 199 c 0
 172 181 153 148 153 115 c 0
 153 73 185 49 242 49 c 0
 330 49 418 102 431 164 c 2
530 719 m 1
 583 719 l 1
 562 654 520 612 475 612 c 0xec
 453 612 436 616 372 638 c 0
 361 642 351 644 345 644 c 0
 326 644 314 638 302 620 c 0
 300 618 298 615 295 611 c 1
 242 611 l 1
 254 646 262 663 274 678 c 0
 290 699 321 714 346 714 c 0xdc
 363 714 380 710 419 697 c 0
 445 688 472 682 482 682 c 0xec
 502 682 512 690 530 719 c 1
EndSplineSet
Ligature: 0 0 'liga' a tildecomb
EndChar
StartChar: aring
Encoding: 329 229 222
Width: 556
Flags: W
HStem: -23 72<209 242> 462 77<368 394> 579 44<404 418> 710 44<429 443>
VStem: 65 88<103 122> 333 46<648 660> 468 45<673 687> 478 90<398 426>
DStem: 451 258 562 389 431 164 498 88
Fore
552 51 m 1xfd
 539 -14 l 1
 533 -15 527 -16 525 -17 c 0
 500 -23 497 -23 486 -23 c 0
 438 -23 410 2 410 43 c 2
 410 47 l 1
 410 54 l 1
 369 18 354 8 322 -3 c 0
 286 -16 244 -23 209 -23 c 0
 119 -23 65 25 65 105 c 0
 65 163 95 216 147 249 c 0
 196 280 238 290 372 302 c 0
 445 309 464 320 473 361 c 1
 476 379 l 1
 477 387 478 394 478 398 c 0
 478 435 432 462 372 462 c 0
 329 462 287 447 265 425 c 0
 251 411 244 397 235 369 c 1
 151 369 l 1
 170 480 255 539 394 539 c 0
 499 539 568 494 568 426 c 0
 568 416 568 416 562 389 c 1
 498 88 l 1
 497 85 497 82 497 78 c 0
 497 58 509 49 535 49 c 0
 539 49 543 49 552 51 c 1xfd
431 164 m 2
 451 258 l 1
 407 243 399 242 305 229 c 0
 256 222 226 214 202 199 c 0
 172 181 153 148 153 115 c 0
 153 73 185 49 242 49 c 0
 330 49 418 102 431 164 c 2
441 754 m 0
 482 754 513 725 513 687 c 0xfe
 513 631 461 579 404 579 c 0
 364 579 333 610 333 649 c 0
 333 702 387 754 441 754 c 0
434 710 m 0
 406 710 379 684 379 658 c 0
 379 637 394 623 414 623 c 0
 441 623 468 649 468 675 c 0
 468 695 453 710 434 710 c 0
EndSplineSet
KernsSLIF: 121 -33 0 0 119 -16 0 0 118 -26 0 0
Ligature: 0 0 'liga' a uni030A
EndChar
StartChar: aogonek
Encoding: 330 261 223
Width: 556
Flags: W
HStem: -205 45<488 514> -23 72<209 242> 462 77<368 394>
VStem: 65 88<103 117> 360 75<-128 -114> 478 90<398 426>
DStem: 451 258 562 389 431 164 498 88
Fore
552 51 m 1
 539 -14 l 1
 484 -27 435 -75 435 -116 c 0
 435 -143 462 -160 503 -160 c 0
 527 -160 551 -157 571 -150 c 1
 562 -195 l 1
 522 -204 513 -205 490 -205 c 0
 408 -205 360 -177 360 -128 c 0
 360 -83 384 -56 455 -19 c 1
 425 -10 410 11 410 43 c 2
 410 47 l 1
 410 54 l 1
 369 18 354 8 322 -3 c 0
 286 -16 244 -23 209 -23 c 0
 119 -23 65 25 65 105 c 0
 65 163 95 216 147 249 c 0
 196 280 238 290 372 302 c 0
 445 309 464 320 473 361 c 1
 476 379 l 1
 477 387 478 394 478 398 c 0
 478 435 432 462 372 462 c 0
 329 462 287 447 265 425 c 0
 251 411 244 397 235 369 c 1
 151 369 l 1
 170 480 255 539 394 539 c 0
 499 539 568 494 568 426 c 0
 568 416 568 416 562 389 c 1
 498 88 l 1
 497 85 497 82 497 78 c 0
 497 58 509 49 535 49 c 0
 539 49 543 49 552 51 c 1
431 164 m 2
 451 258 l 1
 407 243 399 242 305 229 c 0
 256 222 226 214 202 199 c 0
 172 181 153 148 153 115 c 0
 153 73 185 49 242 49 c 0
 330 49 418 102 431 164 c 2
EndSplineSet
Ligature: 0 0 'liga' a uni0328
EndChar
StartChar: cacute
Encoding: 331 263 224
Width: 500
Flags: W
HStem: -23 77<261 285> 462 77<363 383> 720 20G<463 575>
VStem: 76 88<168 186> 468 86<370 392>
Fore
551 348 m 1
 467 348 l 1
 468 357 468 364 468 370 c 0
 468 427 429 462 366 462 c 0
 305 462 255 432 218 373 c 0
 185 321 164 245 164 181 c 0
 164 103 208 54 277 54 c 0
 349 54 404 98 434 180 c 1
 518 180 l 1
 502 124 486 90 460 60 c 0
 414 6 345 -23 263 -23 c 0
 199 -23 154 -4 120 39 c 0
 92 74 76 123 76 170 c 0
 76 262 110 371 157 432 c 0
 210 501 291 539 381 539 c 0
 438 539 479 524 510 492 c 0
 536 465 554 425 554 392 c 0
 554 389 553 378 552 363 c 2
 551 348 l 1
463 740 m 1
 575 740 l 1
 395 592 l 1
 335 592 l 1
 463 740 l 1
EndSplineSet
Ligature: 0 0 'liga' c acutecomb
EndChar
StartChar: ccaron
Encoding: 332 269 225
Width: 500
Flags: W
HStem: -23 77<261 285> 462 77<363 383> 720 20G<276 339 499 563>
VStem: 76 88<168 186> 468 86<370 392>
Fore
551 348 m 1
 467 348 l 1
 468 357 468 364 468 370 c 0
 468 427 429 462 366 462 c 0
 305 462 255 432 218 373 c 0
 185 321 164 245 164 181 c 0
 164 103 208 54 277 54 c 0
 349 54 404 98 434 180 c 1
 518 180 l 1
 502 124 486 90 460 60 c 0
 414 6 345 -23 263 -23 c 0
 199 -23 154 -4 120 39 c 0
 92 74 76 123 76 170 c 0
 76 262 110 371 157 432 c 0
 210 501 291 539 381 539 c 0
 438 539 479 524 510 492 c 0
 536 465 554 425 554 392 c 0
 554 389 553 378 552 363 c 2
 551 348 l 1
435 592 m 1
 340 592 l 1
 276 740 l 1
 339 740 l 1
 395 642 l 1
 499 740 l 1
 563 740 l 1
 435 592 l 1
EndSplineSet
Ligature: 0 0 'liga' c uni030C
EndChar
StartChar: ccedilla
Encoding: 333 231 226
Width: 500
Flags: W
HStem: -214 43<187 214> -94 40<232 274> 462 77<363 383>
VStem: 76 88<168 187> 263 78<-119 -105> 468 86<370 393>
DStem: 230 -22 271 -23 192 -92 253 -56
Fore
271 -23 m 1
 253 -56 l 1
 266 -54 270 -54 274 -54 c 0
 311 -54 341 -77 341 -105 c 0
 341 -168 280 -214 196 -214 c 0
 158 -214 129 -206 78 -180 c 1
 106 -142 l 1
 147 -163 172 -171 200 -171 c 0
 237 -171 263 -148 263 -116 c 0
 263 -104 248 -94 232 -94 c 0
 227 -94 227 -94 212 -97 c 2
 205 -98 l 1
 192 -92 l 1
 230 -22 l 1
 183 -13 163 -4 139 19 c 0
 100 55 76 112 76 170 c 0
 76 262 110 371 157 432 c 0
 210 501 291 539 381 539 c 0
 438 539 479 524 510 492 c 0
 536 465 554 425 554 393 c 0
 554 390 553 379 552 363 c 2
 551 348 l 1
 467 348 l 1
 468 357 468 364 468 370 c 0
 468 427 429 462 366 462 c 0
 305 462 255 432 218 373 c 0
 185 321 164 245 164 181 c 0
 164 103 208 54 277 54 c 0
 349 54 404 98 434 180 c 1
 518 180 l 1
 486 51 400 -19 271 -23 c 1
EndSplineSet
Ligature: 0 0 'liga' c uni0327
EndChar
StartChar: dcaron
Encoding: 334 271 227
Width: 650
Flags: W
HStem: -23 77<244 278> 462 77<344 373> 505 38<662 672> 709 20G<566 650 710 810>
VStem: 73 88<168 202>
DStem: 566 729 650 729 506 448 495 0
Fore
650 729 m 1xd8
 495 0 l 1
 414 0 l 1
 430 76 l 1
 416 48 403 33 373 15 c 0
 333 -9 287 -23 244 -23 c 0
 140 -23 73 53 73 170 c 0
 73 381 197 539 363 539 c 0
 434 539 474 513 506 448 c 1
 566 729 l 1
 650 729 l 1xd8
355 462 m 0
 291 462 243 430 205 361 c 0
 178 310 161 246 161 190 c 0
 161 104 204 54 278 54 c 0
 339 54 388 88 427 155 c 0
 457 207 473 268 473 327 c 0
 473 412 429 462 355 462 c 0
710 729 m 1
 810 729 l 1
 791 636 l 1
 773 554 725 505 662 505 c 1
 670 543 l 1xb8
 709 543 733 572 744 631 c 1
 689 631 l 1
 710 729 l 1
EndSplineSet
Ligature: 0 0 'liga' d uni030C
EndChar
StartChar: edieresis
Encoding: 335 235 228
Width: 556
Flags: W
HStem: -23 77<280 298> 234 72<195 563> 462 77<371 391> 612 103<295 378 456 539>
VStem: 84 88<168 190> 492 88<339 368>
DStem: 296 715 400 715 274 612 378 612 457 715 561 715 435 612 539 612
Fore
563 234 m 1
 177 234 l 1
 173 219 172 209 172 188 c 0
 172 103 217 54 296 54 c 0
 363 54 416 90 452 159 c 1
 536 159 l 1
 505 51 402 -23 282 -23 c 0
 225 -23 181 -7 146 27 c 0
 107 64 84 119 84 173 c 0
 84 254 121 368 168 431 c 0
 218 498 302 539 389 539 c 0
 497 539 580 464 580 368 c 0
 580 341 575 299 566 251 c 2
 563 234 l 1
195 306 m 1
 489 306 l 1
 491 322 492 329 492 339 c 0
 492 414 447 462 376 462 c 0
 295 462 221 398 195 306 c 1
400 715 m 1
 378 612 l 1
 274 612 l 1
 296 715 l 1
 400 715 l 1
561 715 m 1
 539 612 l 1
 435 612 l 1
 457 715 l 1
 561 715 l 1
EndSplineSet
Ligature: 0 0 'liga' e uni0308
EndChar
StartChar: eacute
Encoding: 336 233 229
Width: 556
Flags: W
HStem: -23 77<280 298> 234 72<195 563> 462 77<371 391> 720 20G<468 580>
VStem: 84 88<168 190> 492 88<339 368>
Fore
563 234 m 1
 177 234 l 1
 173 219 172 209 172 188 c 0
 172 103 217 54 296 54 c 0
 363 54 416 90 452 159 c 1
 536 159 l 1
 505 51 402 -23 282 -23 c 0
 225 -23 181 -7 146 27 c 0
 107 64 84 119 84 173 c 0
 84 254 121 368 168 431 c 0
 218 498 302 539 389 539 c 0
 497 539 580 464 580 368 c 0
 580 341 575 299 566 251 c 2
 563 234 l 1
195 306 m 1
 489 306 l 1
 491 322 492 329 492 339 c 0
 492 414 447 462 376 462 c 0
 295 462 221 398 195 306 c 1
468 740 m 1
 580 740 l 1
 400 592 l 1
 340 592 l 1
 468 740 l 1
EndSplineSet
KernsSLIF: 121 -33 0 0 119 -16 0 0 118 -26 0 0
Ligature: 0 0 'liga' e acutecomb
EndChar
StartChar: egrave
Encoding: 337 232 230
Width: 556
Flags: W
HStem: -23 77<277 298> 234 72<195 563> 462 77<371 391> 720 20G<278 384>
VStem: 84 88<168 190> 492 88<339 368>
Fore
563 234 m 1
 177 234 l 1
 173 219 172 209 172 188 c 0
 172 103 217 54 296 54 c 0
 363 54 416 90 452 159 c 1
 536 159 l 1
 505 51 402 -23 282 -23 c 0
 225 -23 181 -7 146 27 c 0
 107 64 84 119 84 173 c 0
 84 254 121 368 168 431 c 0
 218 498 302 539 389 539 c 0
 497 539 580 464 580 368 c 0
 580 341 575 299 566 251 c 2
 563 234 l 1
195 306 m 1
 489 306 l 1
 491 322 492 329 492 339 c 0
 492 414 447 462 376 462 c 0
 295 462 221 398 195 306 c 1
384 740 m 1
 456 592 l 1
 403 592 l 1
 278 740 l 1
 384 740 l 1
EndSplineSet
Ligature: 0 0 'liga' e gravecomb
EndChar
StartChar: ecircumflex
Encoding: 338 234 231
Width: 556
Flags: W
HStem: -23 77<280 298> 234 72<195 563> 462 77<371 391> 721 20G<389 484>
VStem: 84 88<168 190> 492 88<339 368>
Fore
563 234 m 1
 177 234 l 1
 173 219 172 209 172 188 c 0
 172 103 217 54 296 54 c 0
 363 54 416 90 452 159 c 1
 536 159 l 1
 505 51 402 -23 282 -23 c 0
 225 -23 181 -7 146 27 c 0
 107 64 84 119 84 173 c 0
 84 254 121 368 168 431 c 0
 218 498 302 539 389 539 c 0
 497 539 580 464 580 368 c 0
 580 341 575 299 566 251 c 2
 563 234 l 1
195 306 m 1
 489 306 l 1
 491 322 492 329 492 339 c 0
 492 414 447 462 376 462 c 0
 295 462 221 398 195 306 c 1
389 741 m 1
 484 741 l 1
 548 591 l 1
 485 591 l 1
 429 690 l 1
 325 591 l 1
 261 591 l 1
 389 741 l 1
EndSplineSet
KernsSLIF: 121 -33 0 0 119 -16 0 0 118 -26 0 0
Ligature: 0 0 'liga' e uni0302
EndChar
StartChar: ecaron
Encoding: 339 283 232
Width: 556
Flags: W
HStem: -23 77<280 298> 234 72<195 563> 462 77<371 391> 720 20G<291 354 514 578>
VStem: 84 88<168 190> 492 88<339 368>
Fore
563 234 m 1
 177 234 l 1
 173 219 172 209 172 188 c 0
 172 103 217 54 296 54 c 0
 363 54 416 90 452 159 c 1
 536 159 l 1
 505 51 402 -23 282 -23 c 0
 225 -23 181 -7 146 27 c 0
 107 64 84 119 84 173 c 0
 84 254 121 368 168 431 c 0
 218 498 302 539 389 539 c 0
 497 539 580 464 580 368 c 0
 580 341 575 299 566 251 c 2
 563 234 l 1
195 306 m 1
 489 306 l 1
 491 322 492 329 492 339 c 0
 492 414 447 462 376 462 c 0
 295 462 221 398 195 306 c 1
450 592 m 1
 355 592 l 1
 291 740 l 1
 354 740 l 1
 410 642 l 1
 514 740 l 1
 578 740 l 1
 450 592 l 1
EndSplineSet
Ligature: 0 0 'liga' e uni030C
EndChar
StartChar: edotaccent
Encoding: 340 279 233
Width: 556
Flags: W
HStem: -23 77<280 298> 234 72<195 563> 462 77<371 391>
VStem: 84 88<168 190> 492 88<339 368>
DStem: 378 715 482 715 356 612 460 612
Fore
563 234 m 1
 177 234 l 1
 173 219 172 209 172 188 c 0
 172 103 217 54 296 54 c 0
 363 54 416 90 452 159 c 1
 536 159 l 1
 505 51 402 -23 282 -23 c 0
 225 -23 181 -7 146 27 c 0
 107 64 84 119 84 173 c 0
 84 254 121 368 168 431 c 0
 218 498 302 539 389 539 c 0
 497 539 580 464 580 368 c 0
 580 341 575 299 566 251 c 2
 563 234 l 1
195 306 m 1
 489 306 l 1
 491 322 492 329 492 339 c 0
 492 414 447 462 376 462 c 0
 295 462 221 398 195 306 c 1
482 715 m 1
 460 612 l 1
 356 612 l 1
 378 715 l 1
 482 715 l 1
EndSplineSet
Ligature: 0 0 'liga' e uni0307
EndChar
StartChar: eogonek
Encoding: 341 281 234
Width: 556
Flags: W
HStem: -205 45<385 405> -23 77<278 298> 234 72<195 563> 462 77<371 394>
VStem: 84 88<171 196> 253 74<-127 -112> 492 88<339 368>
Fore
464 -150 m 1
 455 -195 l 1
 434 -202 416 -205 387 -205 c 0
 351 -205 310 -197 289 -186 c 0
 265 -174 253 -154 253 -127 c 0
 253 -86 276 -58 346 -16 c 1
 314 -22 300 -23 280 -23 c 0
 225 -23 181 -7 146 27 c 0
 107 64 84 119 84 173 c 0
 84 254 121 368 168 431 c 0
 218 498 302 539 389 539 c 0
 497 539 580 464 580 368 c 0
 580 341 575 299 566 251 c 2
 563 234 l 1
 177 234 l 1
 173 219 172 209 172 188 c 0
 172 103 217 54 296 54 c 0
 363 54 416 90 452 159 c 1
 536 159 l 1
 520 100 479 50 395 -14 c 0
 354 -46 327 -86 327 -114 c 0
 327 -141 355 -160 394 -160 c 0
 421 -160 446 -156 464 -150 c 1
195 306 m 1
 489 306 l 1
 491 322 492 329 492 339 c 0
 492 414 447 462 376 462 c 0
 295 462 221 398 195 306 c 1
EndSplineSet
Ligature: 0 0 'liga' e uni0328
EndChar
StartChar: gbreve
Encoding: 342 287 235
Width: 556
Flags: W
HStem: -218 72<206 228> -17 72<247 271> 462 77<351 371> 594 72<404 425> 709 20G<288 341 533 589>
VStem: 32 86<-91 -72> 74 88<165 186> 283 58<693 716>
DStem: 525 524 601 524 508 446 508 85
Fore
525 524 m 1xfb
 601 524 l 1
 508 85 l 2
 481 -42 454 -103 404 -151 c 0
 359 -194 288 -218 209 -218 c 0
 102 -218 32 -168 32 -91 c 0
 32 -87 32 -81 33 -73 c 1
 34 -60 l 1
 118 -60 l 1
 118 -68 l 1
 118 -74 l 2xfd
 118 -119 158 -146 226 -146 c 0
 332 -146 386 -92 415 44 c 2
 419 63 l 1
 369 10 310 -17 247 -17 c 0
 145 -17 74 59 74 168 c 0
 74 260 112 373 165 439 c 0
 214 501 292 539 369 539 c 0
 403 539 435 528 461 509 c 0
 483 493 493 479 508 446 c 1
 525 524 l 1xfb
363 462 m 0
 300 462 244 425 208 360 c 0
 179 308 162 244 162 184 c 0xfb
 162 105 204 55 271 55 c 0
 331 55 390 93 423 154 c 0
 451 203 469 277 469 339 c 0
 469 414 427 462 363 462 c 0
288 729 m 1
 341 729 l 1
 341 721 l 1
 341 716 l 2
 341 686 374 666 423 666 c 0
 482 666 523 689 533 729 c 1
 589 729 l 1
 578 685 567 664 543 643 c 0
 510 613 459 594 410 594 c 0
 335 594 283 634 283 693 c 0
 283 702 284 710 288 729 c 1
EndSplineSet
Ligature: 0 0 'liga' g uni0306
EndChar
StartChar: idieresis
Encoding: 343 239 236
Width: 278
Flags: W
HStem: 0 21G<94 178> 507 20G<206 290> 605 103<153 236 314 397>
DStem: 154 708 258 708 132 605 236 605 206 527 290 527 94 0 178 0 315 708 419 708 293 605 397 605
Fore
290 527 m 1
 178 0 l 1
 94 0 l 1
 206 527 l 1
 290 527 l 1
258 708 m 1
 236 605 l 1
 132 605 l 1
 154 708 l 1
 258 708 l 1
419 708 m 1
 397 605 l 1
 293 605 l 1
 315 708 l 1
 419 708 l 1
EndSplineSet
Ligature: 0 0 'liga' i uni0308
EndChar
StartChar: iacute
Encoding: 344 237 237
Width: 278
Flags: W
HStem: 0 21G<94 178> 507 20G<206 290> 720 20G<319 431>
DStem: 206 527 290 527 94 0 178 0
Fore
290 527 m 1
 178 0 l 1
 94 0 l 1
 206 527 l 1
 290 527 l 1
319 740 m 1
 431 740 l 1
 251 592 l 1
 191 592 l 1
 319 740 l 1
EndSplineSet
Ligature: 0 0 'liga' i acutecomb
EndChar
StartChar: igrave
Encoding: 345 236 238
Width: 278
Flags: W
HStem: 0 21G<94 178> 507 20G<206 290> 720 20G<152 258>
DStem: 206 527 290 527 94 0 178 0
Fore
290 527 m 1
 178 0 l 1
 94 0 l 1
 206 527 l 1
 290 527 l 1
258 740 m 1
 330 592 l 1
 277 592 l 1
 152 740 l 1
 258 740 l 1
EndSplineSet
Ligature: 0 0 'liga' i gravecomb
EndChar
StartChar: icircumflex
Encoding: 346 238 239
Width: 278
Flags: W
HStem: 0 21G<94 178> 507 20G<206 290> 721 20G<247 342>
DStem: 206 527 290 527 94 0 178 0
Fore
290 527 m 1
 178 0 l 1
 94 0 l 1
 206 527 l 1
 290 527 l 1
247 741 m 1
 342 741 l 1
 406 591 l 1
 343 591 l 1
 287 690 l 1
 183 591 l 1
 119 591 l 1
 247 741 l 1
EndSplineSet
Ligature: 0 0 'liga' i uni0302
EndChar
StartChar: lacute
Encoding: 347 314 240
Width: 222
Flags: W
HStem: 0 21G<68 152> 709 20G<223 307>
DStem: 223 729 307 729 68 0 152 0
Fore
307 729 m 1
 152 0 l 1
 68 0 l 1
 223 729 l 1
 307 729 l 1
351 939 m 1
 463 939 l 1
 283 791 l 1
 223 791 l 1
 351 939 l 1
EndSplineSet
Ligature: 0 0 'liga' l acutecomb
EndChar
StartChar: lcaron
Encoding: 348 318 241
Width: 307
Flags: W
HStem: 0 21G<68 152> 505 38<319 329> 709 20G<223 307 367 467>
DStem: 223 729 307 729 68 0 152 0
Fore
307 729 m 1
 152 0 l 1
 68 0 l 1
 223 729 l 1
 307 729 l 1
367 729 m 1
 467 729 l 1
 448 636 l 1
 430 554 382 505 319 505 c 1
 327 543 l 1
 366 543 390 572 401 631 c 1
 346 631 l 1
 367 729 l 1
EndSplineSet
Ligature: 0 0 'liga' l uni030C
EndChar
StartChar: nacute
Encoding: 349 324 242
Width: 556
Flags: W
HStem: 0 21G<70 154 406 490> 467 72<399 438> 720 20G<468 580>
VStem: 486 88<386 414>
DStem: 181 524 215 289 70 0 154 0 480 349 570 376 406 0 490 0
Fore
181 524 m 1
 257 524 l 1
 244 459 l 1
 296 512 362 539 438 539 c 0
 521 539 574 490 574 414 c 0
 574 401 573 389 570 376 c 1
 490 0 l 1
 406 0 l 1
 480 349 l 1
 484 365 486 380 486 386 c 0
 486 432 449 467 399 467 c 0
 309 467 239 399 215 289 c 1
 154 0 l 1
 70 0 l 1
 181 524 l 1
468 740 m 1
 580 740 l 1
 400 592 l 1
 340 592 l 1
 468 740 l 1
EndSplineSet
Ligature: 0 0 'liga' n acutecomb
EndChar
StartChar: ncaron
Encoding: 350 328 243
Width: 556
Flags: W
HStem: 0 21G<70 154 406 490> 467 72<399 438> 720 20G<291 354 514 578>
VStem: 486 88<386 414>
DStem: 181 524 215 289 70 0 154 0 480 349 570 376 406 0 490 0
Fore
181 524 m 1
 257 524 l 1
 244 459 l 1
 296 512 362 539 438 539 c 0
 521 539 574 490 574 414 c 0
 574 401 573 389 570 376 c 1
 490 0 l 1
 406 0 l 1
 480 349 l 1
 484 365 486 380 486 386 c 0
 486 432 449 467 399 467 c 0
 309 467 239 399 215 289 c 1
 154 0 l 1
 70 0 l 1
 181 524 l 1
450 592 m 1
 355 592 l 1
 291 740 l 1
 354 740 l 1
 410 642 l 1
 514 740 l 1
 578 740 l 1
 450 592 l 1
EndSplineSet
Ligature: 0 0 'liga' n uni030C
EndChar
StartChar: ntilde
Encoding: 351 241 244
Width: 556
Flags: W
HStem: 0 21G<70 154 406 490> 467 72<399 438> 612 70<478 492> 644 70<341 359>
VStem: 486 88<386 414>
DStem: 181 524 215 289 70 0 154 0 480 349 570 376 406 0 490 0
Fore
181 524 m 1xc8
 257 524 l 1
 244 459 l 1
 296 512 362 539 438 539 c 0
 521 539 574 490 574 414 c 0
 574 401 573 389 570 376 c 1
 490 0 l 1
 406 0 l 1
 480 349 l 1
 484 365 486 380 486 386 c 0
 486 432 449 467 399 467 c 0
 309 467 239 399 215 289 c 1
 154 0 l 1
 70 0 l 1
 181 524 l 1xc8
536 719 m 1
 589 719 l 1
 568 654 526 612 481 612 c 0xe8
 459 612 442 616 378 638 c 0
 367 642 357 644 351 644 c 0
 332 644 320 638 308 620 c 0
 306 618 304 615 301 611 c 1
 248 611 l 1
 260 646 268 663 280 678 c 0
 296 699 327 714 352 714 c 0xd8
 369 714 386 710 425 697 c 0
 451 688 478 682 488 682 c 0xe8
 508 682 518 690 536 719 c 1
EndSplineSet
Ligature: 0 0 'liga' n tildecomb
EndChar
StartChar: odieresis
Encoding: 352 246 245
Width: 556
Flags: W
HStem: -23 77<267 293> 462 77<367 386> 612 103<290 373 451 534>
VStem: 80 88<163 186> 488 88<328 354>
DStem: 291 715 395 715 269 612 373 612 452 715 556 715 430 612 534 612
Fore
384 539 m 0
 442 539 487 523 521 490 c 0
 556 456 576 405 576 352 c 0
 576 265 543 156 497 93 c 0
 441 16 365 -23 269 -23 c 0
 157 -23 80 53 80 164 c 0
 80 249 113 359 158 423 c 0
 209 497 291 539 384 539 c 0
371 462 m 0
 305 462 249 425 212 357 c 0
 185 307 168 241 168 184 c 0
 168 104 212 54 283 54 c 0
 352 54 406 90 444 159 c 0
 471 209 488 274 488 333 c 0
 488 414 445 462 371 462 c 0
395 715 m 1
 373 612 l 1
 269 612 l 1
 291 715 l 1
 395 715 l 1
556 715 m 1
 534 612 l 1
 430 612 l 1
 452 715 l 1
 556 715 l 1
EndSplineSet
KernsSLIF: 121 -34 0 0 120 -35 0 0 119 -16 0 0 118 -27 0 0 116 -17 0 0
Ligature: 0 0 'liga' o uni0308
EndChar
StartChar: oacute
Encoding: 353 243 246
Width: 556
Flags: W
HStem: -23 77<267 289> 462 77<367 386> 720 20G<464 576>
VStem: 80 88<163 186> 488 88<328 354>
Fore
384 539 m 0
 442 539 487 523 521 490 c 0
 556 456 576 405 576 352 c 0
 576 265 543 156 497 93 c 0
 441 16 365 -23 269 -23 c 0
 157 -23 80 53 80 164 c 0
 80 249 113 359 158 423 c 0
 209 497 291 539 384 539 c 0
371 462 m 0
 305 462 249 425 212 357 c 0
 185 307 168 241 168 184 c 0
 168 104 212 54 283 54 c 0
 352 54 406 90 444 159 c 0
 471 209 488 274 488 333 c 0
 488 414 445 462 371 462 c 0
464 740 m 1
 576 740 l 1
 396 592 l 1
 336 592 l 1
 464 740 l 1
EndSplineSet
KernsSLIF: 121 -34 0 0 119 -16 0 0 118 -27 0 0
Ligature: 0 0 'liga' o acutecomb
EndChar
StartChar: ograve
Encoding: 354 242 247
Width: 556
Flags: W
HStem: -23 77<267 289> 462 77<367 386> 720 20G<274 380>
VStem: 80 88<163 186> 488 88<328 354>
Fore
384 539 m 0
 442 539 487 523 521 490 c 0
 556 456 576 405 576 352 c 0
 576 265 543 156 497 93 c 0
 441 16 365 -23 269 -23 c 0
 157 -23 80 53 80 164 c 0
 80 249 113 359 158 423 c 0
 209 497 291 539 384 539 c 0
371 462 m 0
 305 462 249 425 212 357 c 0
 185 307 168 241 168 184 c 0
 168 104 212 54 283 54 c 0
 352 54 406 90 444 159 c 0
 471 209 488 274 488 333 c 0
 488 414 445 462 371 462 c 0
380 740 m 1
 452 592 l 1
 399 592 l 1
 274 740 l 1
 380 740 l 1
EndSplineSet
KernsSLIF: 121 -34 0 0 119 -16 0 0 118 -27 0 0
Ligature: 0 0 'liga' o gravecomb
EndChar
StartChar: ocircumflex
Encoding: 355 244 248
Width: 556
Flags: W
HStem: -23 77<267 289> 462 77<367 386> 721 20G<383 478>
VStem: 80 88<163 186> 488 88<328 354>
Fore
384 539 m 0
 442 539 487 523 521 490 c 0
 556 456 576 405 576 352 c 0
 576 265 543 156 497 93 c 0
 441 16 365 -23 269 -23 c 0
 157 -23 80 53 80 164 c 0
 80 249 113 359 158 423 c 0
 209 497 291 539 384 539 c 0
371 462 m 0
 305 462 249 425 212 357 c 0
 185 307 168 241 168 184 c 0
 168 104 212 54 283 54 c 0
 352 54 406 90 444 159 c 0
 471 209 488 274 488 333 c 0
 488 414 445 462 371 462 c 0
383 741 m 1
 478 741 l 1
 542 591 l 1
 479 591 l 1
 423 690 l 1
 319 591 l 1
 255 591 l 1
 383 741 l 1
EndSplineSet
KernsSLIF: 116 -17 0 0
Ligature: 0 0 'liga' o uni0302
EndChar
StartChar: otilde
Encoding: 356 245 249
Width: 556
Flags: W
HStem: -23 77<267 295> 462 77<367 386> 612 70<473 488> 644 70<335 353>
VStem: 80 88<163 186> 488 88<328 354>
Fore
384 539 m 0xcc
 442 539 487 523 521 490 c 0
 556 456 576 405 576 352 c 0
 576 265 543 156 497 93 c 0
 441 16 365 -23 269 -23 c 0
 157 -23 80 53 80 164 c 0
 80 249 113 359 158 423 c 0
 209 497 291 539 384 539 c 0xcc
371 462 m 0
 305 462 249 425 212 357 c 0
 185 307 168 241 168 184 c 0
 168 104 212 54 283 54 c 0
 352 54 406 90 444 159 c 0
 471 209 488 274 488 333 c 0
 488 414 445 462 371 462 c 0
530 719 m 1
 583 719 l 1
 562 654 520 612 475 612 c 0xec
 453 612 436 616 372 638 c 0
 361 642 351 644 345 644 c 0
 326 644 314 638 302 620 c 0
 300 618 298 615 295 611 c 1
 242 611 l 1
 254 646 262 663 274 678 c 0
 290 699 321 714 346 714 c 0xdc
 363 714 380 710 419 697 c 0
 445 688 472 682 482 682 c 0xec
 502 682 512 690 530 719 c 1
EndSplineSet
Ligature: 0 0 'liga' o tildecomb
EndChar
StartChar: ohungarumlaut
Encoding: 357 337 250
Width: 556
Flags: W
HStem: -23 77<267 289> 462 77<367 386> 720 20G<397 509 571 683>
VStem: 80 88<163 186> 488 88<328 354>
Fore
384 539 m 0
 442 539 487 523 521 490 c 0
 556 456 576 405 576 352 c 0
 576 265 543 156 497 93 c 0
 441 16 365 -23 269 -23 c 0
 157 -23 80 53 80 164 c 0
 80 249 113 359 158 423 c 0
 209 497 291 539 384 539 c 0
371 462 m 0
 305 462 249 425 212 357 c 0
 185 307 168 241 168 184 c 0
 168 104 212 54 283 54 c 0
 352 54 406 90 444 159 c 0
 471 209 488 274 488 333 c 0
 488 414 445 462 371 462 c 0
397 740 m 1
 509 740 l 1
 329 590 l 1
 269 590 l 1
 397 740 l 1
571 740 m 1
 683 740 l 1
 503 590 l 1
 443 590 l 1
 571 740 l 1
EndSplineSet
Ligature: 0 0 'liga' o uni030B
EndChar
StartChar: racute
Encoding: 358 341 251
Width: 333
Flags: W
HStem: 0 21G<69 153> 504 20G<180 256> 720 20G<386 498>
DStem: 180 524 256 524 69 0 239 442 180 524 211 272 69 0 153 0
Fore
180 524 m 1
 256 524 l 1
 239 442 l 1
 301 513 346 539 404 539 c 0
 415 539 423 538 436 536 c 1
 418 451 l 1
 308 455 237 394 211 272 c 2
 153 0 l 1
 69 0 l 1
 180 524 l 1
386 740 m 1
 498 740 l 1
 318 592 l 1
 258 592 l 1
 386 740 l 1
EndSplineSet
Ligature: 0 0 'liga' r acutecomb
EndChar
StartChar: sacute
Encoding: 359 347 252
Width: 500
Flags: W
HStem: -23 77<240 270> 462 77<332 358> 720 20G<433 545>
VStem: 61 93<105 131> 123 88<345 367> 405 88<150 173> 431 89<400 421>
Fore
514 378 m 1xea
 430 378 l 1
 431 386 431 393 431 400 c 0
 431 439 398 462 339 462 c 0
 295 462 265 452 241 429 c 0
 223 412 211 387 211 367 c 0xea
 211 341 240 321 296 307 c 2
 372 288 l 2
 460 266 493 234 493 173 c 0
 493 54 396 -23 247 -23 c 0
 131 -23 61 25 61 105 c 0
 61 121 62 133 67 156 c 1
 156 156 l 1
 155 146 154 137 154 131 c 0
 154 81 193 54 262 54 c 0
 305 54 348 67 373 88 c 0
 389 101 405 132 405 150 c 0xf4
 405 159 399 174 392 183 c 0
 383 194 368 200 335 209 c 2
 261 228 l 2
 158 255 123 284 123 345 c 0
 123 392 147 444 183 479 c 0
 224 518 285 539 356 539 c 0
 453 539 520 491 520 421 c 0
 520 408 519 399 514 378 c 1xea
433 740 m 1
 545 740 l 1
 365 592 l 1
 305 592 l 1
 433 740 l 1
EndSplineSet
Ligature: 0 0 'liga' s acutecomb
EndChar
StartChar: scaron
Encoding: 360 353 253
Width: 500
Flags: W
HStem: -23 77<240 270> 462 77<332 358> 720 20G<260 323 483 547>
VStem: 61 93<105 131> 123 88<345 367> 405 88<150 173> 431 89<400 421>
Fore
514 378 m 1xea
 430 378 l 1
 431 386 431 393 431 400 c 0
 431 439 398 462 339 462 c 0
 295 462 265 452 241 429 c 0
 223 412 211 387 211 367 c 0xea
 211 341 240 321 296 307 c 2
 372 288 l 2
 460 266 493 234 493 173 c 0
 493 54 396 -23 247 -23 c 0
 131 -23 61 25 61 105 c 0
 61 121 62 133 67 156 c 1
 156 156 l 1
 155 146 154 137 154 131 c 0
 154 81 193 54 262 54 c 0
 305 54 348 67 373 88 c 0
 389 101 405 132 405 150 c 0xf4
 405 159 399 174 392 183 c 0
 383 194 368 200 335 209 c 2
 261 228 l 2
 158 255 123 284 123 345 c 0
 123 392 147 444 183 479 c 0
 224 518 285 539 356 539 c 0
 453 539 520 491 520 421 c 0
 520 408 519 399 514 378 c 1xea
419 592 m 1
 324 592 l 1
 260 740 l 1
 323 740 l 1
 379 642 l 1
 483 740 l 1
 547 740 l 1
 419 592 l 1
EndSplineSet
Ligature: 0 0 'liga' s uni030C
EndChar
StartChar: scommaaccent
Encoding: 361 537 254
Width: 500
Flags: W
HStem: -284 38<143 159> -23 77<240 274> 462 77<332 358>
VStem: 61 93<105 131> 123 88<345 367> 405 88<150 173> 431 89<400 421>
Fore
514 378 m 1xea
 430 378 l 1
 431 386 431 393 431 400 c 0
 431 439 398 462 339 462 c 0
 295 462 265 452 241 429 c 0
 223 412 211 387 211 367 c 0xea
 211 341 240 321 296 307 c 2
 372 288 l 2
 460 266 493 234 493 173 c 0
 493 54 396 -23 247 -23 c 0
 131 -23 61 25 61 105 c 0
 61 121 62 133 67 156 c 1
 156 156 l 1
 155 146 154 137 154 131 c 0
 154 81 193 54 262 54 c 0
 305 54 348 67 373 88 c 0
 389 101 405 132 405 150 c 0xf4
 405 159 399 174 392 183 c 0
 383 194 368 200 335 209 c 2
 261 228 l 2
 158 255 123 284 123 345 c 0
 123 392 147 444 183 479 c 0
 224 518 285 539 356 539 c 0
 453 539 520 491 520 421 c 0
 520 408 519 399 514 378 c 1xea
191 -60 m 1
 291 -60 l 1
 272 -153 l 1
 254 -235 206 -284 143 -284 c 1
 151 -246 l 1
 190 -246 214 -217 225 -158 c 1
 170 -158 l 1
 191 -60 l 1
EndSplineSet
Ligature: 0 0 'liga' s uni0326
EndChar
StartChar: tcaron
Encoding: 362 357 255
Width: 319
Flags: W
HStem: -23 72<186 219> 457 67<121 179 277 352> 577 38<344 354> 683 20G<371 426>
VStem: 97 86<56 76>
DStem: 179 457 263 457 100 87 185 90 224 668 308 668 193 524 277 524
Fore
366 524 m 1
 352 457 l 1
 263 457 l 1
 185 90 l 1
 184 84 183 79 183 76 c 0
 183 60 197 49 219 49 c 0
 231 49 236 50 267 57 c 1
 251 -16 l 1
 237 -20 206 -23 186 -23 c 0
 131 -23 97 7 97 56 c 0
 97 66 98 77 100 87 c 2
 179 457 l 1
 108 457 l 1
 122 524 l 1
 193 524 l 1
 224 668 l 1
 308 668 l 1
 277 524 l 1
 366 524 l 1
392 801 m 1
 492 801 l 1
 473 708 l 1
 455 626 407 577 344 577 c 1
 352 615 l 1
 391 615 415 644 426 703 c 1
 371 703 l 1
 392 801 l 1
EndSplineSet
Ligature: 0 0 'liga' t uni030C
EndChar
StartChar: udieresis
Encoding: 363 252 256
Width: 556
Flags: W
HStem: -23 72<226 268> 504 20G<177 261 510 594> 612 103<289 372 450 533>
VStem: 88 91<86 126>
DStem: 177 524 261 524 91 120 182 153 290 715 394 715 268 612 372 612 451 715 555 715 429 612 533 612 510 524 594 524 447 227 483 0
Fore
483 0 m 1
 407 0 l 1
 419 57 l 1
 361 1 304 -23 226 -23 c 0
 140 -23 88 18 88 86 c 0
 88 99 89 110 91 120 c 2
 177 524 l 1
 261 524 l 1
 182 153 l 2
 180 143 179 134 179 126 c 0
 179 79 214 49 268 49 c 0
 353 49 424 119 447 227 c 2
 510 524 l 1
 594 524 l 1
 483 0 l 1
394 715 m 1
 372 612 l 1
 268 612 l 1
 290 715 l 1
 394 715 l 1
555 715 m 1
 533 612 l 1
 429 612 l 1
 451 715 l 1
 555 715 l 1
EndSplineSet
Ligature: 0 0 'liga' u uni0308
EndChar
StartChar: uacute
Encoding: 364 250 257
Width: 556
Flags: W
HStem: -23 72<226 268> 504 20G<177 261 510 594> 720 20G<463 575>
VStem: 88 91<86 126>
DStem: 177 524 261 524 91 120 182 153 510 524 594 524 447 227 483 0
Fore
483 0 m 1
 407 0 l 1
 419 57 l 1
 361 1 304 -23 226 -23 c 0
 140 -23 88 18 88 86 c 0
 88 99 89 110 91 120 c 2
 177 524 l 1
 261 524 l 1
 182 153 l 2
 180 143 179 134 179 126 c 0
 179 79 214 49 268 49 c 0
 353 49 424 119 447 227 c 2
 510 524 l 1
 594 524 l 1
 483 0 l 1
463 740 m 1
 575 740 l 1
 395 592 l 1
 335 592 l 1
 463 740 l 1
EndSplineSet
Ligature: 0 0 'liga' u acutecomb
EndChar
StartChar: ugrave
Encoding: 365 249 258
Width: 556
Flags: W
HStem: -23 72<226 268> 504 20G<177 261 510 594> 720 20G<270 376>
VStem: 88 91<86 126>
DStem: 177 524 261 524 91 120 182 153 510 524 594 524 447 227 483 0
Fore
483 0 m 1
 407 0 l 1
 419 57 l 1
 361 1 304 -23 226 -23 c 0
 140 -23 88 18 88 86 c 0
 88 99 89 110 91 120 c 2
 177 524 l 1
 261 524 l 1
 182 153 l 2
 180 143 179 134 179 126 c 0
 179 79 214 49 268 49 c 0
 353 49 424 119 447 227 c 2
 510 524 l 1
 594 524 l 1
 483 0 l 1
376 740 m 1
 448 592 l 1
 395 592 l 1
 270 740 l 1
 376 740 l 1
EndSplineSet
Ligature: 0 0 'liga' u gravecomb
EndChar
StartChar: ucircumflex
Encoding: 366 251 259
Width: 556
Flags: W
HStem: -23 72<226 268> 504 20G<177 261 510 594> 721 20G<380 475>
VStem: 88 91<86 126>
DStem: 177 524 261 524 91 120 182 153 510 524 594 524 447 227 483 0
Fore
483 0 m 1
 407 0 l 1
 419 57 l 1
 361 1 304 -23 226 -23 c 0
 140 -23 88 18 88 86 c 0
 88 99 89 110 91 120 c 2
 177 524 l 1
 261 524 l 1
 182 153 l 2
 180 143 179 134 179 126 c 0
 179 79 214 49 268 49 c 0
 353 49 424 119 447 227 c 2
 510 524 l 1
 594 524 l 1
 483 0 l 1
380 741 m 1
 475 741 l 1
 539 591 l 1
 476 591 l 1
 420 690 l 1
 316 591 l 1
 252 591 l 1
 380 741 l 1
EndSplineSet
Ligature: 0 0 'liga' u uni0302
EndChar
StartChar: uring
Encoding: 367 367 260
Width: 556
Flags: W
HStem: -23 72<226 268> 504 20G<177 261 510 594> 579 44<395 409> 710 44<418 434>
VStem: 88 91<86 126> 324 46<648 660> 459 45<673 687>
DStem: 177 524 261 524 91 120 182 153 510 524 594 524 447 227 483 0
Fore
483 0 m 1
 407 0 l 1
 419 57 l 1
 361 1 304 -23 226 -23 c 0
 140 -23 88 18 88 86 c 0
 88 99 89 110 91 120 c 2
 177 524 l 1
 261 524 l 1
 182 153 l 2
 180 143 179 134 179 126 c 0
 179 79 214 49 268 49 c 0
 353 49 424 119 447 227 c 2
 510 524 l 1
 594 524 l 1
 483 0 l 1
432 754 m 0
 473 754 504 725 504 687 c 0
 504 631 452 579 395 579 c 0
 355 579 324 610 324 649 c 0
 324 702 378 754 432 754 c 0
425 710 m 0
 397 710 370 684 370 658 c 0
 370 637 385 623 405 623 c 0
 432 623 459 649 459 675 c 0
 459 695 444 710 425 710 c 0
EndSplineSet
Ligature: 0 0 'liga' u uni030A
EndChar
StartChar: uhungarumlaut
Encoding: 368 369 261
Width: 556
Flags: W
HStem: -23 72<226 268> 504 20G<177 261 510 594> 720 20G<397 509 571 683>
VStem: 88 91<86 126>
DStem: 177 524 261 524 91 120 182 153 510 524 594 524 447 227 483 0
Fore
483 0 m 1
 407 0 l 1
 419 57 l 1
 361 1 304 -23 226 -23 c 0
 140 -23 88 18 88 86 c 0
 88 99 89 110 91 120 c 2
 177 524 l 1
 261 524 l 1
 182 153 l 2
 180 143 179 134 179 126 c 0
 179 79 214 49 268 49 c 0
 353 49 424 119 447 227 c 2
 510 524 l 1
 594 524 l 1
 483 0 l 1
397 740 m 1
 509 740 l 1
 329 590 l 1
 269 590 l 1
 397 740 l 1
571 740 m 1
 683 740 l 1
 503 590 l 1
 443 590 l 1
 571 740 l 1
EndSplineSet
Ligature: 0 0 'liga' u uni030B
EndChar
StartChar: yacute
Encoding: 369 253 262
Width: 500
Flags: W
HStem: -218 81<55 73> 504 20G<132 222 501 590> 720 20G<434 546>
DStem: 132 524 222 524 200 -4 268 117 501 524 590 524 268 117 222 -110
Fore
501 524 m 1
 590 524 l 1
 222 -110 l 2
 179 -184 128 -218 57 -218 c 0
 38 -218 26 -216 8 -208 c 1
 24 -133 l 1
 51 -136 58 -137 68 -137 c 0
 105 -137 121 -127 148 -85 c 2
 200 -4 l 1
 132 524 l 1
 222 524 l 1
 268 117 l 1
 501 524 l 1
434 740 m 1
 546 740 l 1
 366 592 l 1
 306 592 l 1
 434 740 l 1
EndSplineSet
Ligature: 0 0 'liga' y acutecomb
EndChar
StartChar: zacute
Encoding: 370 378 263
Width: 500
Flags: W
HStem: 0 72<147 458> 452 72<164 444> 720 20G<440 552>
DStem: 444 452 539 449 49 74 147 72
Fore
557 524 m 1
 539 449 l 1
 147 72 l 1
 473 72 l 1
 458 0 l 1
 31 0 l 1
 49 74 l 1
 444 452 l 1
 150 452 l 1
 165 524 l 1
 557 524 l 1
440 740 m 1
 552 740 l 1
 372 592 l 1
 312 592 l 1
 440 740 l 1
EndSplineSet
Ligature: 0 0 'liga' z acutecomb
EndChar
StartChar: zcaron
Encoding: 371 382 264
Width: 500
Flags: W
HStem: 0 72<147 458> 452 72<164 444> 720 20G<261 324 484 548>
DStem: 444 452 539 449 49 74 147 72
Fore
557 524 m 1
 539 449 l 1
 147 72 l 1
 473 72 l 1
 458 0 l 1
 31 0 l 1
 49 74 l 1
 444 452 l 1
 150 452 l 1
 165 524 l 1
 557 524 l 1
420 592 m 1
 325 592 l 1
 261 740 l 1
 324 740 l 1
 380 642 l 1
 484 740 l 1
 548 740 l 1
 420 592 l 1
EndSplineSet
Ligature: 0 0 'liga' z uni030C
EndChar
StartChar: zdotaccent
Encoding: 372 380 265
Width: 500
Flags: W
HStem: 0 72<147 458> 452 72<164 444>
DStem: 346 715 450 715 324 612 428 612 444 452 539 449 49 74 147 72
Fore
557 524 m 1
 539 449 l 1
 147 72 l 1
 473 72 l 1
 458 0 l 1
 31 0 l 1
 49 74 l 1
 444 452 l 1
 150 452 l 1
 165 524 l 1
 557 524 l 1
450 715 m 1
 428 612 l 1
 324 612 l 1
 346 715 l 1
 450 715 l 1
EndSplineSet
Ligature: 0 0 'liga' z uni0307
EndChar
StartChar: ydieresis
Encoding: 373 255 266
Width: 500
Flags: W
HStem: -218 81<55 73> 504 20G<132 222 501 590> 612 103<267 350 428 511>
DStem: 132 524 222 524 200 -4 268 117 268 715 372 715 246 612 350 612 429 715 533 715 407 612 511 612 501 524 590 524 268 117 222 -110
Fore
501 524 m 1
 590 524 l 1
 222 -110 l 2
 179 -184 128 -218 57 -218 c 0
 38 -218 26 -216 8 -208 c 1
 24 -133 l 1
 51 -136 58 -137 68 -137 c 0
 105 -137 121 -127 148 -85 c 2
 200 -4 l 1
 132 524 l 1
 222 524 l 1
 268 117 l 1
 501 524 l 1
372 715 m 1
 350 612 l 1
 246 612 l 1
 268 715 l 1
 372 715 l 1
533 715 m 1
 511 612 l 1
 407 612 l 1
 429 715 l 1
 533 715 l 1
EndSplineSet
Ligature: 0 0 'liga' y uni0308
EndChar
StartChar: tcommaaccent
Encoding: 374 355 267
Width: 278
Flags: W
HStem: -284 38<55 65> -23 72<186 218> 457 67<121 179 277 351>
VStem: 97 86<56 76>
DStem: 179 457 263 457 100 87 185 90 224 668 308 668 193 524 277 524
Fore
366 524 m 1
 351 457 l 1
 263 457 l 1
 185 90 l 2
 184 85 183 80 183 76 c 0
 183 60 197 49 218 49 c 0
 231 49 238 50 267 57 c 1
 251 -16 l 1
 236 -20 206 -23 186 -23 c 0
 131 -23 97 7 97 56 c 0
 97 68 98 77 100 87 c 2
 179 457 l 1
 108 457 l 1
 122 524 l 1
 193 524 l 1
 224 668 l 1
 308 668 l 1
 277 524 l 1
 366 524 l 1
103 -60 m 1
 203 -60 l 1
 184 -153 l 1
 166 -235 118 -284 55 -284 c 1
 63 -246 l 1
 102 -246 126 -217 137 -158 c 1
 82 -158 l 1
 103 -60 l 1
EndSplineSet
Ligature: 0 0 'liga' t uni0327
EndChar
StartChar: amacron
Encoding: 375 257 268
Width: 556
Flags: W
HStem: -23 72<209 242> 462 77<368 394> 627 69<291 552>
VStem: 65 88<103 122> 478 90<398 426>
DStem: 451 258 562 389 431 164 498 88
Fore
552 51 m 1
 539 -14 l 1
 533 -15 527 -16 525 -17 c 0
 500 -23 497 -23 486 -23 c 0
 438 -23 410 2 410 43 c 2
 410 47 l 1
 410 54 l 1
 369 18 354 8 322 -3 c 0
 286 -16 244 -23 209 -23 c 0
 119 -23 65 25 65 105 c 0
 65 163 95 216 147 249 c 0
 196 280 238 290 372 302 c 0
 445 309 464 320 473 361 c 1
 476 379 l 1
 477 387 478 394 478 398 c 0
 478 435 432 462 372 462 c 0
 329 462 287 447 265 425 c 0
 251 411 244 397 235 369 c 1
 151 369 l 1
 170 480 255 539 394 539 c 0
 499 539 568 494 568 426 c 0
 568 416 568 416 562 389 c 1
 498 88 l 1
 497 85 497 82 497 78 c 0
 497 58 509 49 535 49 c 0
 539 49 543 49 552 51 c 1
431 164 m 2
 451 258 l 1
 407 243 399 242 305 229 c 0
 256 222 226 214 202 199 c 0
 172 181 153 148 153 115 c 0
 153 73 185 49 242 49 c 0
 330 49 418 102 431 164 c 2
567 696 m 1
 552 627 l 1
 277 627 l 1
 292 696 l 1
 567 696 l 1
EndSplineSet
Ligature: 0 0 'liga' a uni0304
EndChar
StartChar: emacron
Encoding: 376 275 269
Width: 556
Flags: W
HStem: -23 77<280 298> 234 72<195 563> 462 77<371 391> 627 69<287 548>
VStem: 84 88<168 190> 492 88<339 368>
Fore
563 234 m 1
 177 234 l 1
 173 219 172 209 172 188 c 0
 172 103 217 54 296 54 c 0
 363 54 416 90 452 159 c 1
 536 159 l 1
 505 51 402 -23 282 -23 c 0
 225 -23 181 -7 146 27 c 0
 107 64 84 119 84 173 c 0
 84 254 121 368 168 431 c 0
 218 498 302 539 389 539 c 0
 497 539 580 464 580 368 c 0
 580 341 575 299 566 251 c 2
 563 234 l 1
195 306 m 1
 489 306 l 1
 491 322 492 329 492 339 c 0
 492 414 447 462 376 462 c 0
 295 462 221 398 195 306 c 1
563 696 m 1
 548 627 l 1
 273 627 l 1
 288 696 l 1
 563 696 l 1
EndSplineSet
Ligature: 0 0 'liga' e uni0304
EndChar
StartChar: imacron
Encoding: 377 299 270
Width: 222
Flags: W
HStem: 0 21G<66 150> 504 20G<177 261> 627 69<138 358>
DStem: 177 524 261 524 66 0 150 0
Fore
261 524 m 1
 150 0 l 1
 66 0 l 1
 177 524 l 1
 261 524 l 1
373 696 m 1
 358 627 l 1
 124 627 l 1
 139 696 l 1
 373 696 l 1
EndSplineSet
Ligature: 0 0 'liga' i uni0304
EndChar
StartChar: kcommaaccent
Encoding: 378 311 271
Width: 500
Flags: W
HStem: -284 38<159 171> 0 21G<58 142 406 502> 504 20G<476 584> 709 20G<213 297>
DStem: 213 729 297 729 58 0 207 306 213 729 185 203 58 0 142 0 292 291 362 343 406 0 502 0 476 524 584 524 207 306 362 343
Fore
297 729 m 1
 207 306 l 1
 476 524 l 1
 584 524 l 1
 362 343 l 1
 502 0 l 1
 406 0 l 1
 292 291 l 1
 185 203 l 1
 142 0 l 1
 58 0 l 1
 213 729 l 1
 297 729 l 1
207 -60 m 1
 307 -60 l 1
 288 -153 l 1
 270 -235 222 -284 159 -284 c 1
 167 -246 l 1
 206 -246 230 -217 241 -158 c 1
 186 -158 l 1
 207 -60 l 1
EndSplineSet
Ligature: 0 0 'liga' k uni0327
EndChar
StartChar: lcommaaccent
Encoding: 379 316 272
Width: 222
Flags: W
HStem: -284 38<-1 9> 0 21G<68 152> 709 20G<223 307>
DStem: 223 729 307 729 68 0 152 0
Fore
307 729 m 1
 152 0 l 1
 68 0 l 1
 223 729 l 1
 307 729 l 1
47 -60 m 1
 147 -60 l 1
 128 -153 l 1
 110 -235 62 -284 -1 -284 c 1
 7 -246 l 1
 46 -246 70 -217 81 -158 c 1
 26 -158 l 1
 47 -60 l 1
EndSplineSet
Ligature: 0 0 'liga' l uni0327
EndChar
StartChar: ncommaaccent
Encoding: 380 326 273
Width: 556
Flags: W
HStem: -284 38<169 183> 0 21G<70 154 406 490> 467 72<399 438>
VStem: 486 88<386 414>
DStem: 181 524 215 289 70 0 154 0 480 349 570 376 406 0 490 0
Fore
181 524 m 1
 257 524 l 1
 244 459 l 1
 296 512 362 539 438 539 c 0
 521 539 574 490 574 414 c 0
 574 401 573 389 570 376 c 1
 490 0 l 1
 406 0 l 1
 480 349 l 1
 484 365 486 380 486 386 c 0
 486 432 449 467 399 467 c 0
 309 467 239 399 215 289 c 1
 154 0 l 1
 70 0 l 1
 181 524 l 1
217 -60 m 1
 317 -60 l 1
 298 -153 l 1
 280 -235 232 -284 169 -284 c 1
 177 -246 l 1
 216 -246 240 -217 251 -158 c 1
 196 -158 l 1
 217 -60 l 1
EndSplineSet
Ligature: 0 0 'liga' n uni0327
EndChar
StartChar: omacron
Encoding: 381 333 274
Width: 556
Flags: W
HStem: -23 77<267 289> 462 77<367 386> 627 69<283 544>
VStem: 80 88<163 186> 488 88<328 354>
Fore
384 539 m 0
 442 539 487 523 521 490 c 0
 556 456 576 405 576 352 c 0
 576 265 543 156 497 93 c 0
 441 16 365 -23 269 -23 c 0
 157 -23 80 53 80 164 c 0
 80 249 113 359 158 423 c 0
 209 497 291 539 384 539 c 0
371 462 m 0
 305 462 249 425 212 357 c 0
 185 307 168 241 168 184 c 0
 168 104 212 54 283 54 c 0
 352 54 406 90 444 159 c 0
 471 209 488 274 488 333 c 0
 488 414 445 462 371 462 c 0
559 696 m 1
 544 627 l 1
 269 627 l 1
 284 696 l 1
 559 696 l 1
EndSplineSet
Ligature: 0 0 'liga' o uni0304
EndChar
StartChar: rcommaaccent
Encoding: 382 343 275
Width: 333
Flags: W
HStem: -284 38<5 15> 0 21G<69 153> 451 88<388 418>
DStem: 181 524 256 524 69 0 239 442 181 524 211 272 69 0 153 0
Fore
181 524 m 1
 256 524 l 1
 239 442 l 1
 302 513 346 539 404 539 c 0
 415 539 423 538 436 536 c 1
 418 451 l 1
 408 451 l 2
 305 452 235 388 211 272 c 1
 153 0 l 1
 69 0 l 1
 181 524 l 1
53 -60 m 1
 153 -60 l 1
 134 -153 l 1
 116 -235 68 -284 5 -284 c 1
 13 -246 l 1
 52 -246 76 -217 87 -158 c 1
 32 -158 l 1
 53 -60 l 1
EndSplineSet
Ligature: 0 0 'liga' r uni0327
EndChar
StartChar: umacron
Encoding: 383 363 276
Width: 556
Flags: W
HStem: -23 72<226 268> 504 20G<177 261 510 594> 627 69<284 545>
VStem: 88 91<86 126>
DStem: 177 524 261 524 91 120 182 153 510 524 594 524 447 227 483 0
Fore
483 0 m 1
 407 0 l 1
 419 57 l 1
 361 1 304 -23 226 -23 c 0
 140 -23 88 18 88 86 c 0
 88 99 89 110 91 120 c 2
 177 524 l 1
 261 524 l 1
 182 153 l 2
 180 143 179 134 179 126 c 0
 179 79 214 49 268 49 c 0
 353 49 424 119 447 227 c 2
 510 524 l 1
 594 524 l 1
 483 0 l 1
560 696 m 1
 545 627 l 1
 270 627 l 1
 285 696 l 1
 560 696 l 1
EndSplineSet
Ligature: 0 0 'liga' u uni0304
EndChar
StartChar: uogonek
Encoding: 384 371 277
Width: 556
Flags: W
HStem: -205 45<419 441> -23 72<226 268> 504 20G<177 261 510 594>
VStem: 88 91<86 126> 304 74<-127 -115>
DStem: 177 524 261 524 91 120 182 153 510 524 594 524 447 227 483 0
Fore
594 524 m 1
 483 0 l 1
 461 -12 447 -22 414 -53 c 0
 389 -75 378 -95 378 -115 c 0
 378 -140 403 -160 433 -160 c 0
 453 -160 478 -156 495 -150 c 1
 486 -195 l 1
 465 -202 446 -205 419 -205 c 0
 348 -205 304 -175 304 -127 c 0
 304 -79 348 -33 427 0 c 1
 407 0 l 1
 419 57 l 1
 361 1 304 -23 226 -23 c 0
 140 -23 88 18 88 86 c 0
 88 99 89 110 91 120 c 2
 177 524 l 1
 261 524 l 1
 182 153 l 2
 180 143 179 134 179 126 c 0
 179 79 214 49 268 49 c 0
 353 49 424 119 447 227 c 2
 510 524 l 1
 594 524 l 1
EndSplineSet
Ligature: 0 0 'liga' u uni0328
EndChar
StartChar: rcaron
Encoding: 385 345 278
Width: 333
Flags: W
HStem: 0 21G<69 153> 504 20G<180 256> 720 20G<199 262 422 486>
DStem: 180 524 256 524 69 0 239 442 180 524 211 272 69 0 153 0
Fore
180 524 m 1
 256 524 l 1
 239 442 l 1
 301 513 346 539 404 539 c 0
 415 539 423 538 436 536 c 1
 418 451 l 1
 308 455 237 394 211 272 c 2
 153 0 l 1
 69 0 l 1
 180 524 l 1
358 592 m 1
 263 592 l 1
 199 740 l 1
 262 740 l 1
 318 642 l 1
 422 740 l 1
 486 740 l 1
 358 592 l 1
EndSplineSet
Ligature: 0 0 'liga' r uni030C
EndChar
StartChar: scedilla
Encoding: 386 351 279
Width: 500
Flags: W
HStem: -214 43<172 198> -94 40<216 258> 462 77<332 358>
VStem: 61 93<105 131> 123 88<345 367> 247 78<-119 -105> 406 88<150 173> 431 90<400 421>
DStem: 214 -22 255 -23 176 -92 237 -56
Fore
255 -23 m 1xee
 237 -56 l 1
 250 -54 253 -54 258 -54 c 0
 295 -54 325 -77 325 -105 c 0
 325 -168 264 -214 180 -214 c 0
 142 -214 113 -206 62 -180 c 1
 90 -142 l 1
 130 -163 156 -171 184 -171 c 0
 221 -171 247 -148 247 -116 c 0
 247 -104 233 -94 216 -94 c 0
 211 -94 211 -94 196 -97 c 2
 189 -98 l 1
 176 -92 l 1
 214 -22 l 1
 112 -9 61 33 61 105 c 0
 61 121 63 133 67 156 c 1
 156 156 l 1
 155 146 154 137 154 131 c 0
 154 81 193 54 262 54 c 0
 305 54 349 67 374 88 c 0
 390 101 406 132 406 150 c 0xf6
 406 159 400 174 393 183 c 0
 384 194 369 200 335 209 c 2
 261 228 l 2
 158 255 123 284 123 345 c 0
 123 392 147 444 183 479 c 0
 224 518 286 539 356 539 c 0
 454 539 521 491 521 421 c 0
 521 409 519 399 514 378 c 1
 431 378 l 1
 431 389 l 1
 431 394 l 1
 431 400 l 2xed
 431 440 398 462 340 462 c 0
 295 462 265 452 241 429 c 0
 223 412 211 387 211 367 c 0
 211 341 240 321 296 307 c 2
 372 288 l 2
 461 266 494 234 494 173 c 0
 494 109 461 49 409 17 c 0
 366 -9 323 -20 255 -23 c 1xee
EndSplineSet
Ligature: 0 0 'liga' s uni0327
EndChar
StartChar: gcommaaccent
Encoding: 387 291 280
Width: 527
Flags: W
HStem: -218 72<177 199> -17 72<218 242> 462 77<322 350> 687 21G<396 451> 775 38<466 478>
VStem: 3 86<-91 -72> 45 88<165 186>
DStem: 496 524 572 524 479 446 479 85
Fore
496 524 m 1xfa
 572 524 l 1
 479 85 l 2
 452 -42 425 -103 375 -151 c 0
 330 -194 259 -218 180 -218 c 0
 73 -218 3 -168 3 -91 c 0
 3 -87 3 -81 4 -73 c 1
 5 -60 l 1
 89 -60 l 1
 89 -68 l 1
 89 -74 l 2xfc
 89 -119 129 -146 197 -146 c 0
 303 -146 357 -92 386 44 c 2
 390 63 l 1
 340 10 281 -17 218 -17 c 0
 116 -17 45 59 45 168 c 0
 45 260 83 373 136 439 c 0
 185 501 263 539 340 539 c 0
 374 539 406 528 432 509 c 0
 454 493 464 479 479 446 c 1
 496 524 l 1xfa
334 462 m 0
 271 462 215 425 179 360 c 0
 150 308 133 244 133 184 c 0xfa
 133 105 175 55 242 55 c 0
 302 55 361 93 394 154 c 0
 422 203 440 277 440 339 c 0
 440 414 398 462 334 462 c 0
430 589 m 1
 330 589 l 1
 350 682 l 2
 368 764 415 813 478 813 c 1
 470 775 l 1
 431 775 407 746 396 687 c 1
 451 687 l 1
 430 589 l 1
EndSplineSet
Ligature: 0 0 'liga' g uni0327
EndChar
StartChar: iogonek
Encoding: 388 303 281
Width: 222
Flags: W
HStem: -205 46<102 128> -20 20G<66 100> 504 20G<177 261> 709 20G<221 305>
VStem: 0 73<-128 -116>
DStem: 177 524 261 524 66 0 150 0 221 729 305 729 198 626 282 626
Fore
261 524 m 1
 150 0 l 1
 105 -35 73 -84 73 -116 c 0
 73 -142 94 -159 128 -159 c 0
 140 -159 142 -158 164 -150 c 1
 155 -195 l 1
 133 -202 120 -205 102 -205 c 0
 42 -205 0 -173 0 -128 c 0
 0 -88 36 -42 100 0 c 1
 66 0 l 1
 177 524 l 1
 261 524 l 1
305 729 m 1
 282 626 l 1
 198 626 l 1
 221 729 l 1
 305 729 l 1
EndSplineSet
Ligature: 0 0 'liga' i uni0328
EndChar
StartChar: Scommaaccent
Encoding: 389 536 282
Width: 667
Flags: W
HStem: -284 38<228 238> -23 81<317 362> 660 81<456 490>
VStem: 89 92<169 191> 178 96<492 518> 573 96<209 237> 622 92<551 571>
Fore
706 515 m 1xea
 618 515 l 1
 621 535 622 542 622 551 c 0
 622 580 609 612 590 629 c 0
 568 649 526 660 470 660 c 0
 404 660 355 644 318 611 c 0
 289 584 274 553 274 518 c 0xea
 274 474 298 454 375 432 c 2
 547 383 l 2
 594 370 623 350 645 315 c 0
 660 291 669 263 669 237 c 0
 669 181 633 108 582 61 c 0
 523 6 435 -23 330 -23 c 0
 179 -23 89 49 89 169 c 0
 89 190 91 206 98 232 c 1
 185 232 l 1
 182 213 181 204 181 191 c 0
 181 100 233 58 346 58 c 0
 426 58 485 77 526 114 c 0
 554 140 573 178 573 209 c 0xf4
 573 257 540 286 460 309 c 2
 289 357 l 2
 222 376 178 429 178 492 c 0
 178 543 209 614 250 656 c 0
 304 712 385 741 488 741 c 0
 566 741 619 725 660 689 c 0
 693 660 714 614 714 571 c 0
 714 556 712 543 706 515 c 1xea
276 -60 m 1
 376 -60 l 1
 357 -153 l 1
 339 -235 291 -284 228 -284 c 1
 236 -246 l 1
 275 -246 299 -217 310 -158 c 1
 255 -158 l 1
 276 -60 l 1
EndSplineSet
Ligature: 0 0 'liga' S uni0326
EndChar
StartChar: Eth
Encoding: 390 208 283
Width: 722
Flags: W
HStem: 0 82<200 394> 341 67<105 161 270 422> 647 82<244 506>
VStem: 663 96<463 497>
DStem: 161 341 255 341 89 0 200 82 244 729 321 647 176 408 270 408
Fore
161 341 m 1
 93 341 l 1
 106 408 l 1
 176 408 l 1
 244 729 l 1
 526 729 l 2
 591 729 644 711 682 677 c 0
 729 635 759 561 759 488 c 0
 759 363 711 217 643 134 c 0
 570 45 479 0 371 0 c 2
 89 0 l 1
 161 341 l 1
255 341 m 1
 200 82 l 1
 372 82 l 2
 463 82 539 125 591 205 c 0
 631 268 663 389 663 480 c 0
 663 585 599 647 492 647 c 2
 321 647 l 1
 270 408 l 1
 436 408 l 1
 422 341 l 1
 255 341 l 1
EndSplineSet
EndChar
StartChar: Dcroat
Encoding: 391 272 284
Width: 722
Flags: W
HStem: 0 82<200 394> 341 67<105 161 270 422> 647 82<244 506>
VStem: 663 96<463 497>
DStem: 161 341 255 341 89 0 200 82 244 729 321 647 176 408 270 408
Fore
161 341 m 1
 93 341 l 1
 106 408 l 1
 176 408 l 1
 244 729 l 1
 526 729 l 2
 591 729 644 711 682 677 c 0
 729 635 759 561 759 488 c 0
 759 363 711 217 643 134 c 0
 570 45 479 0 371 0 c 2
 89 0 l 1
 161 341 l 1
255 341 m 1
 200 82 l 1
 372 82 l 2
 463 82 539 125 591 205 c 0
 631 268 663 389 663 480 c 0
 663 585 599 647 492 647 c 2
 321 647 l 1
 270 408 l 1
 436 408 l 1
 422 341 l 1
 255 341 l 1
EndSplineSet
EndChar
StartChar: Thorn
Encoding: 392 222 285
Width: 667
Flags: W
HStem: 0 21G<91 185> 191 82<243 460> 529 82<315 508> 529 200<246 492>
VStem: 612 96<430 450>
DStem: 246 729 340 729 91 0 315 611 246 729 297 529 91 0 243 273 246 729 226 191 91 0 185 0
Fore
226 191 m 1xe8
 185 0 l 1
 91 0 l 1
 246 729 l 1
 340 729 l 1xd8
 315 611 l 1
 523 611 l 2
 645 611 708 556 708 450 c 0
 708 369 672 293 609 243 c 0
 564 207 517 191 454 191 c 2
 226 191 l 1xe8
243 273 m 1
 437 273 l 2
 501 273 544 292 577 334 c 0
 600 364 612 397 612 432 c 0
 612 495 570 529 492 529 c 2xe8
 297 529 l 1
 243 273 l 1
EndSplineSet
EndChar
StartChar: dcroat
Encoding: 393 273 286
Width: 556
Flags: W
HStem: -23 77<244 278> 462 77<344 373> 600 53<399 538 634 684> 709 20G<566 650>
VStem: 73 88<168 192>
DStem: 538 600 622 600 506 448 495 0
Fore
550 653 m 1
 566 729 l 1
 650 729 l 1
 634 653 l 1
 695 653 l 1
 684 600 l 1
 622 600 l 1
 495 0 l 1
 414 0 l 1
 430 76 l 1
 416 48 403 33 373 15 c 0
 333 -9 287 -23 244 -23 c 0
 140 -23 73 53 73 170 c 0
 73 271 107 376 160 440 c 0
 212 503 286 539 363 539 c 0
 433 539 474 513 506 448 c 1
 538 600 l 1
 388 600 l 1
 400 653 l 1
 550 653 l 1
355 462 m 0
 291 462 243 430 205 361 c 0
 178 310 161 246 161 190 c 0
 161 104 204 54 278 54 c 0
 339 54 388 88 427 155 c 0
 457 207 473 268 473 327 c 0
 473 412 429 462 355 462 c 0
EndSplineSet
EndChar
StartChar: eth
Encoding: 394 240 287
Width: 556
Flags: W
HStem: -23 77<271 297> 462 72<352 385>
VStem: 80 88<163 186> 488 88<328 349>
DStem: 308 644 351 609 219 603 251 564 476 719 515 681 377 676 420 640
Fore
251 564 m 1
 219 603 l 1
 308 644 l 1
 299 652 291 659 288 661 c 0
 286 663 276 669 261 679 c 0
 257 681 245 689 233 698 c 1
 275 743 l 1
 297 729 l 2
 316 718 328 710 332 707 c 0
 345 698 357 690 369 681 c 0
 370 681 373 679 377 676 c 1
 476 719 l 1
 515 681 l 1
 420 640 l 1
 525 550 576 454 576 347 c 0
 576 265 542 155 497 93 c 0
 443 17 364 -23 273 -23 c 0
 215 -23 168 -6 135 26 c 0
 101 60 80 111 80 164 c 0
 80 248 113 358 158 423 c 0
 206 493 284 534 369 534 c 0
 395 534 407 531 435 517 c 1
 403 559 387 576 351 609 c 1
 251 564 l 1
371 462 m 0
 305 462 249 425 212 357 c 0
 185 307 168 241 168 184 c 0
 168 104 212 54 283 54 c 0
 352 54 406 90 444 159 c 0
 471 209 488 274 488 333 c 0
 488 414 445 462 371 462 c 0
EndSplineSet
EndChar
StartChar: thorn
Encoding: 395 254 288
Width: 556
Flags: W
HStem: -23 77<289 312> 462 77<379 412> 709 20G<207 291>
VStem: 498 88<314 346>
DStem: 207 729 291 729 7 -213 230 440 207 729 151 68 7 -213 91 -213
Fore
7 -213 m 1
 207 729 l 1
 291 729 l 1
 230 440 l 1
 260 498 336 539 412 539 c 0
 519 539 586 464 586 344 c 0
 586 246 552 142 498 76 c 0
 447 13 372 -23 294 -23 c 0
 223 -23 182 3 151 68 c 1
 91 -213 l 1
 7 -213 l 1
379 462 m 0
 317 462 267 428 230 361 c 0
 200 309 183 244 183 184 c 0
 183 104 229 54 302 54 c 0
 367 54 417 87 454 155 c 0
 481 205 498 270 498 324 c 0
 498 410 454 462 379 462 c 0
EndSplineSet
EndChar
StartChar: Euro
Encoding: 396 8364 289
Width: 556
Flags: W
HStem: -22 78<294 317> 254 59<46 96 191 401> 379 59<73 118 227 476> 633 76<434 458>
VStem: 95 91<217 254>
Fore
47 313 m 1
 102 313 l 1
 105 331 111 356 118 379 c 1
 39 379 l 1
 74 438 l 1
 137 438 l 1
 162 503 195 559 239 608 c 0
 299 675 372 709 458 709 c 0
 527 709 580 689 636 642 c 1
 587 562 l 1
 526 615 488 633 436 633 c 0
 349 633 287 575 227 438 c 1
 512 438 l 1
 476 379 l 1
 206 379 l 1
 200 361 194 334 191 313 c 1
 437 313 l 1
 401 254 l 1
 186 254 l 1
 186 240 l 2
 186 118 229 56 313 56 c 0
 362 56 401 69 492 117 c 1
 472 24 l 1
 415 -7 356 -22 294 -22 c 0
 163 -22 95 62 95 225 c 0
 95 228 95 243 96 254 c 1
 12 254 l 1
 47 313 l 1
EndSplineSet
EndChar
StartChar: onesuperior
Encoding: 397 185 290
Width: 390
Flags: W
HStem: 689 20G<349 393>
DStem: 302 580 393 709 239 284 303 284
Fore
302 580 m 1
 205 580 l 1
 215 626 l 1
 306 638 316 644 349 709 c 1
 393 709 l 1
 303 284 l 1
 239 284 l 1
 302 580 l 1
EndSplineSet
EndChar
StartChar: twosuperior
Encoding: 398 178 291
Width: 390
Flags: W
HStem: 284 60<181 400> 654 55<323 347>
VStem: 403 65<587 605>
Fore
412 344 m 1
 400 284 l 1
 100 284 l 1
 128 385 155 416 265 472 c 2
 328 503 l 2
 375 525 403 559 403 594 c 0
 403 630 376 654 335 654 c 0
 279 654 247 624 230 555 c 1
 167 555 l 1
 191 662 246 709 345 709 c 0
 420 709 468 668 468 603 c 0
 468 543 427 493 344 452 c 2
 276 419 l 2
 222 392 200 375 181 344 c 1
 412 344 l 1
EndSplineSet
EndChar
StartChar: threesuperior
Encoding: 399 179 292
Width: 390
Flags: W
HStem: 270 55<245 269> 475 52<266 300> 654 55<326 340>
VStem: 123 65<371 383> 365 65<415 434> 390 65<604 618>
Fore
256 474 m 1xf8
 267 527 l 1
 279 527 l 1
 283 527 l 2
 356 527 390 552 390 606 c 0
 390 636 366 654 328 654 c 0
 296 654 269 642 252 619 c 0
 243 608 238 596 231 565 c 1
 168 565 l 1
 181 613 191 636 211 657 c 0
 242 691 286 709 338 709 c 0
 409 709 455 673 455 618 c 0xf4
 455 567 436 535 386 504 c 1
 417 489 430 467 430 434 c 0
 430 340 351 270 247 270 c 0
 167 270 123 307 123 373 c 0
 123 383 124 392 126 414 c 1
 190 414 l 1
 189 402 l 1
 188 393 188 387 188 381 c 0
 188 347 215 325 256 325 c 0
 321 325 365 365 365 425 c 0
 365 457 336 475 287 475 c 0
 280 475 272 475 256 474 c 1xf8
EndSplineSet
EndChar
StartChar: degree
Encoding: 400 176 293
Width: 606
Flags: W
HStem: 383 43<441 452> 643 43<434 452>
VStem: 291 45<535 544> 549 45<535 544>
Fore
442 686 m 0
 526 686 594 618 594 535 c 0
 594 450 526 383 441 383 c 0
 359 383 291 452 291 535 c 0
 291 618 359 686 442 686 c 0
443 643 m 0
 384 643 336 594 336 535 c 0
 336 476 384 426 441 426 c 0
 501 426 549 474 549 535 c 0
 549 594 501 643 443 643 c 0
EndSplineSet
EndChar
StartChar: minus
Encoding: 401 8722 294
Width: 584
Flags: W
HStem: 197 72<95 586>
Fore
601 269 m 1
 586 197 l 1
 81 197 l 1
 96 269 l 1
 601 269 l 1
EndSplineSet
EndChar
StartChar: multiply
Encoding: 402 215 295
Width: 584
Flags: W
DStem: 176 377 236 426 291 231 351 281 291 231 330 181 113 84 152 35 330 181 390 231 446 34 507 84 529 427 568 377 351 281 390 231
Fore
529 427 m 1
 568 377 l 1
 390 231 l 1
 507 84 l 1
 446 34 l 1
 330 181 l 1
 152 35 l 1
 113 84 l 1
 291 231 l 1
 176 377 l 1
 236 426 l 1
 351 281 l 1
 529 427 l 1
EndSplineSet
EndChar
StartChar: divide
Encoding: 403 247 296
Width: 584
Flags: W
HStem: 0 104<305 307> 197 72<106 576> 358 104<369.088 382>
VStem: 253 104<47 54> 327 104<407 417>
Fore
591 269 m 1xe0
 576 197 l 1
 92 197 l 1
 107 269 l 1
 591 269 l 1xe0
305 104 m 0
 334 104 357 81 357 51 c 0
 357 24 333 0 305 0 c 0
 277 0 253 24 253 52 c 0xf0
 253 80 277 104 305 104 c 0
379 462 m 0
 408 462 431 439 431 409 c 0
 431 382 407 358 379 358 c 0
 351 358 327 382 327 410 c 0xe8
 327 439 350 462 379 462 c 0
EndSplineSet
EndChar
StartChar: trademark
Encoding: 404 8482 297
Width: 1000
Flags: W
HStem: 674 55<219 362 220 583>
DStem: 362 674 430 674 281 292 349 292 648 729 695 633 555 292 622 292 695 633 742 729 743 292 797 367 1006 729 1009 633 797 367 814 292 1009 633 1096 729 936 292 1003 292
Fore
430 674 m 1
 349 292 l 1
 281 292 l 1
 362 674 l 1
 208 674 l 1
 220 729 l 1
 594 729 l 1
 583 674 l 1
 430 674 l 1
814 292 m 1
 743 292 l 1
 695 633 l 1
 622 292 l 1
 555 292 l 1
 648 729 l 1
 742 729 l 1
 797 367 l 1
 1006 729 l 1
 1096 729 l 1
 1003 292 l 1
 936 292 l 1
 1009 633 l 1
 814 292 l 1
EndSplineSet
Ligature: 0 1 'liga' T M
EndChar
StartChar: plusminus
Encoding: 405 177 298
Width: 584
Flags: W
HStem: 0 72<64 534> 357 72<140 333 418 610>
DStem: 333 357 403 357 288 149 359 149 391 633 462 633 348 429 418 429
Fore
625 429 m 1
 610 357 l 1
 403 357 l 1
 359 149 l 1
 288 149 l 1
 333 357 l 1
 126 357 l 1
 141 429 l 1
 348 429 l 1
 391 633 l 1
 462 633 l 1
 418 429 l 1
 625 429 l 1
549 72 m 1
 534 0 l 1
 50 0 l 1
 65 72 l 1
 549 72 l 1
EndSplineSet
EndChar
StartChar: onehalf
Encoding: 406 189 299
Width: 947
Flags: W
HStem: 0 60<678 897> 370 55<823 844> 689 20G<349 393 808 866>
VStem: 900 65<308 321>
DStem: 302 580 393 709 239 284 303 284 808 709 866 709 202 -20 260 -20
Fore
302 580 m 1
 205 580 l 1
 215 626 l 1
 306 638 316 644 349 709 c 1
 393 709 l 1
 303 284 l 1
 239 284 l 1
 302 580 l 1
808 709 m 1
 866 709 l 1
 260 -20 l 1
 202 -20 l 1
 808 709 l 1
909 60 m 1
 897 0 l 1
 597 0 l 1
 625 101 652 132 762 188 c 2
 825 219 l 2
 872 241 900 275 900 310 c 0
 900 346 873 370 832 370 c 0
 776 370 744 340 727 271 c 1
 664 271 l 1
 688 378 743 425 842 425 c 0
 917 425 965 384 965 319 c 0
 965 259 924 209 841 168 c 2
 773 135 l 2
 719 108 697 91 678 60 c 1
 909 60 l 1
EndSplineSet
Ligature: 0 1 'frac' one slash two
Ligature: 0 1 'frac' one fraction two
EndChar
StartChar: onequarter
Encoding: 407 188 300
Width: 947
Flags: W
HStem: -20 21G<212 270> 100 55<688 798 873 926> 689 20G<349 393 818 876>
DStem: 302 580 393 709 239 284 303 284 798 100 861 100 777 0 840 0 818 709 876 709 212 -20 270 -20 844 316 930 425 810 155 873 155 883 425 844 316 627 160 688 155
Fore
302 580 m 1
 205 580 l 1
 215 626 l 1
 306 638 316 644 349 709 c 1
 393 709 l 1
 303 284 l 1
 239 284 l 1
 302 580 l 1
818 709 m 1
 876 709 l 1
 270 -20 l 1
 212 -20 l 1
 818 709 l 1
798 100 m 1
 614 100 l 1
 627 160 l 1
 883 425 l 1
 930 425 l 1
 873 155 l 1
 938 155 l 1
 926 100 l 1
 861 100 l 1
 840 0 l 1
 777 0 l 1
 798 100 l 1
810 155 m 1
 844 316 l 1
 688 155 l 1
 810 155 l 1
EndSplineSet
Ligature: 0 1 'frac' one slash four
Ligature: 0 1 'frac' one fraction four
EndChar
StartChar: threequarters
Encoding: 408 190 301
Width: 947
Flags: W
HStem: -20 21G<232 290> 100 55<688 798 873 926> 270 55<245 269> 475 52<266 300> 654 55<326 340>
VStem: 123 65<371 383> 365 65<415 434> 390 65<603 618>
DStem: 798 100 861 100 777 0 840 0 838 709 896 709 232 -20 290 -20 844 316 930 425 810 155 873 155 883 425 844 316 627 160 688 155
Fore
256 474 m 1xfe
 267 527 l 1
 279 527 l 1
 283 527 l 2
 356 527 390 552 390 606 c 0
 390 636 366 654 328 654 c 0
 296 654 269 642 252 619 c 0
 243 608 238 596 231 565 c 1
 168 565 l 1
 181 613 191 636 211 657 c 0
 242 691 286 709 338 709 c 0
 409 709 455 673 455 618 c 0xfd
 455 567 436 535 386 504 c 1
 417 489 430 467 430 434 c 0
 430 340 351 270 247 270 c 0
 167 270 123 307 123 373 c 0
 123 383 124 392 126 414 c 1
 190 414 l 1
 189 402 l 1
 188 393 188 387 188 381 c 0
 188 347 215 325 256 325 c 0
 321 325 365 365 365 425 c 0
 365 457 336 475 287 475 c 0
 280 475 272 475 256 474 c 1xfe
838 709 m 1
 896 709 l 1
 290 -20 l 1
 232 -20 l 1
 838 709 l 1
798 100 m 1
 614 100 l 1
 627 160 l 1
 883 425 l 1
 930 425 l 1
 873 155 l 1
 938 155 l 1
 926 100 l 1
 861 100 l 1
 840 0 l 1
 777 0 l 1
 798 100 l 1
810 155 m 1
 844 316 l 1
 688 155 l 1
 810 155 l 1
EndSplineSet
Ligature: 0 1 'frac' three slash four
Ligature: 0 1 'frac' three fraction four
EndChar
StartChar: commaaccent
Encoding: 409 63171 302
Width: 333
Flags: W
HStem: -284 38<57 67>
Fore
105 -60 m 1
 205 -60 l 1
 186 -153 l 1
 168 -235 120 -284 57 -284 c 1
 65 -246 l 1
 104 -246 128 -217 139 -158 c 1
 84 -158 l 1
 105 -60 l 1
EndSplineSet
EndChar
StartChar: copyright
Encoding: 410 169 303
Width: 737
Flags: W
HStem: -22 62<358 377> 126 62<400 418> 530 62<486 505> 680 62<501 536>
VStem: 55 70<279 303> 249 72<282 314> 766 70<425 442>
Fore
637 437 m 1
 566 437 l 1
 563 503 540 530 488 530 c 0
 440 530 398 504 366 456 c 0
 338 413 321 354 321 301 c 0
 321 234 359 188 416 188 c 0
 471 188 517 231 547 312 c 1
 618 312 l 1
 594 251 578 224 552 196 c 0
 509 149 459 126 400 126 c 0
 306 126 249 189 249 292 c 0
 249 367 278 448 326 506 c 0
 374 562 435 592 503 592 c 0
 593 592 635 543 637 437 c 1
530 742 m 0
 707 742 836 614 836 440 c 0
 836 200 607 -22 361 -22 c 0
 184 -22 55 106 55 281 c 0
 55 520 284 742 530 742 c 0
516 680 m 0
 314 680 125 493 125 293 c 0
 125 147 231 40 375 40 c 0
 577 40 766 227 766 428 c 0
 766 573 660 680 516 680 c 0
EndSplineSet
EndChar
StartChar: registered
Encoding: 411 174 304
Width: 737
Flags: W
HStem: -22 62<353 385> 325 63<355 488> 522 63<326 531> 680 62<502 536>
VStem: 55 70<279 306> 510 75<168 194> 529 71<285 304> 575 76<476 496> 766 70<414 442>
DStem: 326 585 383 522 232 140 355 388 326 585 341 325 232 140 302 140
Fore
341 325 m 1xfa80
 302 140 l 1
 232 140 l 1
 326 585 l 1
 532 585 l 2
 613 585 651 557 651 496 c 0xf980
 651 470 644 440 633 418 c 0
 621 395 606 381 571 360 c 1
 594 342 600 331 600 304 c 0xfa80
 600 294 598 277 592 248 c 0
 587 216 585 205 585 194 c 0
 585 180 588 173 597 165 c 1
 592 140 l 1
 514 140 l 1
 511 152 510 158 510 168 c 0xfc80
 510 194 511 197 525 253 c 0
 527 264 529 276 529 285 c 0
 529 312 511 325 475 325 c 2
 341 325 l 1xfa80
355 388 m 1
 484 388 l 2
 519 388 540 396 556 416 c 0
 567 431 575 455 575 476 c 0
 575 509 556 522 512 522 c 2
 383 522 l 1
 355 388 l 1
530 742 m 0
 707 742 836 614 836 440 c 0
 836 200 607 -22 361 -22 c 0
 184 -22 55 106 55 281 c 0
 55 520 284 742 530 742 c 0
516 680 m 0
 314 680 125 493 125 293 c 0
 125 147 231 40 375 40 c 0
 577 40 766 227 766 428 c 0
 766 573 660 680 516 680 c 0
EndSplineSet
EndChar
StartChar: lozenge
Encoding: 412 9674 305
Width: 489
Flags: W
HStem: 0 21G<208 270> 724 20G<208 270>
DStem: 16 372 79 372 208 0 240 60 208 744 240 684 16 372 79 372 240 684 270 744 400 372 462 372 400 372 462 372 240 60 270 0
Fore
270 744 m 1
 462 372 l 1
 270 0 l 1
 208 0 l 1
 16 372 l 1
 208 744 l 1
 270 744 l 1
240 60 m 1
 400 372 l 1
 240 684 l 1
 79 372 l 1
 240 60 l 1
EndSplineSet
EndChar
StartChar: Delta
Encoding: 413 8710 306
Width: 712
Flags: W
HStem: 0 82<160 701> 709 20G<459 559>
DStem: 459 729 485 616 10 0 160 82 485 616 559 729 584 82 701 0
Fore
10 0 m 1
 459 729 l 1
 559 729 l 1
 701 0 l 1
 10 0 l 1
160 82 m 1
 584 82 l 1
 485 616 l 1
 160 82 l 1
EndSplineSet
EndChar
StartChar: notequal
Encoding: 414 8800 307
Width: 584
Flags: W
HStem: 111 72<88 197 342 558> 283 72<124 329 474 594>
DStem: 197 111 288 111 143 41 205 2 329 283 420 283 250 183 342 183 478 480 540 441 382 355 474 355
Fore
197 111 m 1
 74 111 l 1
 89 183 l 1
 250 183 l 1
 329 283 l 1
 111 283 l 1
 125 355 l 1
 382 355 l 1
 478 480 l 1
 540 441 l 1
 474 355 l 1
 609 355 l 1
 594 283 l 1
 420 283 l 1
 342 183 l 1
 572 183 l 1
 558 111 l 1
 288 111 l 1
 205 2 l 1
 143 41 l 1
 197 111 l 1
EndSplineSet
Ligature: 0 1 'liga' equal uni0338
EndChar
StartChar: radical
Encoding: 415 8730 308
Width: 542
Flags: W
DStem: 217 461 265 521 353 -36 375 125 265 521 217 461 102 448 113 415 670 913 705 908 375 125 353 -36
Fore
670 913 m 1
 705 908 l 1
 353 -36 l 1
 217 461 l 1
 113 415 l 1
 102 448 l 1
 265 521 l 1
 375 125 l 1
 670 913 l 1
EndSplineSet
EndChar
StartChar: lessequal
Encoding: 416 8804 309
Width: 584
Flags: W
HStem: 0 72<59 534>
DStem: 111 308 220 341 556 101 573 178 659 584 642 505 126 377 220 341
Fore
549 72 m 1
 534 0 l 1
 45 0 l 1
 60 72 l 1
 549 72 l 1
111 308 m 1
 126 377 l 1
 659 584 l 1
 642 505 l 1
 220 341 l 1
 573 178 l 1
 556 101 l 1
 111 308 l 1
EndSplineSet
EndChar
StartChar: greaterequal
Encoding: 417 8805 310
Width: 584
Flags: W
HStem: 0 72<70 545>
DStem: 164 507 181 584 517 344 626 377 517 344 611 308 95 180 78 101
Fore
71 72 m 1
 560 72 l 1
 545 0 l 1
 56 0 l 1
 71 72 l 1
626 377 m 1
 611 308 l 1
 78 101 l 1
 95 180 l 1
 517 344 l 1
 164 507 l 1
 181 584 l 1
 626 377 l 1
EndSplineSet
EndChar
StartChar: logicalnot
Encoding: 418 172 311
Width: 584
Flags: W
HStem: 305 72<113 534>
DStem: 534 305 619 377 488 86 558 86
Fore
114 377 m 1
 619 377 l 1
 558 86 l 1
 488 86 l 1
 534 305 l 1
 99 305 l 1
 114 377 l 1
EndSplineSet
EndChar
StartChar: summation
Encoding: 419 8721 312
Width: 711
Flags: W
HStem: -88 105<183 539> 576 179<274 733> 707 48<274 612>
DStem: 163 762 326 707 411 248 520 298
Fore
183 17 m 1xa0
 500 17 l 2
 562 17 585 22 610 39 c 0
 633 55 641 66 673 116 c 0
 675 120 677 123 681 129 c 1
 706 129 l 1
 665 45 648 1 615 -97 c 1
 594 -91 567 -88 537 -88 c 2
 57 -88 l 2
 16 -88 16 -88 -18 -92 c 1
 411 248 l 1
 163 762 l 1
 203 757 233 755 274 755 c 2xc0
 760 755 l 1xa0
 733 576 l 1
 711 576 l 1xc0
 709 630 704 652 692 671 c 0
 675 695 642 707 588 707 c 2
 326 707 l 1
 520 298 l 1
 183 17 l 1xa0
EndSplineSet
EndChar
StartChar: partialdiff
Encoding: 420 8706 313
Width: 490
Flags: W
HStem: -15 32<192 212> 365 43<218 257> 703 47<192 216>
VStem: 22 88<154 179> 379 79<405 456>
Fore
102 670 m 1
 62 722 l 1
 102 740 149 750 194 750 c 0
 347 750 458 605 458 405 c 0
 458 302 429 171 392 103 c 0
 349 26 287 -15 212 -15 c 0
 105 -15 22 70 22 179 c 0
 22 244 50 311 96 358 c 0
 130 392 169 408 218 408 c 0
 271 408 300 396 368 343 c 1
 377 402 379 426 379 456 c 0
 379 529 358 604 324 651 c 0
 300 684 261 703 214 703 c 0
 178 703 169 700 110 674 c 2
 102 670 l 1
361 304 m 1
 359 308 l 2
 336 343 296 365 257 365 c 0
 176 365 110 270 110 154 c 0
 110 68 143 17 199 17 c 0
 253 17 299 61 326 139 c 0
 340 183 347 215 361 304 c 1
EndSplineSet
EndChar
StartChar: brokenbar
Encoding: 421 166 314
Width: 260
Flags: W
HStem: 709 20G<255 315>
DStem: 140 189 200 189 54 -212 114 -212 255 729 315 729 169 328 229 328
Fore
255 729 m 1
 315 729 l 1
 229 328 l 1
 169 328 l 1
 255 729 l 1
140 189 m 1
 200 189 l 1
 114 -212 l 1
 54 -212 l 1
 140 189 l 1
EndSplineSet
EndChar
